SplineFontDB: 3.2
FontName: PPLXSerifBetav0VF
FullName: PPLX Serif Beta v0 VF
FamilyName: PPLX Serif Beta v0 VF
Weight: Black
Copyright: 
Version: 0.001;Glyphs 3.5 (3512)
ItalicAngle: 0
UnderlinePosition: -256
UnderlineWidth: 102.4
Ascent: 1638
Descent: 410
InvalidEm: 0
sfntRevision: 0x00000042
LayerCount: 2
Layer: 0 1 "Back" 1
Layer: 1 1 "Fore" 0
XUID: [1021 382 509860542 15366383]
StyleMap: 0x0040
FSType: 8
OS2Version: 4
OS2_WeightWidthSlopeOnly: 0
OS2_UseTypoMetrics: 1
CreationTime: 1768993621
ModificationTime: 1772994923
PfmFamily: 81
TTFWeight: 900
TTFWidth: 5
LineGap: 0
VLineGap: 0
Panose: 0 0 0 0 0 0 0 0 0 0
OS2TypoAscent: 2048
OS2TypoAOffset: 0
OS2TypoDescent: -758
OS2TypoDOffset: 0
OS2TypoLinegap: 0
OS2WinAscent: 2048
OS2WinAOffset: 0
OS2WinDescent: 758
OS2WinDOffset: 0
HheadAscent: 2048
HheadAOffset: 0
HheadDescent: -758
HheadDOffset: 0
OS2SubXSize: 1331
OS2SubYSize: 1229
OS2SubXOff: 0
OS2SubYOff: 154
OS2SupXSize: 1331
OS2SupYSize: 1229
OS2SupXOff: 0
OS2SupYOff: 717
OS2StrikeYSize: 102
OS2StrikeYPos: 522
OS2CapHeight: 1444
OS2XHeight: 1055
OS2Vendor: 'UKWN'
OS2CodePages: 20000093.00000000
OS2UnicodeRanges: a000007f.4000847b.00000000.00000000
Lookup: 1 0 0 "'aalt' Access All Alternates in Latin lookup 0" { "'aalt' Access All Alternates in Latin lookup 0 subtable"  } ['aalt' ('DFLT' <'dflt' > 'latn' <'AZE ' 'CAT ' 'CRT ' 'KAZ ' 'MOL ' 'NLD ' 'ROM ' 'TAT ' 'TRK ' 'dflt' > ) ]
Lookup: 3 0 0 "'aalt' Access All Alternates in Latin lookup 1" { "'aalt' Access All Alternates in Latin lookup 1 subtable"  } ['aalt' ('DFLT' <'dflt' > 'latn' <'AZE ' 'CAT ' 'CRT ' 'KAZ ' 'MOL ' 'NLD ' 'ROM ' 'TAT ' 'TRK ' 'dflt' > ) ]
Lookup: 6 16 0 "'ccmp' Glyph Composition/Decomposition in Latin lookup 2" { "'ccmp' Glyph Composition/Decomposition in Latin lookup 2 contextual 0"  "'ccmp' Glyph Composition/Decomposition in Latin lookup 2 contextual 1"  } ['ccmp' ('DFLT' <'dflt' > 'latn' <'AZE ' 'CAT ' 'CRT ' 'KAZ ' 'MOL ' 'NLD ' 'ROM ' 'TAT ' 'TRK ' 'dflt' > ) ]

StartChar: .notdef
Encoding: 65536 -1 0
Width: 1228
GlyphClass: 1
Flags: W
LayerCount: 2
Fore
SplineSet
0 1444 m 1,0,-1
 1229 1444 l 1,1,-1
 1229 -420 l 1,2,-1
 0 -420 l 1,3,-1
 0 1444 l 1,0,-1
1106 1399 m 1,4,-1
 1192 1399 l 1,5,-1
 106 -375 l 1,6,-1
 20 -375 l 1,7,-1
 1106 1399 l 1,4,-1
20 1399 m 1,8,-1
 106 1399 l 1,9,-1
 1192 -375 l 1,10,-1
 1106 -375 l 1,11,-1
 20 1399 l 1,8,-1
1157 -348 m 1,12,-1
 1157 1372 l 1,13,-1
 72 1372 l 1,14,-1
 72 -348 l 1,15,-1
 1157 -348 l 1,12,-1
EndSplineSet
Validated: 5
EndChar

StartChar: A
Encoding: 65 65 2
Width: 1515
GlyphClass: 2
Flags: W
AnchorPoint: "Anchor-5" 1260 0 basechar 0
AnchorPoint: "Anchor-4" 766 1444 basechar 0
AnchorPoint: "Anchor-3" 580 0 basechar 0
LayerCount: 2
Fore
SplineSet
158 0 m 1,0,-1
 10 0 l 1,1,-1
 10 41 l 1,2,3
 61 41 61 41 89 55.5 c 128,-1,4
 117 70 117 70 135.5 102.5 c 128,-1,5
 154 135 154 135 188 213 c 2,6,-1
 737 1475 l 1,7,-1
 793 1475 l 1,8,-1
 1348 211 l 2,9,10
 1385 131 1385 131 1401 100.5 c 128,-1,11
 1417 70 1417 70 1440.5 55.5 c 128,-1,12
 1464 41 1464 41 1505 41 c 1,13,-1
 1505 0 l 1,14,-1
 1384 0 l 1,15,-1
 795 0 l 1,16,-1
 795 41 l 1,17,18
 865 41 865 41 893.5 53.5 c 128,-1,19
 922 66 922 66 922 102 c 0,20,21
 922 137 922 137 883 231 c 2,22,-1
 573 993 l 1,23,-1
 606 1032 l 1,24,-1
 287 233 l 2,25,26
 252 145 252 145 252 104 c 0,27,28
 252 67 252 67 281.5 54 c 128,-1,29
 311 41 311 41 379 41 c 1,30,-1
 379 0 l 1,31,-1
 158 0 l 1,0,-1
340 526 m 1,32,-1
 858 526 l 1,33,-1
 858 465 l 1,34,-1
 340 465 l 1,35,-1
 340 526 l 1,32,-1
EndSplineSet
Validated: 5
Substitution2: "Single Substitution lookup 36 subtable" ordfeminine
Substitution2: "'c2sc' Capitals to Small Capitals in Latin lookup 24 subtable" a.sc
AlternateSubs2: "'aalt' Access All Alternates in Latin lookup 1 subtable" ordfeminine a.sc
EndChar

StartChar: B
Encoding: 66 66 3
Width: 1486
GlyphClass: 2
Flags: W
AnchorPoint: "Anchor-4" 743 1444 basechar 0
AnchorPoint: "Anchor-3" 743 0 basechar 0
LayerCount: 2
Fore
SplineSet
225 0 m 1,0,-1
 41 0 l 1,1,-1
 41 41 l 1,2,3
 107 41 107 41 136.5 57.5 c 128,-1,4
 166 74 166 74 175 110.5 c 128,-1,5
 184 147 184 147 184 225 c 2,6,-1
 184 1219 l 2,7,8
 184 1297 184 1297 175 1333.5 c 128,-1,9
 166 1370 166 1370 136 1386.5 c 128,-1,10
 106 1403 106 1403 41 1403 c 1,11,-1
 41 1444 l 1,12,-1
 225 1444 l 1,13,-1
 813 1444 l 2,14,15
 1059 1444 1059 1444 1199 1363 c 128,-1,16
 1339 1282 1339 1282 1339 1145 c 0,17,18
 1339 1055 1339 1055 1287 986.5 c 128,-1,19
 1235 918 1235 918 1143 876 c 128,-1,20
 1051 834 1051 834 928 817 c 1,21,22
 1080 801 1080 801 1194.5 753 c 128,-1,23
 1309 705 1309 705 1372.5 625 c 128,-1,24
 1436 545 1436 545 1436 436 c 0,25,26
 1436 311 1436 311 1368 213 c 128,-1,27
 1300 115 1300 115 1164 57.5 c 128,-1,28
 1028 0 1028 0 836 0 c 2,29,-1
 225 0 l 1,0,-1
929.5 148.5 m 128,-1,31
 995 242 995 242 995 403 c 0,32,33
 995 575 995 575 916.5 669.5 c 128,-1,34
 838 764 838 764 690 764 c 2,35,-1
 485 764 l 1,36,-1
 485 819 l 1,37,-1
 674 819 l 2,38,39
 783 819 783 819 851.5 895 c 128,-1,40
 920 971 920 971 920 1108 c 0,41,42
 920 1241 920 1241 851 1315 c 128,-1,43
 782 1389 782 1389 672 1389 c 2,44,-1
 549 1389 l 1,45,-1
 614 1417 l 1,46,-1
 614 240 l 2,47,48
 614 146 614 146 646 100.5 c 128,-1,49
 678 55 678 55 750 55 c 1,50,-1
 750 55 l 1,51,30
 864 55 864 55 929.5 148.5 c 128,-1,31
EndSplineSet
Validated: 5
Substitution2: "'c2sc' Capitals to Small Capitals in Latin lookup 24 subtable" b.sc
Substitution2: "'aalt' Access All Alternates in Latin lookup 0 subtable" b.sc
EndChar

StartChar: C
Encoding: 67 67 4
Width: 1533
GlyphClass: 2
Flags: W
AnchorPoint: "Anchor-4" 907 1444 basechar 0
AnchorPoint: "Anchor-3" 874 0 basechar 0
LayerCount: 2
Fore
SplineSet
473.5 66.5 m 128,-1,1
 281 164 281 164 171 335 c 128,-1,2
 61 506 61 506 61 721 c 256,3,4
 61 936 61 936 171 1108 c 128,-1,5
 281 1280 281 1280 473.5 1377.5 c 128,-1,6
 666 1475 666 1475 905 1475 c 0,7,8
 1044 1475 1044 1475 1171 1438 c 128,-1,9
 1298 1401 1298 1401 1384 1335 c 1,10,-1
 1384 940 l 1,11,-1
 1343 940 l 1,12,13
 1275 1180 1275 1180 1170 1296.5 c 128,-1,14
 1065 1413 1065 1413 915 1413 c 0,15,16
 794 1413 794 1413 705 1328 c 128,-1,17
 616 1243 616 1243 568 1087.5 c 128,-1,18
 520 932 520 932 520 721 c 0,19,20
 520 514 520 514 567 357.5 c 128,-1,21
 614 201 614 201 700 116 c 128,-1,22
 786 31 786 31 899 31 c 0,23,24
 1036 31 1036 31 1167 164 c 128,-1,25
 1298 297 1298 297 1432 569 c 1,26,-1
 1473 569 l 1,27,-1
 1370 102 l 1,28,29
 1253 36 1253 36 1135.5 2.5 c 128,-1,30
 1018 -31 1018 -31 907 -31 c 0,31,0
 666 -31 666 -31 473.5 66.5 c 128,-1,1
EndSplineSet
Validated: 1
Substitution2: "'c2sc' Capitals to Small Capitals in Latin lookup 24 subtable" c.sc
Substitution2: "'aalt' Access All Alternates in Latin lookup 0 subtable" c.sc
EndChar

StartChar: D
Encoding: 68 68 5
Width: 1638
GlyphClass: 2
Flags: W
AnchorPoint: "Anchor-4" 762 1444 basechar 0
AnchorPoint: "Anchor-3" 582 0 basechar 0
LayerCount: 2
Fore
SplineSet
225 0 m 1,0,-1
 41 0 l 1,1,-1
 41 41 l 1,2,3
 107 41 107 41 136.5 57.5 c 128,-1,4
 166 74 166 74 175 110.5 c 128,-1,5
 184 147 184 147 184 225 c 2,6,-1
 184 1219 l 2,7,8
 184 1297 184 1297 175 1333.5 c 128,-1,9
 166 1370 166 1370 136 1386.5 c 128,-1,10
 106 1403 106 1403 41 1403 c 1,11,-1
 41 1444 l 1,12,-1
 225 1444 l 1,13,-1
 764 1444 l 2,14,15
 1002 1444 1002 1444 1186 1358 c 128,-1,16
 1370 1272 1370 1272 1473.5 1112 c 128,-1,17
 1577 952 1577 952 1577 737 c 0,18,19
 1577 526 1577 526 1460 357 c 128,-1,20
 1343 188 1343 188 1156 94 c 128,-1,21
 969 0 969 0 764 0 c 2,22,-1
 225 0 l 1,0,-1
962.5 148.5 m 128,-1,24
 1044 236 1044 236 1090.5 390.5 c 128,-1,25
 1137 545 1137 545 1137 737 c 256,26,27
 1137 930 1137 930 1084.5 1076.5 c 128,-1,28
 1032 1223 1032 1223 938 1302.5 c 128,-1,29
 844 1382 844 1382 721 1382 c 2,30,-1
 524 1382 l 1,31,-1
 616 1413 l 1,32,-1
 616 246 l 2,33,34
 616 152 616 152 655 106.5 c 128,-1,35
 694 61 694 61 774 61 c 2,36,-1
 776 61 l 2,37,23
 881 61 881 61 962.5 148.5 c 128,-1,24
EndSplineSet
Validated: 5
Substitution2: "'c2sc' Capitals to Small Capitals in Latin lookup 24 subtable" d.sc
Substitution2: "'aalt' Access All Alternates in Latin lookup 0 subtable" d.sc
EndChar

StartChar: E
Encoding: 69 69 6
Width: 1382
GlyphClass: 2
Flags: W
AnchorPoint: "Anchor-5" 979 0 basechar 0
AnchorPoint: "Anchor-4" 682 1444 basechar 0
AnchorPoint: "Anchor-3" 692 0 basechar 0
LayerCount: 2
Fore
SplineSet
225 0 m 1,0,-1
 41 0 l 1,1,-1
 41 41 l 1,2,3
 107 41 107 41 136.5 57.5 c 128,-1,4
 166 74 166 74 175 110.5 c 128,-1,5
 184 147 184 147 184 225 c 2,6,-1
 184 1219 l 2,7,8
 184 1297 184 1297 175 1333.5 c 128,-1,9
 166 1370 166 1370 136 1386.5 c 128,-1,10
 106 1403 106 1403 41 1403 c 1,11,-1
 41 1444 l 1,12,-1
 225 1444 l 1,13,-1
 1188 1444 l 1,14,-1
 1225 1042 l 1,15,-1
 1184 1042 l 1,16,17
 1155 1159 1155 1159 1104 1234 c 128,-1,18
 1053 1309 1053 1309 976 1345.5 c 128,-1,19
 899 1382 899 1382 793 1382 c 2,20,-1
 522 1382 l 1,21,-1
 614 1413 l 1,22,-1
 614 225 l 2,23,24
 614 129 614 129 647 95 c 128,-1,25
 680 61 680 61 776 61 c 2,26,-1
 823 61 l 2,27,28
 911 61 911 61 995 102 c 128,-1,29
 1079 143 1079 143 1155 221 c 128,-1,30
 1231 299 1231 299 1290 410 c 1,31,-1
 1331 410 l 1,32,-1
 1204 0 l 1,33,-1
 225 0 l 1,0,-1
989.5 654.5 m 128,-1,35
 963 707 963 707 909.5 733.5 c 128,-1,36
 856 760 856 760 780 760 c 2,37,-1
 512 760 l 1,38,-1
 512 821 l 1,39,-1
 780 821 l 2,40,41
 856 821 856 821 909.5 847.5 c 128,-1,42
 963 874 963 874 989.5 926.5 c 128,-1,43
 1016 979 1016 979 1016 1053 c 1,44,-1
 1057 1053 l 1,45,-1
 1057 528 l 1,46,-1
 1016 528 l 1,47,34
 1016 602 1016 602 989.5 654.5 c 128,-1,35
EndSplineSet
Validated: 5
Substitution2: "'c2sc' Capitals to Small Capitals in Latin lookup 24 subtable" e.sc
Substitution2: "'aalt' Access All Alternates in Latin lookup 0 subtable" e.sc
EndChar

StartChar: F
Encoding: 70 70 7
Width: 1234
GlyphClass: 2
Flags: W
AnchorPoint: "Anchor-4" 633 1444 basechar 0
AnchorPoint: "Anchor-3" 633 0 basechar 0
LayerCount: 2
Fore
SplineSet
225 0 m 1,0,-1
 41 0 l 1,1,-1
 41 41 l 1,2,3
 107 41 107 41 136.5 57.5 c 128,-1,4
 166 74 166 74 175 110.5 c 128,-1,5
 184 147 184 147 184 225 c 2,6,-1
 184 1219 l 2,7,8
 184 1297 184 1297 175 1333.5 c 128,-1,9
 166 1370 166 1370 136 1386.5 c 128,-1,10
 106 1403 106 1403 41 1403 c 1,11,-1
 41 1444 l 1,12,-1
 225 1444 l 1,13,-1
 1157 1444 l 1,14,-1
 1204 1042 l 1,15,-1
 1163 1042 l 1,16,17
 1130 1179 1130 1179 1080 1253 c 128,-1,18
 1030 1327 1030 1327 958.5 1354.5 c 128,-1,19
 887 1382 887 1382 778 1382 c 2,20,-1
 522 1382 l 1,21,-1
 614 1413 l 1,22,-1
 614 225 l 2,23,24
 614 147 614 147 627.5 110.5 c 128,-1,25
 641 74 641 74 683 57.5 c 128,-1,26
 725 41 725 41 815 41 c 1,27,-1
 815 0 l 1,28,-1
 557 0 l 1,29,-1
 225 0 l 1,0,-1
970.5 589 m 128,-1,31
 946 641 946 641 894 669.5 c 128,-1,32
 842 698 842 698 760 698 c 2,33,-1
 492 698 l 1,34,-1
 492 760 l 1,35,-1
 760 760 l 2,36,37
 842 760 842 760 894 788.5 c 128,-1,38
 946 817 946 817 970.5 869.5 c 128,-1,39
 995 922 995 922 995 991 c 1,40,-1
 1036 991 l 1,41,-1
 1036 467 l 1,42,-1
 995 467 l 1,43,30
 995 537 995 537 970.5 589 c 128,-1,31
EndSplineSet
Validated: 5
Substitution2: "'c2sc' Capitals to Small Capitals in Latin lookup 24 subtable" f.sc
Substitution2: "'aalt' Access All Alternates in Latin lookup 0 subtable" f.sc
EndChar

StartChar: G
Encoding: 71 71 8
Width: 1538
GlyphClass: 2
Flags: W
AnchorPoint: "Anchor-4" 868 1444 basechar 0
AnchorPoint: "Anchor-3" 819 0 basechar 0
LayerCount: 2
Fore
SplineSet
423 62.5 m 128,-1,1
 252 156 252 156 156.5 326 c 128,-1,2
 61 496 61 496 61 721 c 0,3,4
 61 944 61 944 170 1114 c 128,-1,5
 279 1284 279 1284 472.5 1378.5 c 128,-1,6
 666 1473 666 1473 915 1473 c 0,7,8
 1044 1473 1044 1473 1164 1438 c 128,-1,9
 1284 1403 1284 1403 1370 1341 c 1,10,-1
 1370 981 l 1,11,-1
 1329 981 l 1,12,13
 1276 1194 1276 1194 1168.5 1302.5 c 128,-1,14
 1061 1411 1061 1411 911 1411 c 0,15,16
 772 1411 772 1411 686 1330 c 128,-1,17
 600 1249 600 1249 560 1100.5 c 128,-1,18
 520 952 520 952 520 741 c 0,19,20
 520 505 520 505 555 346.5 c 128,-1,21
 590 188 590 188 656.5 109.5 c 128,-1,22
 723 31 723 31 821 31 c 0,23,24
 921 31 921 31 967.5 106.5 c 128,-1,25
 1014 182 1014 182 1014 342 c 2,26,-1
 1014 512 l 2,27,28
 1014 584 1014 584 992.5 613.5 c 128,-1,29
 971 643 971 643 927 650 c 128,-1,30
 883 657 883 657 776 657 c 1,31,-1
 776 698 l 1,32,-1
 1360 698 l 1,33,-1
 1507 698 l 1,34,-1
 1507 657 l 1,35,36
 1456 657 1456 657 1431.5 641 c 128,-1,37
 1407 625 1407 625 1400 588 c 128,-1,38
 1393 551 1393 551 1393 473 c 2,39,-1
 1393 139 l 1,40,41
 1274 65 1274 65 1125.5 17 c 128,-1,42
 977 -31 977 -31 819 -31 c 0,43,0
 594 -31 594 -31 423 62.5 c 128,-1,1
EndSplineSet
Validated: 1
Substitution2: "'c2sc' Capitals to Small Capitals in Latin lookup 24 subtable" g.sc
Substitution2: "'aalt' Access All Alternates in Latin lookup 0 subtable" g.sc
EndChar

StartChar: H
Encoding: 72 72 9
Width: 1736
GlyphClass: 2
Flags: W
AnchorPoint: "Anchor-5" 1552 0 basechar 0
AnchorPoint: "Anchor-4" 868 1444 basechar 0
AnchorPoint: "Anchor-3" 868 0 basechar 0
LayerCount: 2
Fore
SplineSet
1163 0 m 1,0,-1
 979 0 l 1,1,-1
 979 41 l 1,2,3
 1045 41 1045 41 1074.5 57.5 c 128,-1,4
 1104 74 1104 74 1113 110.5 c 128,-1,5
 1122 147 1122 147 1122 225 c 2,6,-1
 1122 1219 l 2,7,8
 1122 1297 1122 1297 1113 1333.5 c 128,-1,9
 1104 1370 1104 1370 1074 1386.5 c 128,-1,10
 1044 1403 1044 1403 979 1403 c 1,11,-1
 979 1444 l 1,12,-1
 1163 1444 l 1,13,-1
 1511 1444 l 1,14,-1
 1696 1444 l 1,15,-1
 1696 1403 l 1,16,17
 1630 1403 1630 1403 1600.5 1386.5 c 128,-1,18
 1571 1370 1571 1370 1561.5 1333 c 128,-1,19
 1552 1296 1552 1296 1552 1219 c 2,20,-1
 1552 225 l 2,21,22
 1552 147 1552 147 1561.5 110.5 c 128,-1,23
 1571 74 1571 74 1600.5 57.5 c 128,-1,24
 1630 41 1630 41 1696 41 c 1,25,-1
 1696 0 l 1,26,-1
 1511 0 l 1,27,-1
 1163 0 l 1,0,-1
225 0 m 1,28,-1
 41 0 l 1,29,-1
 41 41 l 1,30,31
 107 41 107 41 136.5 57.5 c 128,-1,32
 166 74 166 74 175 110.5 c 128,-1,33
 184 147 184 147 184 225 c 2,34,-1
 184 1219 l 2,35,36
 184 1297 184 1297 175 1333.5 c 128,-1,37
 166 1370 166 1370 136 1386.5 c 128,-1,38
 106 1403 106 1403 41 1403 c 1,39,-1
 41 1444 l 1,40,-1
 225 1444 l 1,41,-1
 573 1444 l 1,42,-1
 758 1444 l 1,43,-1
 758 1403 l 1,44,45
 692 1403 692 1403 662.5 1386.5 c 128,-1,46
 633 1370 633 1370 623.5 1333 c 128,-1,47
 614 1296 614 1296 614 1219 c 2,48,-1
 614 225 l 2,49,50
 614 147 614 147 623.5 110.5 c 128,-1,51
 633 74 633 74 662.5 57.5 c 128,-1,52
 692 41 692 41 758 41 c 1,53,-1
 758 0 l 1,54,-1
 573 0 l 1,55,-1
 225 0 l 1,28,-1
522 821 m 1,56,-1
 1243 821 l 1,57,-1
 1243 760 l 1,58,-1
 522 760 l 1,59,-1
 522 821 l 1,56,-1
EndSplineSet
Validated: 5
Substitution2: "'c2sc' Capitals to Small Capitals in Latin lookup 24 subtable" h.sc
Substitution2: "'aalt' Access All Alternates in Latin lookup 0 subtable" h.sc
EndChar

StartChar: I
Encoding: 73 73 10
Width: 798
GlyphClass: 2
Flags: W
AnchorPoint: "Anchor-5" 614 0 basechar 0
AnchorPoint: "Anchor-4" 399 1444 basechar 0
AnchorPoint: "Anchor-3" 399 0 basechar 0
LayerCount: 2
Fore
SplineSet
225 0 m 1,0,-1
 41 0 l 1,1,-1
 41 41 l 1,2,3
 107 41 107 41 136.5 57.5 c 128,-1,4
 166 74 166 74 175 110.5 c 128,-1,5
 184 147 184 147 184 225 c 2,6,-1
 184 1219 l 2,7,8
 184 1297 184 1297 175 1333.5 c 128,-1,9
 166 1370 166 1370 136 1386.5 c 128,-1,10
 106 1403 106 1403 41 1403 c 1,11,-1
 41 1444 l 1,12,-1
 225 1444 l 1,13,-1
 573 1444 l 1,14,-1
 758 1444 l 1,15,-1
 758 1403 l 1,16,17
 692 1403 692 1403 662.5 1386.5 c 128,-1,18
 633 1370 633 1370 623.5 1333 c 128,-1,19
 614 1296 614 1296 614 1219 c 2,20,-1
 614 225 l 2,21,22
 614 147 614 147 623.5 110.5 c 128,-1,23
 633 74 633 74 662.5 57.5 c 128,-1,24
 692 41 692 41 758 41 c 1,25,-1
 758 0 l 1,26,-1
 573 0 l 1,27,-1
 225 0 l 1,0,-1
EndSplineSet
Validated: 1
Substitution2: "'c2sc' Capitals to Small Capitals in Latin lookup 24 subtable" i.sc
Substitution2: "'aalt' Access All Alternates in Latin lookup 0 subtable" i.sc
EndChar

StartChar: J
Encoding: 74 74 11
Width: 784
GlyphClass: 2
Flags: W
AnchorPoint: "Anchor-4" 410 1444 basechar 0
AnchorPoint: "Anchor-3" 303 0 basechar 0
LayerCount: 2
Fore
SplineSet
111 -193.5 m 128,-1,1
 150 -92 150 -92 172.5 34 c 128,-1,2
 195 160 195 160 195 307 c 2,3,-1
 195 1219 l 2,4,5
 195 1297 195 1297 184.5 1333.5 c 128,-1,6
 174 1370 174 1370 139 1386.5 c 128,-1,7
 104 1403 104 1403 31 1403 c 1,8,-1
 31 1444 l 1,9,-1
 242 1444 l 1,10,-1
 588 1444 l 1,11,-1
 754 1444 l 1,12,-1
 754 1403 l 1,13,14
 695 1403 695 1403 668 1386.5 c 128,-1,15
 641 1370 641 1370 633 1333 c 128,-1,16
 625 1296 625 1296 625 1219 c 2,17,-1
 625 395 l 2,18,19
 625 243 625 243 532.5 81.5 c 128,-1,20
 440 -80 440 -80 307 -206 c 128,-1,21
 174 -332 174 -332 61 -379 c 1,22,-1
 20 -379 l 1,23,0
 72 -295 72 -295 111 -193.5 c 128,-1,1
EndSplineSet
Validated: 1
Substitution2: "Single Substitution lookup 34 subtable" uni004A0301
Substitution2: "'c2sc' Capitals to Small Capitals in Latin lookup 24 subtable" j.sc
AlternateSubs2: "'aalt' Access All Alternates in Latin lookup 1 subtable" uni004A0301 j.sc
EndChar

StartChar: K
Encoding: 75 75 12
Width: 1685
GlyphClass: 2
Flags: W
AnchorPoint: "Anchor-4" 838 1444 basechar 0
AnchorPoint: "Anchor-3" 838 0 basechar 0
LayerCount: 2
Fore
SplineSet
1046.5 69.5 m 128,-1,1
 1008 121 1008 121 971 186 c 2,2,-1
 641 778 l 1,3,-1
 641 778 l 1,4,-1
 1176 1270 l 2,5,6
 1209 1301 1209 1301 1224 1320 c 128,-1,7
 1239 1339 1239 1339 1239 1356 c 0,8,9
 1239 1385 1239 1385 1206.5 1394 c 128,-1,10
 1174 1403 1174 1403 1092 1403 c 1,11,-1
 1092 1444 l 1,12,-1
 1544 1444 l 1,13,-1
 1544 1403 l 1,14,15
 1501 1403 1501 1403 1474.5 1394.5 c 128,-1,16
 1448 1386 1448 1386 1416 1363.5 c 128,-1,17
 1384 1341 1384 1341 1305 1278 c 2,18,-1
 918 969 l 1,19,-1
 961 1047 l 1,20,-1
 1464 250 l 2,21,22
 1546 123 1546 123 1584 82 c 128,-1,23
 1622 41 1622 41 1665 41 c 1,24,-1
 1665 0 l 1,25,-1
 1108 0 l 1,26,0
 1085 18 1085 18 1046.5 69.5 c 128,-1,1
225 0 m 1,27,-1
 41 0 l 1,28,-1
 41 41 l 1,29,30
 107 41 107 41 136.5 57.5 c 128,-1,31
 166 74 166 74 175 110.5 c 128,-1,32
 184 147 184 147 184 225 c 2,33,-1
 184 1219 l 2,34,35
 184 1297 184 1297 175 1333.5 c 128,-1,36
 166 1370 166 1370 136 1386.5 c 128,-1,37
 106 1403 106 1403 41 1403 c 1,38,-1
 41 1444 l 1,39,-1
 225 1444 l 1,40,-1
 573 1444 l 1,41,-1
 758 1444 l 1,42,-1
 758 1403 l 1,43,44
 692 1403 692 1403 662.5 1386.5 c 128,-1,45
 633 1370 633 1370 623.5 1333 c 128,-1,46
 614 1296 614 1296 614 1219 c 2,47,-1
 614 225 l 2,48,49
 614 147 614 147 623.5 110.5 c 128,-1,50
 633 74 633 74 662.5 57.5 c 128,-1,51
 692 41 692 41 758 41 c 1,52,-1
 758 0 l 1,53,-1
 573 0 l 1,54,-1
 225 0 l 1,27,-1
EndSplineSet
Validated: 5
Substitution2: "'c2sc' Capitals to Small Capitals in Latin lookup 24 subtable" k.sc
Substitution2: "'aalt' Access All Alternates in Latin lookup 0 subtable" k.sc
EndChar

StartChar: L
Encoding: 76 76 13
Width: 1314
GlyphClass: 2
Flags: W
AnchorPoint: "Anchor-4" 399 1444 basechar 0
AnchorPoint: "Anchor-3" 647 0 basechar 0
LayerCount: 2
Fore
SplineSet
225 0 m 1,0,-1
 41 0 l 1,1,-1
 41 41 l 1,2,3
 107 41 107 41 136.5 57.5 c 128,-1,4
 166 74 166 74 175 110.5 c 128,-1,5
 184 147 184 147 184 225 c 2,6,-1
 184 1219 l 2,7,8
 184 1297 184 1297 175 1333.5 c 128,-1,9
 166 1370 166 1370 136 1386.5 c 128,-1,10
 106 1403 106 1403 41 1403 c 1,11,-1
 41 1444 l 1,12,-1
 225 1444 l 1,13,-1
 573 1444 l 1,14,-1
 758 1444 l 1,15,-1
 758 1403 l 1,16,17
 692 1403 692 1403 662.5 1386.5 c 128,-1,18
 633 1370 633 1370 623.5 1333 c 128,-1,19
 614 1296 614 1296 614 1219 c 2,20,-1
 614 0 l 1,21,-1
 225 0 l 1,0,-1
629.5 122 m 128,-1,23
 645 86 645 86 679 73.5 c 128,-1,24
 713 61 713 61 776 61 c 2,25,-1
 809 61 l 2,26,27
 909 61 909 61 995 120.5 c 128,-1,28
 1081 180 1081 180 1144.5 266 c 128,-1,29
 1208 352 1208 352 1253 451 c 1,30,-1
 1294 451 l 1,31,-1
 1147 0 l 1,32,-1
 512 0 l 1,33,-1
 614 225 l 1,34,22
 614 158 614 158 629.5 122 c 128,-1,23
EndSplineSet
Validated: 5
Substitution2: "'c2sc' Capitals to Small Capitals in Latin lookup 24 subtable" l.sc
Substitution2: "'aalt' Access All Alternates in Latin lookup 0 subtable" l.sc
EndChar

StartChar: M
Encoding: 77 77 14
Width: 1980
GlyphClass: 2
Flags: W
AnchorPoint: "Anchor-4" 762 1444 basechar 0
AnchorPoint: "Anchor-3" 762 0 basechar 0
LayerCount: 2
Fore
SplineSet
317 1294 m 1,0,-1
 356 1300 l 1,1,-1
 254 225 l 2,2,3
 246 147 246 147 255 110.5 c 128,-1,4
 264 74 264 74 302 57.5 c 128,-1,5
 340 41 340 41 424 41 c 1,6,-1
 424 0 l 1,7,-1
 184 0 l 1,8,-1
 186 0 l 1,9,-1
 20 0 l 1,10,-1
 20 41 l 1,11,12
 79 41 79 41 107 56.5 c 128,-1,13
 135 72 135 72 147.5 108.5 c 128,-1,14
 160 145 160 145 168 223 c 2,15,-1
 285 1221 l 2,16,17
 293 1297 293 1297 288 1333.5 c 128,-1,18
 283 1370 283 1370 254 1386.5 c 128,-1,19
 225 1403 225 1403 160 1403 c 1,20,-1
 160 1444 l 1,21,-1
 344 1444 l 1,22,-1
 709 1444 l 1,23,-1
 1001 526 l 1,24,-1
 934 459 l 1,25,-1
 1266 1444 l 1,26,-1
 1642 1444 l 1,27,-1
 1827 1444 l 1,28,-1
 1827 1403 l 1,29,30
 1761 1403 1761 1403 1732.5 1386.5 c 128,-1,31
 1704 1370 1704 1370 1698 1333 c 128,-1,32
 1692 1296 1692 1296 1700 1219 c 2,33,-1
 1815 225 l 2,34,35
 1823 147 1823 147 1834 110.5 c 128,-1,36
 1845 74 1845 74 1874 57.5 c 128,-1,37
 1903 41 1903 41 1960 41 c 1,38,-1
 1960 0 l 1,39,-1
 1794 0 l 1,40,-1
 1446 0 l 1,41,-1
 1206 0 l 1,42,-1
 1206 41 l 1,43,44
 1290 41 1290 41 1328 57.5 c 128,-1,45
 1366 74 1366 74 1375 110.5 c 128,-1,46
 1384 147 1384 147 1376 225 c 2,47,-1
 1262 1331 l 1,48,-1
 1303 1327 l 1,49,-1
 840 -31 l 1,50,-1
 799 -31 l 1,51,-1
 317 1294 l 1,0,-1
EndSplineSet
Validated: 37
Substitution2: "'c2sc' Capitals to Small Capitals in Latin lookup 24 subtable" m.sc
Substitution2: "'aalt' Access All Alternates in Latin lookup 0 subtable" m.sc
EndChar

StartChar: N
Encoding: 78 78 15
Width: 1595
GlyphClass: 2
Flags: W
AnchorPoint: "Anchor-4" 889 1444 basechar 0
AnchorPoint: "Anchor-3" 836 0 basechar 0
LayerCount: 2
Fore
SplineSet
242 1241 m 1,0,-1
 242 1241 l 1,1,2
 162 1331 162 1331 121 1367 c 128,-1,3
 80 1403 80 1403 41 1403 c 1,4,-1
 41 1444 l 1,5,-1
 649 1444 l 1,6,-1
 1362 637 l 1,7,-1
 1327 637 l 1,8,-1
 1327 1219 l 2,9,10
 1327 1297 1327 1297 1312.5 1333.5 c 128,-1,11
 1298 1370 1298 1370 1254 1386.5 c 128,-1,12
 1210 1403 1210 1403 1112 1403 c 1,13,-1
 1112 1444 l 1,14,-1
 1389 1444 l 1,15,-1
 1354 1444 l 1,16,-1
 1575 1444 l 1,17,-1
 1575 1403 l 1,18,19
 1497 1403 1497 1403 1461 1386.5 c 128,-1,20
 1425 1370 1425 1370 1414 1333 c 128,-1,21
 1403 1296 1403 1296 1403 1219 c 2,22,-1
 1403 -31 l 1,23,-1
 1362 -31 l 1,24,-1
 242 1241 l 1,0,-1
276 0 m 1,25,-1
 55 0 l 1,26,-1
 55 41 l 1,27,28
 133 41 133 41 169 57.5 c 128,-1,29
 205 74 205 74 216 110.5 c 128,-1,30
 227 147 227 147 227 225 c 2,31,-1
 227 1309 l 1,32,-1
 303 1184 l 1,33,-1
 303 225 l 2,34,35
 303 147 303 147 317.5 110.5 c 128,-1,36
 332 74 332 74 377 57.5 c 128,-1,37
 422 41 422 41 518 41 c 1,38,-1
 518 0 l 1,39,-1
 242 0 l 1,40,-1
 276 0 l 1,25,-1
EndSplineSet
Validated: 5
Substitution2: "'c2sc' Capitals to Small Capitals in Latin lookup 24 subtable" n.sc
Substitution2: "'aalt' Access All Alternates in Latin lookup 0 subtable" n.sc
EndChar

StartChar: O
Encoding: 79 79 16
Width: 1712
GlyphClass: 2
Flags: W
AnchorPoint: "Anchor-5" 1038 0 basechar 0
AnchorPoint: "Anchor-4" 856 1444 basechar 0
AnchorPoint: "Anchor-3" 856 0 basechar 0
LayerCount: 2
Fore
SplineSet
454.5 68.5 m 128,-1,1
 272 168 272 168 166.5 341 c 128,-1,2
 61 514 61 514 61 721 c 0,3,4
 61 930 61 930 166.5 1103 c 128,-1,5
 272 1276 272 1276 454.5 1375.5 c 128,-1,6
 637 1475 637 1475 856 1475 c 256,7,8
 1075 1475 1075 1475 1257.5 1375.5 c 128,-1,9
 1440 1276 1440 1276 1545.5 1103 c 128,-1,10
 1651 930 1651 930 1651 721 c 0,11,12
 1651 514 1651 514 1545.5 341 c 128,-1,13
 1440 168 1440 168 1257.5 68.5 c 128,-1,14
 1075 -31 1075 -31 856 -31 c 256,15,0
 637 -31 637 -31 454.5 68.5 c 128,-1,1
1035.5 114 m 128,-1,17
 1110 197 1110 197 1150 352.5 c 128,-1,18
 1190 508 1190 508 1190 721 c 0,19,20
 1190 936 1190 936 1150 1091.5 c 128,-1,21
 1110 1247 1110 1247 1035.5 1330 c 128,-1,22
 961 1413 961 1413 856 1413 c 256,23,24
 752 1413 752 1413 677 1330 c 128,-1,25
 602 1247 602 1247 562 1091.5 c 128,-1,26
 522 936 522 936 522 721 c 0,27,28
 522 508 522 508 562 352.5 c 128,-1,29
 602 197 602 197 677 114 c 128,-1,30
 752 31 752 31 856 31 c 256,31,16
 961 31 961 31 1035.5 114 c 128,-1,17
EndSplineSet
Validated: 1
Substitution2: "Single Substitution lookup 36 subtable" ordmasculine
Substitution2: "'c2sc' Capitals to Small Capitals in Latin lookup 24 subtable" o.sc
AlternateSubs2: "'aalt' Access All Alternates in Latin lookup 1 subtable" ordmasculine o.sc
EndChar

StartChar: P
Encoding: 80 80 17
Width: 1390
GlyphClass: 2
Flags: W
AnchorPoint: "Anchor-4" 696 1444 basechar 0
AnchorPoint: "Anchor-3" 696 0 basechar 0
LayerCount: 2
Fore
SplineSet
225 0 m 1,0,-1
 41 0 l 1,1,-1
 41 41 l 1,2,3
 107 41 107 41 136.5 57.5 c 128,-1,4
 166 74 166 74 175 110.5 c 128,-1,5
 184 147 184 147 184 225 c 2,6,-1
 184 1219 l 2,7,8
 184 1297 184 1297 175 1333.5 c 128,-1,9
 166 1370 166 1370 136 1386.5 c 128,-1,10
 106 1403 106 1403 41 1403 c 1,11,-1
 41 1444 l 1,12,-1
 225 1444 l 1,13,-1
 760 1444 l 2,14,15
 961 1444 961 1444 1098 1399 c 128,-1,16
 1235 1354 1235 1354 1302.5 1274 c 128,-1,17
 1370 1194 1370 1194 1370 1090 c 0,18,19
 1370 918 1370 918 1239 827.5 c 128,-1,20
 1108 737 1108 737 952.5 710.5 c 128,-1,21
 797 684 797 684 670 684 c 1,22,-1
 670 721 l 1,23,24
 725 721 725 721 790.5 766 c 128,-1,25
 856 811 856 811 902 891 c 128,-1,26
 948 971 948 971 948 1071 c 0,27,28
 948 1214 948 1214 882.5 1304.5 c 128,-1,29
 817 1395 817 1395 676 1395 c 2,30,-1
 522 1395 l 1,31,-1
 614 1425 l 1,32,-1
 614 225 l 2,33,34
 614 147 614 147 627.5 110.5 c 128,-1,35
 641 74 641 74 683 57.5 c 128,-1,36
 725 41 725 41 815 41 c 1,37,-1
 815 0 l 1,38,-1
 557 0 l 1,39,-1
 225 0 l 1,0,-1
EndSplineSet
Validated: 5
Substitution2: "'c2sc' Capitals to Small Capitals in Latin lookup 24 subtable" p.sc
Substitution2: "'aalt' Access All Alternates in Latin lookup 0 subtable" p.sc
EndChar

StartChar: Q
Encoding: 81 81 18
Width: 1712
GlyphClass: 2
Flags: W
AnchorPoint: "Anchor-5" 1038 0 basechar 0
AnchorPoint: "Anchor-4" 856 1444 basechar 0
AnchorPoint: "Anchor-3" 856 0 basechar 0
LayerCount: 2
Fore
SplineSet
1302 -407.5 m 128,-1,1
 1174 -354 1174 -354 1063 -255 c 128,-1,2
 952 -156 952 -156 846 -10 c 1,3,-1
 891 0 l 1,4,5
 1081 -80 1081 -80 1297 -122 c 128,-1,6
 1513 -164 1513 -164 1696 -164 c 0,7,8
 1800 -164 1800 -164 1904.5 -147.5 c 128,-1,9
 2009 -131 2009 -131 2081 -106 c 1,10,-1
 2081 -135 l 1,11,12
 2003 -272 2003 -272 1880 -366.5 c 128,-1,13
 1757 -461 1757 -461 1577 -461 c 0,14,0
 1430 -461 1430 -461 1302 -407.5 c 128,-1,1
454.5 68.5 m 128,-1,16
 272 168 272 168 166.5 341 c 128,-1,17
 61 514 61 514 61 721 c 0,18,19
 61 930 61 930 166.5 1103 c 128,-1,20
 272 1276 272 1276 454.5 1375.5 c 128,-1,21
 637 1475 637 1475 856 1475 c 256,22,23
 1075 1475 1075 1475 1257.5 1375.5 c 128,-1,24
 1440 1276 1440 1276 1545.5 1103 c 128,-1,25
 1651 930 1651 930 1651 721 c 0,26,27
 1651 514 1651 514 1545.5 341 c 128,-1,28
 1440 168 1440 168 1257.5 68.5 c 128,-1,29
 1075 -31 1075 -31 856 -31 c 256,30,15
 637 -31 637 -31 454.5 68.5 c 128,-1,16
1035.5 114 m 128,-1,32
 1110 197 1110 197 1150 352.5 c 128,-1,33
 1190 508 1190 508 1190 721 c 0,34,35
 1190 936 1190 936 1150 1091.5 c 128,-1,36
 1110 1247 1110 1247 1035.5 1330 c 128,-1,37
 961 1413 961 1413 856 1413 c 256,38,39
 752 1413 752 1413 677 1330 c 128,-1,40
 602 1247 602 1247 562 1091.5 c 128,-1,41
 522 936 522 936 522 721 c 0,42,43
 522 508 522 508 562 352.5 c 128,-1,44
 602 197 602 197 677 114 c 128,-1,45
 752 31 752 31 856 31 c 256,46,31
 961 31 961 31 1035.5 114 c 128,-1,32
EndSplineSet
Validated: 5
Substitution2: "'c2sc' Capitals to Small Capitals in Latin lookup 24 subtable" q.sc
Substitution2: "'aalt' Access All Alternates in Latin lookup 0 subtable" q.sc
EndChar

StartChar: R
Encoding: 82 82 19
Width: 1632
GlyphClass: 2
Flags: W
AnchorPoint: "Anchor-4" 723 1444 basechar 0
AnchorPoint: "Anchor-3" 866 0 basechar 0
LayerCount: 2
Fore
SplineSet
225 0 m 1,0,-1
 41 0 l 1,1,-1
 41 41 l 1,2,3
 107 41 107 41 136.5 57.5 c 128,-1,4
 166 74 166 74 175 110.5 c 128,-1,5
 184 147 184 147 184 225 c 2,6,-1
 184 1219 l 2,7,8
 184 1297 184 1297 175 1333.5 c 128,-1,9
 166 1370 166 1370 136 1386.5 c 128,-1,10
 106 1403 106 1403 41 1403 c 1,11,-1
 41 1444 l 1,12,-1
 225 1444 l 1,13,-1
 821 1444 l 2,14,15
 995 1444 995 1444 1117 1407 c 128,-1,16
 1239 1370 1239 1370 1302.5 1298.5 c 128,-1,17
 1366 1227 1366 1227 1366 1124 c 0,18,19
 1366 1042 1366 1042 1314 972.5 c 128,-1,20
 1262 903 1262 903 1168.5 857 c 128,-1,21
 1075 811 1075 811 956 801 c 1,22,-1
 705 729 l 1,23,-1
 602 729 l 1,24,-1
 602 780 l 1,25,-1
 643 780 l 2,26,27
 776 780 776 780 856 870.5 c 128,-1,28
 936 961 936 961 936 1110 c 0,29,30
 936 1241 936 1241 867.5 1317 c 128,-1,31
 799 1393 799 1393 680 1393 c 2,32,-1
 522 1393 l 1,33,-1
 614 1423 l 1,34,-1
 614 225 l 2,35,36
 614 147 614 147 623.5 110.5 c 128,-1,37
 633 74 633 74 662.5 57.5 c 128,-1,38
 692 41 692 41 758 41 c 1,39,-1
 758 0 l 1,40,-1
 573 0 l 1,41,-1
 225 0 l 1,0,-1
1009.5 68 m 128,-1,43
 975 113 975 113 954 152 c 2,44,-1
 637 743 l 1,45,-1
 1020 840 l 1,46,-1
 1456 197 l 2,47,48
 1519 103 1519 103 1550 72 c 128,-1,49
 1581 41 1581 41 1612 41 c 1,50,-1
 1612 0 l 1,51,-1
 1071 0 l 1,52,42
 1044 23 1044 23 1009.5 68 c 128,-1,43
EndSplineSet
Validated: 5
Substitution2: "'c2sc' Capitals to Small Capitals in Latin lookup 24 subtable" r.sc
Substitution2: "'aalt' Access All Alternates in Latin lookup 0 subtable" r.sc
EndChar

StartChar: S
Encoding: 83 83 20
Width: 1253
GlyphClass: 2
Flags: W
AnchorPoint: "Anchor-4" 711 1444 basechar 0
AnchorPoint: "Anchor-3" 604 0 basechar 0
LayerCount: 2
Fore
SplineSet
321.5 6 m 128,-1,1
 203 43 203 43 135 88 c 1,2,-1
 61 520 l 1,3,-1
 102 520 l 1,4,5
 202 293 202 293 334.5 163 c 128,-1,6
 467 33 467 33 614 33 c 0,7,8
 684 33 684 33 744.5 63.5 c 128,-1,9
 805 94 805 94 839.5 145.5 c 128,-1,10
 874 197 874 197 874 256 c 0,11,12
 874 340 874 340 827 389 c 128,-1,13
 780 438 780 438 668 492 c 2,14,-1
 436 604 l 2,15,16
 280 680 280 680 210.5 764 c 128,-1,17
 141 848 141 848 141 985 c 256,18,19
 141 1122 141 1122 218 1234 c 128,-1,20
 295 1346 295 1346 434 1410.5 c 128,-1,21
 573 1475 573 1475 750 1475 c 0,22,23
 854 1475 854 1475 962.5 1444 c 128,-1,24
 1071 1413 1071 1413 1145 1368 c 1,25,-1
 1145 1014 l 1,26,-1
 1104 1014 l 1,27,28
 1075 1192 1075 1192 961.5 1302.5 c 128,-1,29
 848 1413 848 1413 690 1413 c 0,30,31
 586 1413 586 1413 515 1355.5 c 128,-1,32
 444 1298 444 1298 444 1214 c 0,33,34
 444 1146 444 1146 490.5 1101.5 c 128,-1,35
 537 1057 537 1057 657 997 c 2,36,-1
 903 877 l 2,37,38
 1055 803 1055 803 1123.5 720 c 128,-1,39
 1192 637 1192 637 1192 502 c 0,40,41
 1192 359 1192 359 1106 236 c 128,-1,42
 1020 113 1020 113 875.5 41 c 128,-1,43
 731 -31 731 -31 567 -31 c 0,44,0
 440 -31 440 -31 321.5 6 c 128,-1,1
EndSplineSet
Validated: 1
Substitution2: "'c2sc' Capitals to Small Capitals in Latin lookup 24 subtable" s.sc
Substitution2: "'aalt' Access All Alternates in Latin lookup 0 subtable" s.sc
EndChar

StartChar: T
Encoding: 84 84 21
Width: 1429
GlyphClass: 2
Flags: W
AnchorPoint: "Anchor-4" 715 1444 basechar 0
AnchorPoint: "Anchor-3" 715 0 basechar 0
LayerCount: 2
Fore
SplineSet
80 1444 m 1,0,-1
 1350 1444 l 1,1,-1
 1389 1042 l 1,2,-1
 1348 1042 l 1,3,4
 1321 1157 1321 1157 1274 1233 c 128,-1,5
 1227 1309 1227 1309 1164.5 1345.5 c 128,-1,6
 1102 1382 1102 1382 1024 1382 c 2,7,-1
 406 1382 l 2,8,9
 328 1382 328 1382 265.5 1345.5 c 128,-1,10
 203 1309 203 1309 156 1233 c 128,-1,11
 109 1157 109 1157 82 1042 c 1,12,-1
 41 1042 l 1,13,-1
 80 1444 l 1,0,-1
549 0 m 1,14,-1
 328 0 l 1,15,-1
 328 41 l 1,16,17
 406 41 406 41 441.5 57.5 c 128,-1,18
 477 74 477 74 488.5 110.5 c 128,-1,19
 500 147 500 147 500 225 c 2,20,-1
 500 1403 l 1,21,-1
 930 1403 l 1,22,-1
 930 225 l 2,23,24
 930 147 930 147 941 110.5 c 128,-1,25
 952 74 952 74 988 57.5 c 128,-1,26
 1024 41 1024 41 1102 41 c 1,27,-1
 1102 0 l 1,28,-1
 881 0 l 1,29,-1
 549 0 l 1,14,-1
EndSplineSet
Validated: 5
Substitution2: "'c2sc' Capitals to Small Capitals in Latin lookup 24 subtable" t.sc
Substitution2: "'aalt' Access All Alternates in Latin lookup 0 subtable" t.sc
EndChar

StartChar: U
Encoding: 85 85 22
Width: 1538
GlyphClass: 2
Flags: W
AnchorPoint: "Anchor-5" 944 0 basechar 0
AnchorPoint: "Anchor-4" 928 1444 basechar 0
AnchorPoint: "Anchor-3" 770 0 basechar 0
LayerCount: 2
Fore
SplineSet
442.5 35.5 m 128,-1,1
 305 102 305 102 232.5 223 c 128,-1,2
 160 344 160 344 160 506 c 2,3,-1
 160 1219 l 2,4,5
 160 1297 160 1297 151.5 1333.5 c 128,-1,6
 143 1370 143 1370 116.5 1386.5 c 128,-1,7
 90 1403 90 1403 31 1403 c 1,8,-1
 31 1444 l 1,9,-1
 197 1444 l 1,10,-1
 551 1444 l 1,11,-1
 772 1444 l 1,12,-1
 772 1403 l 1,13,14
 694 1403 694 1403 658.5 1386.5 c 128,-1,15
 623 1370 623 1370 611.5 1333 c 128,-1,16
 600 1296 600 1296 600 1219 c 2,17,-1
 600 543 l 2,18,19
 600 334 600 334 688 225.5 c 128,-1,20
 776 117 776 117 948 117 c 0,21,22
 1122 117 1122 117 1212.5 243 c 128,-1,23
 1303 369 1303 369 1303 604 c 2,24,-1
 1303 1219 l 2,25,26
 1303 1297 1303 1297 1290.5 1333.5 c 128,-1,27
 1278 1370 1278 1370 1239 1386.5 c 128,-1,28
 1200 1403 1200 1403 1116 1403 c 1,29,-1
 1116 1444 l 1,30,-1
 1356 1444 l 1,31,-1
 1341 1444 l 1,32,-1
 1507 1444 l 1,33,-1
 1507 1403 l 1,34,35
 1448 1403 1448 1403 1421.5 1386.5 c 128,-1,36
 1395 1370 1395 1370 1386.5 1333 c 128,-1,37
 1378 1296 1378 1296 1378 1219 c 2,38,-1
 1378 588 l 2,39,40
 1378 393 1378 393 1306.5 254 c 128,-1,41
 1235 115 1235 115 1098 42 c 128,-1,42
 961 -31 961 -31 770 -31 c 256,43,0
 580 -31 580 -31 442.5 35.5 c 128,-1,1
EndSplineSet
Validated: 1
Substitution2: "'c2sc' Capitals to Small Capitals in Latin lookup 24 subtable" u.sc
Substitution2: "'aalt' Access All Alternates in Latin lookup 0 subtable" u.sc
EndChar

StartChar: V
Encoding: 86 86 23
Width: 1425
GlyphClass: 2
Flags: W
AnchorPoint: "Anchor-4" 764 1444 basechar 0
AnchorPoint: "Anchor-3" 764 0 basechar 0
LayerCount: 2
Fore
SplineSet
116.5 1340.5 m 128,-1,1
 98 1374 98 1374 73.5 1388.5 c 128,-1,2
 49 1403 49 1403 10 1403 c 1,3,-1
 10 1444 l 1,4,-1
 745 1444 l 1,5,-1
 745 1403 l 1,6,7
 667 1403 667 1403 634.5 1388.5 c 128,-1,8
 602 1374 602 1374 602 1337 c 0,9,10
 602 1306 602 1306 633 1231 c 2,11,-1
 930 516 l 1,12,-1
 883 412 l 1,13,-1
 1171 1227 l 2,14,15
 1196 1301 1196 1301 1196 1329 c 0,16,17
 1196 1370 1196 1370 1163 1386.5 c 128,-1,18
 1130 1403 1130 1403 1051 1403 c 1,19,-1
 1051 1444 l 1,20,-1
 1415 1444 l 1,21,-1
 1415 1403 l 1,22,23
 1376 1403 1376 1403 1353.5 1387.5 c 128,-1,24
 1331 1372 1331 1372 1313.5 1338.5 c 128,-1,25
 1296 1305 1296 1305 1266 1229 c 2,26,-1
 766 -31 l 1,27,-1
 725 -31 l 1,28,-1
 168 1233 l 2,29,0
 135 1307 135 1307 116.5 1340.5 c 128,-1,1
EndSplineSet
Validated: 5
Substitution2: "'c2sc' Capitals to Small Capitals in Latin lookup 24 subtable" v.sc
Substitution2: "'aalt' Access All Alternates in Latin lookup 0 subtable" v.sc
EndChar

StartChar: W
Encoding: 87 87 24
Width: 2045
GlyphClass: 2
Flags: W
AnchorPoint: "Anchor-4" 1212 1444 basechar 0
AnchorPoint: "Anchor-3" 1024 0 basechar 0
LayerCount: 2
Fore
SplineSet
110.5 1338.5 m 128,-1,1
 94 1372 94 1372 71.5 1387.5 c 128,-1,2
 49 1403 49 1403 10 1403 c 1,3,-1
 10 1444 l 1,4,-1
 756 1444 l 1,5,-1
 756 1403 l 1,6,7
 666 1403 666 1403 629 1385.5 c 128,-1,8
 592 1368 592 1368 592 1325 c 0,9,10
 592 1290 592 1290 614 1227 c 2,11,-1
 852 526 l 1,12,-1
 758 393 l 1,13,-1
 1192 1464 l 1,14,-1
 1231 1464 l 1,15,-1
 1591 539 l 1,16,-1
 1503 350 l 1,17,-1
 1780 1227 l 2,18,19
 1800 1295 1800 1295 1800 1327 c 0,20,21
 1800 1370 1800 1370 1764.5 1386.5 c 128,-1,22
 1729 1403 1729 1403 1636 1403 c 1,23,-1
 1636 1444 l 1,24,-1
 2036 1444 l 1,25,-1
 2036 1403 l 1,26,27
 1997 1403 1997 1403 1974.5 1387.5 c 128,-1,28
 1952 1372 1952 1372 1933.5 1337.5 c 128,-1,29
 1915 1303 1915 1303 1886 1229 c 2,30,-1
 1415 -20 l 1,31,-1
 1374 -20 l 1,32,-1
 1006 901 l 1,33,-1
 1130 1079 l 1,34,-1
 653 -20 l 1,35,-1
 612 -20 l 1,36,-1
 156 1229 l 2,37,0
 127 1305 127 1305 110.5 1338.5 c 128,-1,1
EndSplineSet
Validated: 5
Substitution2: "'c2sc' Capitals to Small Capitals in Latin lookup 24 subtable" w.sc
Substitution2: "'aalt' Access All Alternates in Latin lookup 0 subtable" w.sc
EndChar

StartChar: X
Encoding: 88 88 25
Width: 1574
GlyphClass: 2
Flags: W
AnchorPoint: "Anchor-4" 795 1444 basechar 0
AnchorPoint: "Anchor-3" 795 0 basechar 0
LayerCount: 2
Fore
SplineSet
890 54.5 m 128,-1,1
 922 68 922 68 922 102 c 0,2,3
 922 120 922 120 911.5 143 c 128,-1,4
 901 166 901 166 879 205 c 2,5,-1
 614 659 l 1,6,-1
 256 1241 l 2,7,8
 213 1311 213 1311 189.5 1342.5 c 128,-1,9
 166 1374 166 1374 141.5 1388.5 c 128,-1,10
 117 1403 117 1403 80 1403 c 1,11,-1
 80 1444 l 1,12,-1
 829 1444 l 1,13,-1
 829 1403 l 1,14,15
 757 1403 757 1403 727.5 1388.5 c 128,-1,16
 698 1374 698 1374 698 1337 c 0,17,18
 698 1317 698 1317 706.5 1295.5 c 128,-1,19
 715 1274 715 1274 735 1239 c 2,20,-1
 954 860 l 1,21,-1
 1360 203 l 2,22,23
 1403 133 1403 133 1426.5 101.5 c 128,-1,24
 1450 70 1450 70 1476.5 55.5 c 128,-1,25
 1503 41 1503 41 1544 41 c 1,26,-1
 1544 0 l 1,27,-1
 786 0 l 1,28,-1
 786 41 l 1,29,0
 858 41 858 41 890 54.5 c 128,-1,1
102.5 54.5 m 128,-1,31
 131 68 131 68 156.5 96.5 c 128,-1,32
 182 125 182 125 233 193 c 2,33,-1
 637 725 l 1,34,-1
 711 682 l 1,35,-1
 645 641 l 1,36,-1
 344 199 l 2,37,38
 317 160 317 160 307 138.5 c 128,-1,39
 297 117 297 117 297 100 c 0,40,41
 297 67 297 67 326.5 54 c 128,-1,42
 356 41 356 41 426 41 c 1,43,-1
 426 0 l 1,44,-1
 31 0 l 1,45,-1
 31 41 l 1,46,30
 74 41 74 41 102.5 54.5 c 128,-1,31
889 895 m 1,47,-1
 934 872 l 1,48,-1
 1192 1247 l 2,49,50
 1219 1288 1219 1288 1229 1308.5 c 128,-1,51
 1239 1329 1239 1329 1239 1346 c 0,52,53
 1239 1381 1239 1381 1210.5 1392 c 128,-1,54
 1182 1403 1182 1403 1110 1403 c 1,55,-1
 1110 1444 l 1,56,-1
 1495 1444 l 1,57,-1
 1495 1403 l 1,58,59
 1460 1403 1460 1403 1434.5 1388.5 c 128,-1,60
 1409 1374 1409 1374 1382.5 1345.5 c 128,-1,61
 1356 1317 1356 1317 1303 1251 c 2,62,-1
 956 811 l 1,63,-1
 889 895 l 1,47,-1
EndSplineSet
Validated: 5
Substitution2: "'c2sc' Capitals to Small Capitals in Latin lookup 24 subtable" x.sc
Substitution2: "'aalt' Access All Alternates in Latin lookup 0 subtable" x.sc
EndChar

StartChar: Y
Encoding: 89 89 26
Width: 1439
GlyphClass: 2
Flags: W
AnchorPoint: "Anchor-4" 887 1444 basechar 0
AnchorPoint: "Anchor-3" 715 0 basechar 0
LayerCount: 2
Fore
SplineSet
117.5 1338.5 m 128,-1,1
 92 1372 92 1372 67.5 1387.5 c 128,-1,2
 43 1403 43 1403 10 1403 c 1,3,-1
 10 1444 l 1,4,-1
 752 1444 l 1,5,-1
 752 1403 l 1,6,7
 678 1403 678 1403 645 1388.5 c 128,-1,8
 612 1374 612 1374 612 1341 c 0,9,10
 612 1312 612 1312 649 1235 c 2,11,-1
 911 702 l 1,12,-1
 881 692 l 1,13,-1
 1157 1235 l 2,14,15
 1175 1272 1175 1272 1185.5 1298.5 c 128,-1,16
 1196 1325 1196 1325 1196 1343 c 0,17,18
 1196 1376 1196 1376 1163 1389.5 c 128,-1,19
 1130 1403 1130 1403 1057 1403 c 1,20,-1
 1057 1444 l 1,21,-1
 1430 1444 l 1,22,-1
 1430 1403 l 1,23,24
 1393 1403 1393 1403 1368 1388.5 c 128,-1,25
 1343 1374 1343 1374 1320.5 1342.5 c 128,-1,26
 1298 1311 1298 1311 1260 1239 c 2,27,-1
 856 522 l 1,28,-1
 573 522 l 1,29,-1
 178 1239 l 2,30,0
 143 1305 143 1305 117.5 1338.5 c 128,-1,1
553 0 m 1,31,-1
 332 0 l 1,32,-1
 332 41 l 1,33,34
 410 41 410 41 445.5 57.5 c 128,-1,35
 481 74 481 74 492.5 110.5 c 128,-1,36
 504 147 504 147 504 225 c 2,37,-1
 504 743 l 1,38,-1
 934 711 l 1,39,-1
 934 225 l 2,40,41
 934 147 934 147 945 110.5 c 128,-1,42
 956 74 956 74 992 57.5 c 128,-1,43
 1028 41 1028 41 1106 41 c 1,44,-1
 1106 0 l 1,45,-1
 885 0 l 1,46,-1
 553 0 l 1,31,-1
EndSplineSet
Validated: 5
Substitution2: "'c2sc' Capitals to Small Capitals in Latin lookup 24 subtable" y.sc
Substitution2: "'aalt' Access All Alternates in Latin lookup 0 subtable" y.sc
EndChar

StartChar: Z
Encoding: 90 90 27
Width: 1400
GlyphClass: 2
Flags: W
AnchorPoint: "Anchor-4" 707 1444 basechar 0
AnchorPoint: "Anchor-3" 600 0 basechar 0
LayerCount: 2
Fore
SplineSet
41 20 m 1,0,-1
 827 1425 l 1,1,-1
 889 1382 l 1,2,-1
 573 1382 l 2,3,4
 442 1382 442 1382 363.5 1354.5 c 128,-1,5
 285 1327 285 1327 231.5 1255.5 c 128,-1,6
 178 1184 178 1184 137 1044 c 1,7,-1
 96 1044 l 1,8,-1
 135 1444 l 1,9,-1
 1296 1444 l 1,10,-1
 1296 1423 l 1,11,-1
 510 18 l 1,12,-1
 449 61 l 1,13,-1
 784 61 l 2,14,15
 927 61 927 61 1020.5 105.5 c 128,-1,16
 1114 150 1114 150 1178.5 237 c 128,-1,17
 1243 324 1243 324 1319 481 c 1,18,-1
 1360 481 l 1,19,-1
 1231 0 l 1,20,-1
 41 0 l 1,21,-1
 41 20 l 1,0,-1
EndSplineSet
Validated: 5
Substitution2: "'c2sc' Capitals to Small Capitals in Latin lookup 24 subtable" z.sc
Substitution2: "'aalt' Access All Alternates in Latin lookup 0 subtable" z.sc
EndChar

StartChar: AE
Encoding: 198 198 33
Width: 2113
GlyphClass: 2
Flags: W
AnchorPoint: "Anchor-4" 1309 1444 basechar 0
LayerCount: 2
Fore
SplineSet
10 0 m 1,0,-1
 10 41 l 1,1,2
 65 41 65 41 97 52 c 128,-1,3
 129 63 129 63 150.5 89 c 128,-1,4
 172 115 172 115 203 168 c 0,5,6
 213 186 213 186 223 205 c 2,7,-1
 793 1239 l 2,8,9
 830 1305 830 1305 828.5 1339.5 c 128,-1,10
 827 1374 827 1374 778 1388.5 c 128,-1,11
 729 1403 729 1403 612 1403 c 1,12,-1
 612 1444 l 1,13,-1
 928 1444 l 1,14,-1
 997 1389 l 1,15,-1
 938 1389 l 1,16,-1
 319 207 l 2,17,18
 284 139 284 139 284.5 105.5 c 128,-1,19
 285 72 285 72 328 56.5 c 128,-1,20
 371 41 371 41 475 41 c 1,21,-1
 475 0 l 1,22,-1
 10 0 l 1,0,-1
504 621 m 1,23,-1
 1001 621 l 1,24,-1
 1001 559 l 1,25,-1
 483 559 l 1,26,-1
 504 621 l 1,23,-1
784 0 m 1,27,-1
 784 41 l 1,28,29
 850 41 850 41 879.5 57.5 c 128,-1,30
 909 74 909 74 918.5 110.5 c 128,-1,31
 928 147 928 147 928 225 c 2,32,-1
 928 1444 l 1,33,-1
 1919 1444 l 1,34,-1
 1956 1042 l 1,35,-1
 1915 1042 l 1,36,37
 1884 1171 1884 1171 1826.5 1247 c 128,-1,38
 1769 1323 1769 1323 1694.5 1352.5 c 128,-1,39
 1620 1382 1620 1382 1524 1382 c 2,40,-1
 1235 1382 l 1,41,-1
 1358 1413 l 1,42,-1
 1358 225 l 2,43,44
 1358 153 1358 153 1375.5 117.5 c 128,-1,45
 1393 82 1393 82 1426.5 71.5 c 128,-1,46
 1460 61 1460 61 1522 61 c 2,47,-1
 1575 61 l 2,48,49
 1661 61 1661 61 1743 106.5 c 128,-1,50
 1825 152 1825 152 1895.5 230.5 c 128,-1,51
 1966 309 1966 309 2021 410 c 1,52,-1
 2062 410 l 1,53,-1
 1935 0 l 1,54,-1
 784 0 l 1,27,-1
1722.5 630 m 128,-1,56
 1698 682 1698 682 1645.5 710.5 c 128,-1,57
 1593 739 1593 739 1511 739 c 2,58,-1
 1255 739 l 1,59,-1
 1255 801 l 1,60,-1
 1511 801 l 2,61,62
 1593 801 1593 801 1645.5 829.5 c 128,-1,63
 1698 858 1698 858 1722.5 910.5 c 128,-1,64
 1747 963 1747 963 1747 1032 c 1,65,-1
 1788 1032 l 1,66,-1
 1788 508 l 1,67,-1
 1747 508 l 1,68,55
 1747 578 1747 578 1722.5 630 c 128,-1,56
EndSplineSet
Validated: 1048613
Substitution2: "'c2sc' Capitals to Small Capitals in Latin lookup 24 subtable" ae.sc
Substitution2: "'aalt' Access All Alternates in Latin lookup 0 subtable" ae.sc
EndChar

StartChar: Dcroat
Encoding: 272 272 46
Width: 1638
GlyphClass: 2
Flags: W
AnchorPoint: "Anchor-4" 762 1444 basechar 0
AnchorPoint: "Anchor-3" 582 0 basechar 0
LayerCount: 2
Fore
SplineSet
225 0 m 1,0,-1
 41 0 l 1,1,-1
 41 41 l 1,2,3
 107 41 107 41 136.5 57.5 c 128,-1,4
 166 74 166 74 175 110.5 c 128,-1,5
 184 147 184 147 184 225 c 2,6,-1
 184 1219 l 2,7,8
 184 1297 184 1297 175 1333.5 c 128,-1,9
 166 1370 166 1370 136 1386.5 c 128,-1,10
 106 1403 106 1403 41 1403 c 1,11,-1
 41 1444 l 1,12,-1
 225 1444 l 1,13,-1
 764 1444 l 2,14,15
 1002 1444 1002 1444 1186 1358 c 128,-1,16
 1370 1272 1370 1272 1473.5 1112 c 128,-1,17
 1577 952 1577 952 1577 737 c 0,18,19
 1577 526 1577 526 1460 357 c 128,-1,20
 1343 188 1343 188 1156 94 c 128,-1,21
 969 0 969 0 764 0 c 2,22,-1
 225 0 l 1,0,-1
962.5 148.5 m 128,-1,24
 1044 236 1044 236 1090.5 390.5 c 128,-1,25
 1137 545 1137 545 1137 737 c 256,26,27
 1137 930 1137 930 1084.5 1076.5 c 128,-1,28
 1032 1223 1032 1223 938 1302.5 c 128,-1,29
 844 1382 844 1382 721 1382 c 2,30,-1
 524 1382 l 1,31,-1
 616 1413 l 1,32,-1
 616 246 l 2,33,34
 616 152 616 152 655 106.5 c 128,-1,35
 694 61 694 61 774 61 c 2,36,-1
 776 61 l 2,37,23
 881 61 881 61 962.5 148.5 c 128,-1,24
8 778 m 1,38,-1
 887 778 l 1,39,-1
 887 717 l 1,40,-1
 8 717 l 1,41,-1
 8 778 l 1,38,-1
EndSplineSet
Validated: 5
Substitution2: "'c2sc' Capitals to Small Capitals in Latin lookup 24 subtable" dcroat.sc
Substitution2: "'aalt' Access All Alternates in Latin lookup 0 subtable" dcroat.sc
EndChar

StartChar: Eth
Encoding: 208 208 58
Width: 1638
GlyphClass: 2
Flags: W
AnchorPoint: "Anchor-4" 762 1444 basechar 0
AnchorPoint: "Anchor-3" 582 0 basechar 0
LayerCount: 2
Fore
SplineSet
225 0 m 1,0,-1
 41 0 l 1,1,-1
 41 41 l 1,2,3
 107 41 107 41 136.5 57.5 c 128,-1,4
 166 74 166 74 175 110.5 c 128,-1,5
 184 147 184 147 184 225 c 2,6,-1
 184 1219 l 2,7,8
 184 1297 184 1297 175 1333.5 c 128,-1,9
 166 1370 166 1370 136 1386.5 c 128,-1,10
 106 1403 106 1403 41 1403 c 1,11,-1
 41 1444 l 1,12,-1
 225 1444 l 1,13,-1
 764 1444 l 2,14,15
 1002 1444 1002 1444 1186 1358 c 128,-1,16
 1370 1272 1370 1272 1473.5 1112 c 128,-1,17
 1577 952 1577 952 1577 737 c 0,18,19
 1577 526 1577 526 1460 357 c 128,-1,20
 1343 188 1343 188 1156 94 c 128,-1,21
 969 0 969 0 764 0 c 2,22,-1
 225 0 l 1,0,-1
962.5 148.5 m 128,-1,24
 1044 236 1044 236 1090.5 390.5 c 128,-1,25
 1137 545 1137 545 1137 737 c 256,26,27
 1137 930 1137 930 1084.5 1076.5 c 128,-1,28
 1032 1223 1032 1223 938 1302.5 c 128,-1,29
 844 1382 844 1382 721 1382 c 2,30,-1
 524 1382 l 1,31,-1
 616 1413 l 1,32,-1
 616 246 l 2,33,34
 616 152 616 152 655 106.5 c 128,-1,35
 694 61 694 61 774 61 c 2,36,-1
 776 61 l 2,37,23
 881 61 881 61 962.5 148.5 c 128,-1,24
41 778 m 1,38,-1
 854 778 l 1,39,-1
 854 717 l 1,40,-1
 41 717 l 1,41,-1
 41 778 l 1,38,-1
EndSplineSet
Validated: 5
Substitution2: "'c2sc' Capitals to Small Capitals in Latin lookup 24 subtable" eth.sc
Substitution2: "'aalt' Access All Alternates in Latin lookup 0 subtable" eth.sc
EndChar

StartChar: Hbar
Encoding: 294 294 64
Width: 1736
GlyphClass: 2
Flags: W
AnchorPoint: "Anchor-5" 1552 0 basechar 0
AnchorPoint: "Anchor-4" 868 1444 basechar 0
AnchorPoint: "Anchor-3" 868 0 basechar 0
LayerCount: 2
Fore
SplineSet
1163 0 m 1,0,-1
 979 0 l 1,1,-1
 979 41 l 1,2,3
 1045 41 1045 41 1074.5 57.5 c 128,-1,4
 1104 74 1104 74 1113 110.5 c 128,-1,5
 1122 147 1122 147 1122 225 c 2,6,-1
 1122 1219 l 2,7,8
 1122 1297 1122 1297 1113 1333.5 c 128,-1,9
 1104 1370 1104 1370 1074 1386.5 c 128,-1,10
 1044 1403 1044 1403 979 1403 c 1,11,-1
 979 1444 l 1,12,-1
 1163 1444 l 1,13,-1
 1511 1444 l 1,14,-1
 1696 1444 l 1,15,-1
 1696 1403 l 1,16,17
 1630 1403 1630 1403 1600.5 1386.5 c 128,-1,18
 1571 1370 1571 1370 1561.5 1333 c 128,-1,19
 1552 1296 1552 1296 1552 1219 c 2,20,-1
 1552 225 l 2,21,22
 1552 147 1552 147 1561.5 110.5 c 128,-1,23
 1571 74 1571 74 1600.5 57.5 c 128,-1,24
 1630 41 1630 41 1696 41 c 1,25,-1
 1696 0 l 1,26,-1
 1511 0 l 1,27,-1
 1163 0 l 1,0,-1
225 0 m 1,28,-1
 41 0 l 1,29,-1
 41 41 l 1,30,31
 107 41 107 41 136.5 57.5 c 128,-1,32
 166 74 166 74 175 110.5 c 128,-1,33
 184 147 184 147 184 225 c 2,34,-1
 184 1219 l 2,35,36
 184 1297 184 1297 175 1333.5 c 128,-1,37
 166 1370 166 1370 136 1386.5 c 128,-1,38
 106 1403 106 1403 41 1403 c 1,39,-1
 41 1444 l 1,40,-1
 225 1444 l 1,41,-1
 573 1444 l 1,42,-1
 758 1444 l 1,43,-1
 758 1403 l 1,44,45
 692 1403 692 1403 662.5 1386.5 c 128,-1,46
 633 1370 633 1370 623.5 1333 c 128,-1,47
 614 1296 614 1296 614 1219 c 2,48,-1
 614 225 l 2,49,50
 614 147 614 147 623.5 110.5 c 128,-1,51
 633 74 633 74 662.5 57.5 c 128,-1,52
 692 41 692 41 758 41 c 1,53,-1
 758 0 l 1,54,-1
 573 0 l 1,55,-1
 225 0 l 1,28,-1
522 821 m 1,56,-1
 1243 821 l 1,57,-1
 1243 760 l 1,58,-1
 522 760 l 1,59,-1
 522 821 l 1,56,-1
41 1106 m 1,60,-1
 1696 1106 l 1,61,-1
 1696 1044 l 1,62,-1
 41 1044 l 1,63,-1
 41 1106 l 1,60,-1
EndSplineSet
Validated: 5
Substitution2: "'c2sc' Capitals to Small Capitals in Latin lookup 24 subtable" hbar.sc
Substitution2: "'aalt' Access All Alternates in Latin lookup 0 subtable" hbar.sc
EndChar

StartChar: Lcaron
Encoding: 317 317 81
Width: 1314
GlyphClass: 2
Flags: W
AnchorPoint: "Anchor-4" 399 1444 basechar 0
AnchorPoint: "Anchor-3" 647 0 basechar 0
LayerCount: 2
Fore
SplineSet
225 0 m 1,0,-1
 41 0 l 1,1,-1
 41 41 l 1,2,3
 107 41 107 41 136.5 57.5 c 128,-1,4
 166 74 166 74 175 110.5 c 128,-1,5
 184 147 184 147 184 225 c 2,6,-1
 184 1219 l 2,7,8
 184 1297 184 1297 175 1333.5 c 128,-1,9
 166 1370 166 1370 136 1386.5 c 128,-1,10
 106 1403 106 1403 41 1403 c 1,11,-1
 41 1444 l 1,12,-1
 225 1444 l 1,13,-1
 573 1444 l 1,14,-1
 758 1444 l 1,15,-1
 758 1403 l 1,16,17
 692 1403 692 1403 662.5 1386.5 c 128,-1,18
 633 1370 633 1370 623.5 1333 c 128,-1,19
 614 1296 614 1296 614 1219 c 2,20,-1
 614 0 l 1,21,-1
 225 0 l 1,0,-1
629.5 122 m 128,-1,23
 645 86 645 86 679 73.5 c 128,-1,24
 713 61 713 61 776 61 c 2,25,-1
 809 61 l 2,26,27
 909 61 909 61 995 120.5 c 128,-1,28
 1081 180 1081 180 1144.5 266 c 128,-1,29
 1208 352 1208 352 1253 451 c 1,30,-1
 1294 451 l 1,31,-1
 1147 0 l 1,32,-1
 512 0 l 1,33,-1
 614 225 l 1,34,22
 614 158 614 158 629.5 122 c 128,-1,23
896 1306.5 m 128,-1,36
 915 1378 915 1378 898 1433.5 c 128,-1,37
 881 1489 881 1489 827 1524 c 1,38,39
 847 1577 847 1577 886.5 1607.5 c 128,-1,40
 926 1638 926 1638 991 1638 c 0,41,42
 1065 1638 1065 1638 1108 1596 c 128,-1,43
 1151 1554 1151 1554 1151 1481 c 0,44,45
 1151 1405 1151 1405 1076 1317 c 128,-1,46
 1001 1229 1001 1229 860 1153 c 1,47,-1
 823 1153 l 1,48,35
 877 1235 877 1235 896 1306.5 c 128,-1,36
EndSplineSet
Validated: 37
Substitution2: "'c2sc' Capitals to Small Capitals in Latin lookup 24 subtable" lcaron.sc
Substitution2: "'aalt' Access All Alternates in Latin lookup 0 subtable" lcaron.sc
EndChar

StartChar: Ldot
Encoding: 319 319 83
Width: 1314
GlyphClass: 2
Flags: W
AnchorPoint: "Anchor-4" 399 1444 basechar 0
AnchorPoint: "Anchor-3" 647 0 basechar 0
LayerCount: 2
Fore
SplineSet
225 0 m 1,0,-1
 41 0 l 1,1,-1
 41 41 l 1,2,3
 107 41 107 41 136.5 57.5 c 128,-1,4
 166 74 166 74 175 110.5 c 128,-1,5
 184 147 184 147 184 225 c 2,6,-1
 184 1219 l 2,7,8
 184 1297 184 1297 175 1333.5 c 128,-1,9
 166 1370 166 1370 136 1386.5 c 128,-1,10
 106 1403 106 1403 41 1403 c 1,11,-1
 41 1444 l 1,12,-1
 225 1444 l 1,13,-1
 573 1444 l 1,14,-1
 758 1444 l 1,15,-1
 758 1403 l 1,16,17
 692 1403 692 1403 662.5 1386.5 c 128,-1,18
 633 1370 633 1370 623.5 1333 c 128,-1,19
 614 1296 614 1296 614 1219 c 2,20,-1
 614 0 l 1,21,-1
 225 0 l 1,0,-1
629.5 122 m 128,-1,23
 645 86 645 86 679 73.5 c 128,-1,24
 713 61 713 61 776 61 c 2,25,-1
 809 61 l 2,26,27
 909 61 909 61 995 120.5 c 128,-1,28
 1081 180 1081 180 1144.5 266 c 128,-1,29
 1208 352 1208 352 1253 451 c 1,30,-1
 1294 451 l 1,31,-1
 1147 0 l 1,32,-1
 512 0 l 1,33,-1
 614 225 l 1,34,22
 614 158 614 158 629.5 122 c 128,-1,23
943 683 m 128,-1,36
 895 731 895 731 895 801 c 256,37,38
 895 871 895 871 943 918 c 128,-1,39
 991 965 991 965 1063 965 c 0,40,41
 1131 965 1131 965 1178 917.5 c 128,-1,42
 1225 870 1225 870 1225 801 c 256,43,44
 1225 731 1225 731 1177.5 683 c 128,-1,45
 1130 635 1130 635 1063 635 c 0,46,35
 991 635 991 635 943 683 c 128,-1,36
EndSplineSet
Validated: 5
Ligature2: "Ligature Substitution lookup 33 subtable" L periodcentered
Substitution2: "'c2sc' Capitals to Small Capitals in Latin lookup 24 subtable" ldot.sc
Substitution2: "'aalt' Access All Alternates in Latin lookup 0 subtable" ldot.sc
EndChar

StartChar: Lslash
Encoding: 321 321 84
Width: 1314
GlyphClass: 2
Flags: W
AnchorPoint: "Anchor-4" 399 1444 basechar 0
AnchorPoint: "Anchor-3" 647 0 basechar 0
LayerCount: 2
Fore
SplineSet
225 0 m 1,0,-1
 41 0 l 1,1,-1
 41 41 l 1,2,3
 107 41 107 41 136.5 57.5 c 128,-1,4
 166 74 166 74 175 110.5 c 128,-1,5
 184 147 184 147 184 225 c 2,6,-1
 184 1219 l 2,7,8
 184 1297 184 1297 175 1333.5 c 128,-1,9
 166 1370 166 1370 136 1386.5 c 128,-1,10
 106 1403 106 1403 41 1403 c 1,11,-1
 41 1444 l 1,12,-1
 225 1444 l 1,13,-1
 573 1444 l 1,14,-1
 758 1444 l 1,15,-1
 758 1403 l 1,16,17
 692 1403 692 1403 662.5 1386.5 c 128,-1,18
 633 1370 633 1370 623.5 1333 c 128,-1,19
 614 1296 614 1296 614 1219 c 2,20,-1
 614 0 l 1,21,-1
 225 0 l 1,0,-1
629.5 122 m 128,-1,23
 645 86 645 86 679 73.5 c 128,-1,24
 713 61 713 61 776 61 c 2,25,-1
 809 61 l 2,26,27
 909 61 909 61 995 120.5 c 128,-1,28
 1081 180 1081 180 1144.5 266 c 128,-1,29
 1208 352 1208 352 1253 451 c 1,30,-1
 1294 451 l 1,31,-1
 1147 0 l 1,32,-1
 512 0 l 1,33,-1
 614 225 l 1,34,22
 614 158 614 158 629.5 122 c 128,-1,23
41 535 m 1,35,-1
 895 1006 l 1,36,-1
 895 936 l 1,37,-1
 41 465 l 1,38,-1
 41 535 l 1,35,-1
EndSplineSet
Validated: 5
Substitution2: "'c2sc' Capitals to Small Capitals in Latin lookup 24 subtable" lslash.sc
Substitution2: "'aalt' Access All Alternates in Latin lookup 0 subtable" lslash.sc
EndChar

StartChar: Eng
Encoding: 330 330 89
Width: 1595
GlyphClass: 2
Flags: W
AnchorPoint: "Anchor-4" 803 1444 basechar 0
AnchorPoint: "Anchor-3" 803 -379 basechar 0
LayerCount: 2
Fore
SplineSet
242 1241 m 1,0,-1
 242 1241 l 1,1,2
 162 1331 162 1331 121 1367 c 128,-1,3
 80 1403 80 1403 41 1403 c 1,4,-1
 41 1444 l 1,5,-1
 649 1444 l 1,6,-1
 1362 637 l 1,7,-1
 1327 637 l 1,8,-1
 1327 1219 l 2,9,10
 1327 1297 1327 1297 1312.5 1333.5 c 128,-1,11
 1298 1370 1298 1370 1254 1386.5 c 128,-1,12
 1210 1403 1210 1403 1112 1403 c 1,13,-1
 1112 1444 l 1,14,-1
 1389 1444 l 1,15,-1
 1354 1444 l 1,16,-1
 1575 1444 l 1,17,-1
 1575 1403 l 1,18,19
 1497 1403 1497 1403 1461 1386.5 c 128,-1,20
 1425 1370 1425 1370 1414 1333 c 128,-1,21
 1403 1296 1403 1296 1403 1219 c 2,22,-1
 1403 272 l 1,23,-1
 1272 72 l 1,24,-1
 242 1241 l 1,0,-1
1032 -194.5 m 128,-1,26
 1071 -94 1071 -94 1092.5 28 c 128,-1,27
 1114 150 1114 150 1114 287 c 1,28,-1
 1403 272 l 1,29,30
 1403 153 1403 153 1348.5 28.5 c 128,-1,31
 1294 -96 1294 -96 1198 -203.5 c 128,-1,32
 1102 -311 1102 -311 983 -379 c 1,33,-1
 942 -379 l 1,34,25
 993 -295 993 -295 1032 -194.5 c 128,-1,26
276 0 m 1,35,-1
 55 0 l 1,36,-1
 55 41 l 1,37,38
 133 41 133 41 169 57.5 c 128,-1,39
 205 74 205 74 216 110.5 c 128,-1,40
 227 147 227 147 227 225 c 2,41,-1
 227 1309 l 1,42,-1
 303 1184 l 1,43,-1
 303 225 l 2,44,45
 303 147 303 147 317.5 110.5 c 128,-1,46
 332 74 332 74 377 57.5 c 128,-1,47
 422 41 422 41 518 41 c 1,48,-1
 518 0 l 1,49,-1
 242 0 l 1,50,-1
 276 0 l 1,35,-1
EndSplineSet
Validated: 5
Substitution2: "'c2sc' Capitals to Small Capitals in Latin lookup 24 subtable" eng.sc
Substitution2: "'aalt' Access All Alternates in Latin lookup 0 subtable" eng.sc
EndChar

StartChar: uni019D
Encoding: 413 413 90
Width: 1587
GlyphClass: 2
Flags: W
AnchorPoint: "Anchor-4" 795 1444 basechar 0
AnchorPoint: "Anchor-3" 795 0 basechar 0
LayerCount: 2
Fore
SplineSet
233 1241 m 1,0,-1
 233 1241 l 1,1,2
 151 1333 151 1333 111.5 1368 c 128,-1,3
 72 1403 72 1403 33 1403 c 1,4,-1
 33 1444 l 1,5,-1
 641 1444 l 1,6,-1
 1354 637 l 1,7,-1
 1319 643 l 1,8,-1
 1319 1219 l 2,9,10
 1319 1297 1319 1297 1304.5 1333.5 c 128,-1,11
 1290 1370 1290 1370 1246 1386.5 c 128,-1,12
 1202 1403 1202 1403 1104 1403 c 1,13,-1
 1104 1444 l 1,14,-1
 1380 1444 l 1,15,-1
 1346 1444 l 1,16,-1
 1567 1444 l 1,17,-1
 1567 1403 l 1,18,19
 1489 1403 1489 1403 1453 1386.5 c 128,-1,20
 1417 1370 1417 1370 1406 1333 c 128,-1,21
 1395 1296 1395 1296 1395 1219 c 2,22,-1
 1395 -31 l 1,23,-1
 1354 -31 l 1,24,-1
 233 1241 l 1,0,-1
133 -166.5 m 128,-1,26
 176 -59 176 -59 197.5 56.5 c 128,-1,27
 219 172 219 172 219 303 c 2,28,-1
 219 1327 l 1,29,-1
 295 1194 l 1,30,-1
 295 246 l 2,31,32
 295 127 295 127 268.5 20.5 c 128,-1,33
 242 -86 242 -86 189.5 -183.5 c 128,-1,34
 137 -281 137 -281 57 -379 c 1,35,-1
 20 -379 l 1,36,25
 90 -274 90 -274 133 -166.5 c 128,-1,26
EndSplineSet
Validated: 5
Substitution2: "'c2sc' Capitals to Small Capitals in Latin lookup 24 subtable" uni0272.sc
Substitution2: "'aalt' Access All Alternates in Latin lookup 0 subtable" uni0272.sc
EndChar

StartChar: OE
Encoding: 338 338 96
Width: 2187
GlyphClass: 2
Flags: W
AnchorPoint: "Anchor-4" 1079 1444 basechar 0
AnchorPoint: "Anchor-3" 1079 0 basechar 0
LayerCount: 2
Fore
SplineSet
446.5 82 m 128,-1,1
 272 164 272 164 166.5 322.5 c 128,-1,2
 61 481 61 481 61 700 c 0,3,4
 61 921 61 921 162.5 1090.5 c 128,-1,5
 264 1260 264 1260 447.5 1352 c 128,-1,6
 631 1444 631 1444 868 1444 c 2,7,-1
 1001 1444 l 1,8,-1
 1094 1382 l 1,9,-1
 897 1382 l 2,10,11
 780 1382 780 1382 691 1302.5 c 128,-1,12
 602 1223 602 1223 552 1076.5 c 128,-1,13
 502 930 502 930 502 737 c 0,14,15
 502 538 502 538 540 385.5 c 128,-1,16
 578 233 578 233 654.5 147 c 128,-1,17
 731 61 731 61 842 61 c 1,18,-1
 842 61 l 1,19,20
 924 61 924 61 962.5 105.5 c 128,-1,21
 1001 150 1001 150 1001 246 c 2,22,-1
 1001 1444 l 1,23,-1
 1993 1444 l 1,24,-1
 2030 1042 l 1,25,-1
 1989 1042 l 1,26,27
 1958 1171 1958 1171 1900.5 1247 c 128,-1,28
 1843 1323 1843 1323 1768.5 1352.5 c 128,-1,29
 1694 1382 1694 1382 1597 1382 c 2,30,-1
 1309 1382 l 1,31,-1
 1432 1409 l 1,32,-1
 1432 225 l 2,33,34
 1432 153 1432 153 1449 117.5 c 128,-1,35
 1466 82 1466 82 1500 71.5 c 128,-1,36
 1534 61 1534 61 1595 61 c 2,37,-1
 1649 61 l 2,38,39
 1735 61 1735 61 1816.5 106.5 c 128,-1,40
 1898 152 1898 152 1969 230.5 c 128,-1,41
 2040 309 2040 309 2095 410 c 1,42,-1
 2136 410 l 1,43,-1
 2009 0 l 1,44,-1
 821 0 l 2,45,0
 621 0 621 0 446.5 82 c 128,-1,1
1796.5 630 m 128,-1,47
 1772 682 1772 682 1719.5 710.5 c 128,-1,48
 1667 739 1667 739 1585 739 c 2,49,-1
 1329 739 l 1,50,-1
 1329 801 l 1,51,-1
 1585 801 l 2,52,53
 1667 801 1667 801 1719.5 829.5 c 128,-1,54
 1772 858 1772 858 1796.5 910.5 c 128,-1,55
 1821 963 1821 963 1821 1032 c 1,56,-1
 1862 1032 l 1,57,-1
 1862 508 l 1,58,-1
 1821 508 l 1,59,46
 1821 578 1821 578 1796.5 630 c 128,-1,47
EndSplineSet
Validated: 5
Substitution2: "'c2sc' Capitals to Small Capitals in Latin lookup 24 subtable" oe.sc
Substitution2: "'aalt' Access All Alternates in Latin lookup 0 subtable" oe.sc
EndChar

StartChar: Oslash
Encoding: 216 216 100
Width: 1712
GlyphClass: 2
Flags: W
AnchorPoint: "Anchor-5" 1038 0 basechar 0
AnchorPoint: "Anchor-4" 856 1444 basechar 0
AnchorPoint: "Anchor-3" 856 0 basechar 0
LayerCount: 2
Fore
SplineSet
454.5 68.5 m 128,-1,1
 272 168 272 168 166.5 341 c 128,-1,2
 61 514 61 514 61 721 c 0,3,4
 61 930 61 930 166.5 1103 c 128,-1,5
 272 1276 272 1276 454.5 1375.5 c 128,-1,6
 637 1475 637 1475 856 1475 c 256,7,8
 1075 1475 1075 1475 1257.5 1375.5 c 128,-1,9
 1440 1276 1440 1276 1545.5 1103 c 128,-1,10
 1651 930 1651 930 1651 721 c 0,11,12
 1651 514 1651 514 1545.5 341 c 128,-1,13
 1440 168 1440 168 1257.5 68.5 c 128,-1,14
 1075 -31 1075 -31 856 -31 c 256,15,0
 637 -31 637 -31 454.5 68.5 c 128,-1,1
1035.5 114 m 128,-1,17
 1110 197 1110 197 1150 352.5 c 128,-1,18
 1190 508 1190 508 1190 721 c 0,19,20
 1190 936 1190 936 1150 1091.5 c 128,-1,21
 1110 1247 1110 1247 1035.5 1330 c 128,-1,22
 961 1413 961 1413 856 1413 c 256,23,24
 752 1413 752 1413 677 1330 c 128,-1,25
 602 1247 602 1247 562 1091.5 c 128,-1,26
 522 936 522 936 522 721 c 0,27,28
 522 508 522 508 562 352.5 c 128,-1,29
 602 197 602 197 677 114 c 128,-1,30
 752 31 752 31 856 31 c 256,31,16
 961 31 961 31 1035.5 114 c 128,-1,17
1430 1516 m 1,32,-1
 1513 1516 l 1,33,-1
 281 -72 l 1,34,-1
 197 -72 l 1,35,-1
 1430 1516 l 1,32,-1
EndSplineSet
Validated: 5
Substitution2: "'c2sc' Capitals to Small Capitals in Latin lookup 24 subtable" oslash.sc
Substitution2: "'aalt' Access All Alternates in Latin lookup 0 subtable" oslash.sc
EndChar

StartChar: Oslashacute
Encoding: 510 510 101
Width: 1712
GlyphClass: 2
Flags: W
AnchorPoint: "Anchor-5" 1038 0 basechar 0
AnchorPoint: "Anchor-4" 1055 1853 basechar 0
AnchorPoint: "Anchor-3" 856 0 basechar 0
LayerCount: 2
Fore
SplineSet
454.5 68.5 m 128,-1,1
 272 168 272 168 166.5 341 c 128,-1,2
 61 514 61 514 61 721 c 0,3,4
 61 930 61 930 166.5 1103 c 128,-1,5
 272 1276 272 1276 454.5 1375.5 c 128,-1,6
 637 1475 637 1475 856 1475 c 256,7,8
 1075 1475 1075 1475 1257.5 1375.5 c 128,-1,9
 1440 1276 1440 1276 1545.5 1103 c 128,-1,10
 1651 930 1651 930 1651 721 c 0,11,12
 1651 514 1651 514 1545.5 341 c 128,-1,13
 1440 168 1440 168 1257.5 68.5 c 128,-1,14
 1075 -31 1075 -31 856 -31 c 256,15,0
 637 -31 637 -31 454.5 68.5 c 128,-1,1
1035.5 114 m 128,-1,17
 1110 197 1110 197 1150 352.5 c 128,-1,18
 1190 508 1190 508 1190 721 c 0,19,20
 1190 936 1190 936 1150 1091.5 c 128,-1,21
 1110 1247 1110 1247 1035.5 1330 c 128,-1,22
 961 1413 961 1413 856 1413 c 256,23,24
 752 1413 752 1413 677 1330 c 128,-1,25
 602 1247 602 1247 562 1091.5 c 128,-1,26
 522 936 522 936 522 721 c 0,27,28
 522 508 522 508 562 352.5 c 128,-1,29
 602 197 602 197 677 114 c 128,-1,30
 752 31 752 31 856 31 c 256,31,16
 961 31 961 31 1035.5 114 c 128,-1,17
1430 1516 m 1,32,-1
 1513 1516 l 1,33,-1
 281 -72 l 1,34,-1
 197 -72 l 1,35,-1
 1430 1516 l 1,32,-1
971 1888 m 1,36,-1
 1331 1888 l 1,37,-1
 870 1571 l 1,38,-1
 846 1571 l 1,39,-1
 971 1888 l 1,36,-1
EndSplineSet
Validated: 5
Substitution2: "'c2sc' Capitals to Small Capitals in Latin lookup 24 subtable" oslashacute.sc
Substitution2: "'aalt' Access All Alternates in Latin lookup 0 subtable" oslashacute.sc
EndChar

StartChar: Tbar
Encoding: 358 358 111
Width: 1429
GlyphClass: 2
Flags: W
AnchorPoint: "Anchor-4" 715 1444 basechar 0
AnchorPoint: "Anchor-3" 715 0 basechar 0
LayerCount: 2
Fore
SplineSet
80 1444 m 1,0,-1
 1350 1444 l 1,1,-1
 1389 1042 l 1,2,-1
 1348 1042 l 1,3,4
 1321 1157 1321 1157 1274 1233 c 128,-1,5
 1227 1309 1227 1309 1164.5 1345.5 c 128,-1,6
 1102 1382 1102 1382 1024 1382 c 2,7,-1
 406 1382 l 2,8,9
 328 1382 328 1382 265.5 1345.5 c 128,-1,10
 203 1309 203 1309 156 1233 c 128,-1,11
 109 1157 109 1157 82 1042 c 1,12,-1
 41 1042 l 1,13,-1
 80 1444 l 1,0,-1
549 0 m 1,14,-1
 328 0 l 1,15,-1
 328 41 l 1,16,17
 406 41 406 41 441.5 57.5 c 128,-1,18
 477 74 477 74 488.5 110.5 c 128,-1,19
 500 147 500 147 500 225 c 2,20,-1
 500 1403 l 1,21,-1
 930 1403 l 1,22,-1
 930 225 l 2,23,24
 930 147 930 147 941 110.5 c 128,-1,25
 952 74 952 74 988 57.5 c 128,-1,26
 1024 41 1024 41 1102 41 c 1,27,-1
 1102 0 l 1,28,-1
 881 0 l 1,29,-1
 549 0 l 1,14,-1
266 754 m 1,30,-1
 1161 754 l 1,31,-1
 1161 692 l 1,32,-1
 266 692 l 1,33,-1
 266 754 l 1,30,-1
EndSplineSet
Validated: 5
Substitution2: "'c2sc' Capitals to Small Capitals in Latin lookup 24 subtable" tbar.sc
Substitution2: "'aalt' Access All Alternates in Latin lookup 0 subtable" tbar.sc
EndChar

StartChar: Thorn
Encoding: 222 222 115
Width: 1390
GlyphClass: 2
Flags: W
AnchorPoint: "Anchor-5" 614 0 basechar 0
AnchorPoint: "Anchor-4" 696 1444 basechar 0
AnchorPoint: "Anchor-3" 696 0 basechar 0
LayerCount: 2
Fore
SplineSet
485 442 m 1,0,-1
 670 442 l 2,1,2
 801 442 801 442 874.5 535.5 c 128,-1,3
 948 629 948 629 948 797 c 0,4,5
 948 932 948 932 878.5 1003.5 c 128,-1,6
 809 1075 809 1075 676 1075 c 2,7,-1
 518 1075 l 1,8,-1
 518 1124 l 1,9,-1
 760 1124 l 2,10,11
 953 1124 953 1124 1089 1084 c 128,-1,12
 1225 1044 1225 1044 1297.5 966.5 c 128,-1,13
 1370 889 1370 889 1370 778 c 0,14,15
 1370 583 1370 583 1180.5 490 c 128,-1,16
 991 397 991 397 670 397 c 2,17,-1
 485 397 l 1,18,-1
 485 442 l 1,0,-1
225 0 m 1,19,-1
 41 0 l 1,20,-1
 41 41 l 1,21,22
 107 41 107 41 136.5 57.5 c 128,-1,23
 166 74 166 74 175 110.5 c 128,-1,24
 184 147 184 147 184 225 c 2,25,-1
 184 1219 l 2,26,27
 184 1297 184 1297 175 1333.5 c 128,-1,28
 166 1370 166 1370 136 1386.5 c 128,-1,29
 106 1403 106 1403 41 1403 c 1,30,-1
 41 1444 l 1,31,-1
 225 1444 l 1,32,-1
 573 1444 l 1,33,-1
 758 1444 l 1,34,-1
 758 1403 l 1,35,36
 692 1403 692 1403 662.5 1386.5 c 128,-1,37
 633 1370 633 1370 623.5 1333 c 128,-1,38
 614 1296 614 1296 614 1219 c 2,39,-1
 614 225 l 2,40,41
 614 147 614 147 623.5 110.5 c 128,-1,42
 633 74 633 74 662.5 57.5 c 128,-1,43
 692 41 692 41 758 41 c 1,44,-1
 758 0 l 1,45,-1
 573 0 l 1,46,-1
 225 0 l 1,19,-1
EndSplineSet
Validated: 5
Substitution2: "'c2sc' Capitals to Small Capitals in Latin lookup 24 subtable" thorn.sc
Substitution2: "'aalt' Access All Alternates in Latin lookup 0 subtable" thorn.sc
EndChar

StartChar: uni1E9E
Encoding: 7838 7838 141
Width: 1703
GlyphClass: 1
Flags: W
LayerCount: 2
Fore
SplineSet
215 0 m 1,0,-1
 31 0 l 1,1,-1
 31 41 l 1,2,3
 97 41 97 41 126.5 57.5 c 128,-1,4
 156 74 156 74 165 110.5 c 128,-1,5
 174 147 174 147 174 225 c 2,6,-1
 174 918 l 2,7,8
 174 1104 174 1104 258 1228 c 128,-1,9
 342 1352 342 1352 502 1413.5 c 128,-1,10
 662 1475 662 1475 891 1475 c 0,11,12
 1147 1475 1147 1475 1318 1392 c 128,-1,13
 1489 1309 1489 1309 1589 1149 c 1,14,-1
 1180 1061 l 1,15,16
 1164 1186 1164 1186 1135 1260.5 c 128,-1,17
 1106 1335 1106 1335 1049.5 1374 c 128,-1,18
 993 1413 993 1413 893 1413 c 0,19,20
 760 1413 760 1413 682 1315 c 128,-1,21
 604 1217 604 1217 604 1051 c 2,22,-1
 604 0 l 1,23,-1
 215 0 l 1,0,-1
883.5 -14.5 m 128,-1,25
 811 2 811 2 743 33 c 1,26,-1
 743 379 l 1,27,-1
 784 379 l 1,28,29
 831 184 831 184 899 105.5 c 128,-1,30
 967 27 967 27 1055 27 c 0,31,32
 1133 27 1133 27 1176 115 c 128,-1,33
 1219 203 1219 203 1219 362 c 0,34,35
 1219 536 1219 536 1131.5 653 c 128,-1,36
 1044 770 1044 770 870 770 c 1,37,-1
 870 793 l 1,38,-1
 1212 1196 l 1,39,-1
 1589 1149 l 1,40,-1
 1171 690 l 1,41,-1
 1159 770 l 1,42,43
 1323 770 1323 770 1433.5 723 c 128,-1,44
 1544 676 1544 676 1598.5 597 c 128,-1,45
 1653 518 1653 518 1653 426 c 0,46,47
 1653 270 1653 270 1557.5 168 c 128,-1,48
 1462 66 1462 66 1320 17.5 c 128,-1,49
 1178 -31 1178 -31 1034 -31 c 0,50,24
 956 -31 956 -31 883.5 -14.5 c 128,-1,25
EndSplineSet
Validated: 5
Substitution2: "'c2sc' Capitals to Small Capitals in Latin lookup 24 subtable" germandbls.sc
Substitution2: "'aalt' Access All Alternates in Latin lookup 0 subtable" germandbls.sc
EndChar

StartChar: uni018F
Encoding: 399 399 142
Width: 1662
GlyphClass: 1
Flags: W
LayerCount: 2
Fore
SplineSet
434 66.5 m 128,-1,1
 260 164 260 164 160.5 336 c 128,-1,2
 61 508 61 508 61 721 c 0,3,4
 61 766 61 766 68 809 c 1,5,-1
 1157 809 l 1,6,-1
 1159 748 l 1,7,-1
 428 748 l 1,8,-1
 510 772 l 1,9,10
 500 559 500 559 535.5 390 c 128,-1,11
 571 221 571 221 647 126 c 128,-1,12
 723 31 723 31 825 31 c 0,13,14
 923 31 923 31 995 114 c 128,-1,15
 1067 197 1067 197 1105 352.5 c 128,-1,16
 1143 508 1143 508 1143 721 c 0,17,18
 1143 1008 1143 1008 1050.5 1210.5 c 128,-1,19
 958 1413 958 1413 729 1413 c 0,20,21
 573 1413 573 1413 459.5 1300.5 c 128,-1,22
 346 1188 346 1188 274 961 c 1,23,-1
 233 961 l 1,24,-1
 233 1335 l 1,25,26
 321 1401 321 1401 454.5 1438 c 128,-1,27
 588 1475 588 1475 739 1475 c 0,28,29
 997 1475 997 1475 1193 1378.5 c 128,-1,30
 1389 1282 1389 1282 1495.5 1111 c 128,-1,31
 1602 940 1602 940 1602 721 c 0,32,33
 1602 508 1602 508 1500.5 337 c 128,-1,34
 1399 166 1399 166 1221.5 67.5 c 128,-1,35
 1044 -31 1044 -31 825 -31 c 0,36,0
 608 -31 608 -31 434 66.5 c 128,-1,1
EndSplineSet
Validated: 37
Substitution2: "'c2sc' Capitals to Small Capitals in Latin lookup 24 subtable" uni0259.sc
Substitution2: "'aalt' Access All Alternates in Latin lookup 0 subtable" uni0259.sc
EndChar

StartChar: a
Encoding: 97 97 143
Width: 1236
GlyphClass: 2
Flags: W
AnchorPoint: "Anchor-5" 969 0 basechar 0
AnchorPoint: "Anchor-4" 657 1055 basechar 0
AnchorPoint: "Anchor-3" 610 0 basechar 0
LayerCount: 2
Fore
SplineSet
734.5 35.5 m 128,-1,1
 666 102 666 102 649 217 c 1,2,-1
 649 850 l 2,3,4
 649 916 649 916 631.5 948.5 c 128,-1,5
 614 981 614 981 573 981 c 0,6,7
 534 981 534 981 511.5 957.5 c 128,-1,8
 489 934 489 934 477 865.5 c 128,-1,9
 465 797 465 797 465 668 c 1,10,-1
 41 668 l 1,11,12
 231 869 231 869 421.5 977 c 128,-1,13
 612 1085 612 1085 784 1085 c 0,14,15
 927 1085 927 1085 989 1010.5 c 128,-1,16
 1051 936 1051 936 1051 772 c 2,17,-1
 1051 307 l 2,18,19
 1051 241 1051 241 1074.5 209.5 c 128,-1,20
 1098 178 1098 178 1147 178 c 0,21,22
 1170 178 1170 178 1190 186.5 c 128,-1,23
 1210 195 1210 195 1227 207 c 1,24,-1
 1227 174 l 1,25,26
 1170 80 1170 80 1082.5 24.5 c 128,-1,27
 995 -31 995 -31 911 -31 c 0,28,0
 803 -31 803 -31 734.5 35.5 c 128,-1,1
176.5 4 m 128,-1,30
 113 39 113 39 77 97.5 c 128,-1,31
 41 156 41 156 41 225 c 0,32,33
 41 311 41 311 93 365.5 c 128,-1,34
 145 420 145 420 264 461 c 2,35,-1
 657 594 l 1,36,-1
 657 549 l 1,37,-1
 580 518 l 2,38,39
 517 493 517 493 485 448 c 128,-1,40
 453 403 453 403 453 338 c 256,41,42
 453 272 453 272 486.5 234.5 c 128,-1,43
 520 197 520 197 573 197 c 0,44,45
 598 197 598 197 617.5 202 c 128,-1,46
 637 207 637 207 655 217 c 1,47,-1
 655 195 l 1,48,49
 581 80 581 80 503.5 24.5 c 128,-1,50
 426 -31 426 -31 317 -31 c 0,51,29
 240 -31 240 -31 176.5 4 c 128,-1,30
EndSplineSet
Validated: 5
Substitution2: "Single Substitution lookup 36 subtable" ordfeminine
Substitution2: "'smcp' Lowercase to Small Capitals in Latin lookup 25 subtable" a.sc
Substitution2: "'sups' Superscript in Latin lookup 12 subtable" a.sups
AlternateSubs2: "'aalt' Access All Alternates in Latin lookup 1 subtable" ordfeminine a.sc a.sups
EndChar

StartChar: b
Encoding: 98 98 144
Width: 1302
GlyphClass: 2
Flags: W
AnchorPoint: "Anchor-4" 649 1055 basechar 0
AnchorPoint: "Anchor-3" 649 0 basechar 0
LayerCount: 2
Fore
SplineSet
382.5 6 m 128,-1,1
 233 43 233 43 111 123 c 1,2,-1
 111 1333 l 1,3,-1
 0 1397 l 1,4,-1
 0 1397 l 1,5,-1
 512 1638 l 1,6,-1
 512 1552 l 1,7,-1
 512 211 l 2,8,9
 512 115 512 115 546 67.5 c 128,-1,10
 580 20 580 20 645 20 c 256,11,12
 711 20 711 20 759 76.5 c 128,-1,13
 807 133 807 133 831.5 232.5 c 128,-1,14
 856 332 856 332 856 457 c 0,15,16
 856 596 856 596 828.5 689 c 128,-1,17
 801 782 801 782 747.5 829.5 c 128,-1,18
 694 877 694 877 621 877 c 0,19,20
 592 877 592 877 561 868.5 c 128,-1,21
 530 860 530 860 500 844 c 1,22,-1
 500 860 l 1,23,24
 557 950 557 950 663.5 1017.5 c 128,-1,25
 770 1085 770 1085 879 1085 c 0,26,27
 979 1085 979 1085 1066 1031 c 128,-1,28
 1153 977 1153 977 1207.5 868.5 c 128,-1,29
 1262 760 1262 760 1262 604 c 0,30,31
 1262 426 1262 426 1182 280.5 c 128,-1,32
 1102 135 1102 135 961.5 52 c 128,-1,33
 821 -31 821 -31 649 -31 c 0,34,0
 532 -31 532 -31 382.5 6 c 128,-1,1
EndSplineSet
Validated: 5
Substitution2: "'smcp' Lowercase to Small Capitals in Latin lookup 25 subtable" b.sc
Substitution2: "'sups' Superscript in Latin lookup 12 subtable" b.sups
AlternateSubs2: "'aalt' Access All Alternates in Latin lookup 1 subtable" b.sc b.sups
EndChar

StartChar: c
Encoding: 99 99 145
Width: 1091
GlyphClass: 2
Flags: W
AnchorPoint: "Anchor-4" 604 1055 basechar 0
AnchorPoint: "Anchor-3" 557 0 basechar 0
LayerCount: 2
Fore
SplineSet
298 37.5 m 128,-1,1
 176 106 176 106 108.5 229 c 128,-1,2
 41 352 41 352 41 506 c 0,3,4
 41 672 41 672 120 804 c 128,-1,5
 199 936 199 936 336 1010.5 c 128,-1,6
 473 1085 473 1085 639 1085 c 0,7,8
 764 1085 764 1085 858 1047.5 c 128,-1,9
 952 1010 952 1010 1002.5 949.5 c 128,-1,10
 1053 889 1053 889 1053 823 c 0,11,12
 1053 772 1053 772 1023 724 c 128,-1,13
 993 676 993 676 938 643 c 1,14,-1
 776 643 l 1,15,16
 751 846 751 846 700 941 c 128,-1,17
 649 1036 649 1036 573 1036 c 0,18,19
 518 1036 518 1036 478 999.5 c 128,-1,20
 438 963 438 963 417.5 890 c 128,-1,21
 397 817 397 817 397 713 c 0,22,23
 397 576 397 576 442 467 c 128,-1,24
 487 358 487 358 572 298 c 128,-1,25
 657 238 657 238 774 238 c 0,26,27
 862 238 862 238 933 265.5 c 128,-1,28
 1004 293 1004 293 1061 344 c 1,29,-1
 1061 309 l 1,30,31
 975 141 975 141 853 55 c 128,-1,32
 731 -31 731 -31 575 -31 c 256,33,0
 420 -31 420 -31 298 37.5 c 128,-1,1
EndSplineSet
Validated: 1
Substitution2: "'smcp' Lowercase to Small Capitals in Latin lookup 25 subtable" c.sc
Substitution2: "'sups' Superscript in Latin lookup 12 subtable" c.sups
AlternateSubs2: "'aalt' Access All Alternates in Latin lookup 1 subtable" c.sc c.sups
EndChar

StartChar: d
Encoding: 100 100 146
Width: 1333
GlyphClass: 2
Flags: W
AnchorPoint: "Anchor-4" 621 1444 basechar 0
AnchorPoint: "Anchor-3" 621 0 basechar 0
LayerCount: 2
Fore
SplineSet
237.5 28.5 m 128,-1,1
 147 88 147 88 94 200.5 c 128,-1,2
 41 313 41 313 41 467 c 0,3,4
 41 647 41 647 119 787.5 c 128,-1,5
 197 928 197 928 343 1006.5 c 128,-1,6
 489 1085 489 1085 688 1085 c 0,7,8
 768 1085 768 1085 909.5 1044.5 c 128,-1,9
 1051 1004 1051 1004 1151 932 c 1,10,-1
 791 1012 l 1,11,-1
 791 1333 l 1,12,-1
 680 1397 l 1,13,-1
 680 1397 l 1,14,-1
 1192 1638 l 1,15,-1
 1192 1552 l 1,16,-1
 1192 184 l 1,17,-1
 1303 121 l 1,18,-1
 1303 121 l 1,19,-1
 791 -39 l 1,20,-1
 791 0 l 1,21,-1
 791 844 l 2,22,23
 791 942 791 942 757 988 c 128,-1,24
 723 1034 723 1034 659 1034 c 0,25,26
 591 1034 591 1034 543.5 980 c 128,-1,27
 496 926 496 926 471 826.5 c 128,-1,28
 446 727 446 727 446 596 c 256,29,30
 446 465 446 465 476 370.5 c 128,-1,31
 506 276 506 276 559 227 c 128,-1,32
 612 178 612 178 682 178 c 0,33,34
 715 178 715 178 743.5 186.5 c 128,-1,35
 772 195 772 195 803 211 c 1,36,-1
 803 195 l 1,37,38
 746 105 746 105 642.5 37 c 128,-1,39
 539 -31 539 -31 434 -31 c 0,40,0
 328 -31 328 -31 237.5 28.5 c 128,-1,1
EndSplineSet
Validated: 5
Substitution2: "'smcp' Lowercase to Small Capitals in Latin lookup 25 subtable" d.sc
Substitution2: "'sups' Superscript in Latin lookup 12 subtable" d.sups
AlternateSubs2: "'aalt' Access All Alternates in Latin lookup 1 subtable" d.sc d.sups
EndChar

StartChar: e
Encoding: 101 101 147
Width: 1124
GlyphClass: 2
Flags: W
AnchorPoint: "Anchor-5" 723 0 basechar 0
AnchorPoint: "Anchor-4" 555 1055 basechar 0
AnchorPoint: "Anchor-3" 569 0 basechar 0
LayerCount: 2
Fore
SplineSet
298 36.5 m 128,-1,1
 176 104 176 104 108.5 222 c 128,-1,2
 41 340 41 340 41 485 c 0,3,4
 41 647 41 647 115.5 784.5 c 128,-1,5
 190 922 190 922 319.5 1003.5 c 128,-1,6
 449 1085 449 1085 602 1085 c 0,7,8
 792 1085 792 1085 913 971.5 c 128,-1,9
 1034 858 1034 858 1075 690 c 1,10,-1
 172 690 l 1,11,-1
 172 741 l 1,12,-1
 764 741 l 1,13,-1
 711 731 l 1,14,15
 711 891 711 891 669 966.5 c 128,-1,16
 627 1042 627 1042 563 1042 c 0,17,18
 481 1042 481 1042 438 956 c 128,-1,19
 395 870 395 870 395 700 c 0,20,21
 395 555 395 555 440 451.5 c 128,-1,22
 485 348 485 348 570 293 c 128,-1,23
 655 238 655 238 774 238 c 0,24,25
 874 238 874 238 953 267.5 c 128,-1,26
 1032 297 1032 297 1094 358 c 1,27,-1
 1094 324 l 1,28,29
 1008 144 1008 144 879 56.5 c 128,-1,30
 750 -31 750 -31 575 -31 c 0,31,0
 420 -31 420 -31 298 36.5 c 128,-1,1
EndSplineSet
Validated: 5
Substitution2: "'smcp' Lowercase to Small Capitals in Latin lookup 25 subtable" e.sc
Substitution2: "'sups' Superscript in Latin lookup 12 subtable" e.sups
AlternateSubs2: "'aalt' Access All Alternates in Latin lookup 1 subtable" e.sc e.sups
EndChar

StartChar: f
Encoding: 102 102 148
Width: 804
GlyphClass: 2
Flags: W
AnchorPoint: "Anchor-4" 412 1444 basechar 0
AnchorPoint: "Anchor-3" 412 0 basechar 0
LayerCount: 2
Fore
SplineSet
211 0 m 1,0,-1
 59 0 l 1,1,-1
 59 41 l 1,2,3
 106 41 106 41 130 51 c 128,-1,4
 154 61 154 61 162 82.5 c 128,-1,5
 170 104 170 104 170 147 c 2,6,-1
 170 1055 l 2,7,8
 170 1229 170 1229 228.5 1357 c 128,-1,9
 287 1485 287 1485 391.5 1551.5 c 128,-1,10
 496 1618 496 1618 633 1618 c 0,11,12
 721 1618 721 1618 795.5 1590.5 c 128,-1,13
 870 1563 870 1563 914 1515.5 c 128,-1,14
 958 1468 958 1468 958 1411 c 256,15,16
 958 1354 958 1354 919.5 1308 c 128,-1,17
 881 1262 881 1262 811 1233 c 1,18,-1
 717 1233 l 1,19,20
 709 1411 709 1411 673 1480.5 c 128,-1,21
 637 1550 637 1550 555 1550 c 0,22,23
 498 1550 498 1550 465 1507 c 128,-1,24
 432 1464 432 1464 432 1391 c 0,25,26
 432 1313 432 1313 470 1214.5 c 128,-1,27
 508 1116 508 1116 571 1032 c 1,28,-1
 571 147 l 2,29,30
 571 104 571 104 585.5 82.5 c 128,-1,31
 600 61 600 61 638 51 c 128,-1,32
 676 41 676 41 752 41 c 1,33,-1
 752 0 l 1,34,-1
 504 0 l 1,35,-1
 211 0 l 1,0,-1
51 952 m 1,36,-1
 170 1055 l 1,37,-1
 764 1055 l 1,38,-1
 764 952 l 1,39,-1
 51 952 l 1,40,-1
 51 952 l 1,36,-1
EndSplineSet
Validated: 5
Substitution2: "'smcp' Lowercase to Small Capitals in Latin lookup 25 subtable" f.sc
Substitution2: "'sups' Superscript in Latin lookup 12 subtable" f.sups
AlternateSubs2: "'aalt' Access All Alternates in Latin lookup 1 subtable" f.sc f.sups
EndChar

StartChar: g
Encoding: 103 103 149
Width: 1214
GlyphClass: 2
Flags: W
AnchorPoint: "Anchor-4" 553 1055 basechar 0
AnchorPoint: "Anchor-3" 586 -379 basechar 0
LayerCount: 2
Fore
SplineSet
222 -371.5 m 128,-1,1
 96 -344 96 -344 27.5 -293 c 128,-1,2
 -41 -242 -41 -242 -41 -174 c 0,3,4
 -41 -100 -41 -100 52 -50 c 128,-1,5
 145 0 145 0 330 25 c 1,6,-1
 350 25 l 1,7,8
 317 2 317 2 300 -34 c 128,-1,9
 283 -70 283 -70 283 -115 c 0,10,11
 283 -217 283 -217 374 -271.5 c 128,-1,12
 465 -326 465 -326 639 -326 c 0,13,14
 733 -326 733 -326 808 -305.5 c 128,-1,15
 883 -285 883 -285 926 -250 c 128,-1,16
 969 -215 969 -215 969 -170 c 0,17,18
 969 -135 969 -135 938 -115.5 c 128,-1,19
 907 -96 907 -96 831 -82 c 2,20,-1
 354 4 l 2,21,22
 243 24 243 24 184 74.5 c 128,-1,23
 125 125 125 125 125 201 c 0,24,25
 125 289 125 289 206 349.5 c 128,-1,26
 287 410 287 410 455 446 c 1,27,-1
 485 442 l 1,28,29
 460 432 460 432 444 414.5 c 128,-1,30
 428 397 428 397 428 383 c 0,31,32
 428 365 428 365 447.5 353.5 c 128,-1,33
 467 342 467 342 522 334 c 2,34,-1
 942 262 l 2,35,36
 1063 242 1063 242 1123.5 191.5 c 128,-1,37
 1184 141 1184 141 1184 57 c 0,38,39
 1184 -68 1184 -68 1095 -172 c 128,-1,40
 1006 -276 1006 -276 853 -337.5 c 128,-1,41
 700 -399 700 -399 516 -399 c 0,42,0
 348 -399 348 -399 222 -371.5 c 128,-1,1
308.5 478 m 128,-1,44
 201 520 201 520 139.5 594 c 128,-1,45
 78 668 78 668 78 760 c 256,46,47
 78 852 78 852 139.5 926.5 c 128,-1,48
 201 1001 201 1001 308.5 1043 c 128,-1,49
 416 1085 416 1085 551 1085 c 256,50,51
 686 1085 686 1085 793.5 1043 c 128,-1,52
 901 1001 901 1001 962.5 926.5 c 128,-1,53
 1024 852 1024 852 1024 760 c 256,54,55
 1024 668 1024 668 962.5 594 c 128,-1,56
 901 520 901 520 793.5 478 c 128,-1,57
 686 436 686 436 551 436 c 256,58,43
 416 436 416 436 308.5 478 c 128,-1,44
644 549 m 128,-1,60
 676 621 676 621 676 760 c 256,61,62
 676 899 676 899 644 971.5 c 128,-1,63
 612 1044 612 1044 551 1044 c 256,64,65
 490 1044 490 1044 458 971.5 c 128,-1,66
 426 899 426 899 426 760 c 256,67,68
 426 621 426 621 457.5 549 c 128,-1,69
 489 477 489 477 551 477 c 256,70,59
 612 477 612 477 644 549 c 128,-1,60
836 1020 m 1,72,-1
 737 1055 l 1,73,-1
 1176 1122 l 1,74,-1
 1176 920 l 1,75,71
 1004 987 1004 987 836 1020 c 1,72,-1
EndSplineSet
Validated: 5
Substitution2: "'smcp' Lowercase to Small Capitals in Latin lookup 25 subtable" g.sc
Substitution2: "'sups' Superscript in Latin lookup 12 subtable" g.sups
AlternateSubs2: "'aalt' Access All Alternates in Latin lookup 1 subtable" g.sc g.sups
EndChar

StartChar: h
Encoding: 104 104 150
Width: 1386
GlyphClass: 2
Flags: W
AnchorPoint: "Anchor-4" 694 1618 basechar 0
AnchorPoint: "Anchor-3" 694 0 basechar 0
LayerCount: 2
Fore
SplineSet
193 0 m 1,0,-1
 41 0 l 1,1,-1
 41 41 l 1,2,3
 88 41 88 41 111.5 51 c 128,-1,4
 135 61 135 61 143.5 82.5 c 128,-1,5
 152 104 152 104 152 147 c 2,6,-1
 152 1333 l 1,7,-1
 41 1397 l 1,8,-1
 41 1397 l 1,9,-1
 553 1638 l 1,10,-1
 553 1552 l 1,11,-1
 553 147 l 2,12,13
 553 104 553 104 561 82.5 c 128,-1,14
 569 61 569 61 592.5 51 c 128,-1,15
 616 41 616 41 664 41 c 1,16,-1
 664 0 l 1,17,-1
 512 0 l 1,18,-1
 193 0 l 1,0,-1
885 0 m 1,19,-1
 733 0 l 1,20,-1
 733 41 l 1,21,22
 780 41 780 41 803.5 51 c 128,-1,23
 827 61 827 61 835.5 82.5 c 128,-1,24
 844 104 844 104 844 147 c 2,25,-1
 844 717 l 2,26,27
 844 795 844 795 803 836 c 128,-1,28
 762 877 762 877 686 877 c 0,29,30
 641 877 641 877 605 868.5 c 128,-1,31
 569 860 569 860 539 844 c 1,32,-1
 539 860 l 1,33,34
 613 954 613 954 726.5 1019.5 c 128,-1,35
 840 1085 840 1085 958 1085 c 0,36,37
 1099 1085 1099 1085 1172 1002.5 c 128,-1,38
 1245 920 1245 920 1245 754 c 2,39,-1
 1245 147 l 2,40,41
 1245 104 1245 104 1253.5 82.5 c 128,-1,42
 1262 61 1262 61 1285.5 51 c 128,-1,43
 1309 41 1309 41 1356 41 c 1,44,-1
 1356 0 l 1,45,-1
 1204 0 l 1,46,-1
 885 0 l 1,19,-1
EndSplineSet
Validated: 5
Substitution2: "'smcp' Lowercase to Small Capitals in Latin lookup 25 subtable" h.sc
Substitution2: "'sups' Superscript in Latin lookup 12 subtable" h.sups
AlternateSubs2: "'aalt' Access All Alternates in Latin lookup 1 subtable" h.sc h.sups
EndChar

StartChar: k
Encoding: 107 107 153
Width: 1400
GlyphClass: 2
Flags: W
AnchorPoint: "Anchor-4" 750 1444 basechar 0
AnchorPoint: "Anchor-3" 750 0 basechar 0
LayerCount: 2
Fore
SplineSet
809 156 m 2,1,-1
 571 584 l 1,2,-1
 571 584 l 1,3,-1
 969 918 l 2,4,5
 989 934 989 934 998.5 946 c 128,-1,6
 1008 958 1008 958 1008 969 c 0,7,8
 1008 994 1008 994 969 1004 c 128,-1,9
 930 1014 930 1014 848 1014 c 1,10,-1
 848 1055 l 1,11,-1
 1333 1055 l 1,12,-1
 1333 1014 l 1,13,14
 1284 1014 1284 1014 1252.5 1005.5 c 128,-1,15
 1221 997 1221 997 1192 981 c 128,-1,16
 1163 965 1163 965 1106 926 c 2,17,-1
 868 762 l 1,18,-1
 887 815 l 1,19,-1
 1262 178 l 2,20,21
 1301 112 1301 112 1331.5 76.5 c 128,-1,22
 1362 41 1362 41 1380 41 c 1,23,-1
 1380 0 l 1,24,-1
 918 0 l 1,25,0
 891 23 891 23 809 156 c 2,1,-1
193 0 m 1,26,-1
 41 0 l 1,27,-1
 41 41 l 1,28,29
 88 41 88 41 111.5 51 c 128,-1,30
 135 61 135 61 143.5 82.5 c 128,-1,31
 152 104 152 104 152 147 c 2,32,-1
 152 1333 l 1,33,-1
 41 1397 l 1,34,-1
 41 1397 l 1,35,-1
 553 1638 l 1,36,-1
 553 1552 l 1,37,-1
 553 147 l 2,38,39
 553 106 553 106 560 83.5 c 128,-1,40
 567 61 567 61 587.5 51 c 128,-1,41
 608 41 608 41 647 41 c 1,42,-1
 647 0 l 1,43,-1
 518 0 l 1,44,-1
 193 0 l 1,26,-1
EndSplineSet
Validated: 5
Substitution2: "'smcp' Lowercase to Small Capitals in Latin lookup 25 subtable" k.sc
Substitution2: "'sups' Superscript in Latin lookup 12 subtable" k.sups
AlternateSubs2: "'aalt' Access All Alternates in Latin lookup 1 subtable" k.sc k.sups
EndChar

StartChar: l
Encoding: 108 108 154
Width: 704
GlyphClass: 2
Flags: W
AnchorPoint: "Anchor-4" 352 1618 basechar 0
AnchorPoint: "Anchor-3" 352 0 basechar 0
LayerCount: 2
Fore
SplineSet
193 0 m 1,0,-1
 41 0 l 1,1,-1
 41 41 l 1,2,3
 88 41 88 41 111.5 51 c 128,-1,4
 135 61 135 61 143.5 82.5 c 128,-1,5
 152 104 152 104 152 147 c 2,6,-1
 152 1333 l 1,7,-1
 41 1397 l 1,8,-1
 41 1397 l 1,9,-1
 553 1638 l 1,10,-1
 553 1552 l 1,11,-1
 553 147 l 2,12,13
 553 104 553 104 561 82.5 c 128,-1,14
 569 61 569 61 592.5 51 c 128,-1,15
 616 41 616 41 664 41 c 1,16,-1
 664 0 l 1,17,-1
 512 0 l 1,18,-1
 193 0 l 1,0,-1
EndSplineSet
Validated: 5
Substitution2: "'smcp' Lowercase to Small Capitals in Latin lookup 25 subtable" l.sc
Substitution2: "'sups' Superscript in Latin lookup 12 subtable" l.sups
AlternateSubs2: "'aalt' Access All Alternates in Latin lookup 1 subtable" l.sc l.sups
EndChar

StartChar: m
Encoding: 109 109 155
Width: 2007
GlyphClass: 2
Flags: W
AnchorPoint: "Anchor-4" 1020 1055 basechar 0
AnchorPoint: "Anchor-3" 1020 0 basechar 0
LayerCount: 2
Fore
SplineSet
1501 0 m 1,0,-1
 1366 0 l 1,1,-1
 1366 41 l 1,2,3
 1407 41 1407 41 1427.5 51 c 128,-1,4
 1448 61 1448 61 1456 82.5 c 128,-1,5
 1464 104 1464 104 1464 147 c 2,6,-1
 1464 717 l 2,7,8
 1464 795 1464 795 1428.5 836 c 128,-1,9
 1393 877 1393 877 1327 877 c 0,10,11
 1290 877 1290 877 1259.5 868.5 c 128,-1,12
 1229 860 1229 860 1200 844 c 1,13,-1
 1200 860 l 1,14,15
 1270 952 1270 952 1382.5 1018.5 c 128,-1,16
 1495 1085 1495 1085 1595 1085 c 0,17,18
 1732 1085 1732 1085 1799 1012.5 c 128,-1,19
 1866 940 1866 940 1866 791 c 2,20,-1
 1866 147 l 2,21,22
 1866 104 1866 104 1874 82.5 c 128,-1,23
 1882 61 1882 61 1905.5 51 c 128,-1,24
 1929 41 1929 41 1976 41 c 1,25,-1
 1976 0 l 1,26,-1
 1825 0 l 1,27,-1
 1501 0 l 1,0,-1
201 0 m 1,28,-1
 41 0 l 1,29,-1
 41 41 l 1,30,31
 90 41 90 41 114.5 51 c 128,-1,32
 139 61 139 61 148.5 83.5 c 128,-1,33
 158 106 158 106 158 147 c 2,34,-1
 158 836 l 1,35,-1
 47 899 l 1,36,-1
 47 899 l 1,37,-1
 559 1141 l 1,38,-1
 559 1055 l 1,39,-1
 559 147 l 2,40,41
 559 104 559 104 567 82.5 c 128,-1,42
 575 61 575 61 595.5 51 c 128,-1,43
 616 41 616 41 659 41 c 1,44,-1
 659 0 l 1,45,-1
 522 0 l 1,46,-1
 201 0 l 1,28,-1
848 0 m 1,47,-1
 713 0 l 1,48,-1
 713 41 l 1,49,50
 754 41 754 41 774.5 51 c 128,-1,51
 795 61 795 61 803 82.5 c 128,-1,52
 811 104 811 104 811 147 c 2,53,-1
 811 717 l 2,54,55
 811 795 811 795 775 836 c 128,-1,56
 739 877 739 877 674 877 c 0,57,58
 637 877 637 877 606 868.5 c 128,-1,59
 575 860 575 860 547 844 c 1,60,-1
 547 860 l 1,61,62
 617 952 617 952 729.5 1018.5 c 128,-1,63
 842 1085 842 1085 942 1085 c 0,64,65
 1075 1085 1075 1085 1143.5 1010.5 c 128,-1,66
 1212 936 1212 936 1212 791 c 2,67,-1
 1212 147 l 2,68,69
 1212 104 1212 104 1220.5 82.5 c 128,-1,70
 1229 61 1229 61 1249.5 51 c 128,-1,71
 1270 41 1270 41 1311 41 c 1,72,-1
 1311 0 l 1,73,-1
 1176 0 l 1,74,-1
 848 0 l 1,47,-1
EndSplineSet
Validated: 5
Substitution2: "'smcp' Lowercase to Small Capitals in Latin lookup 25 subtable" m.sc
Substitution2: "'sups' Superscript in Latin lookup 12 subtable" m.sups
AlternateSubs2: "'aalt' Access All Alternates in Latin lookup 1 subtable" m.sc m.sups
EndChar

StartChar: n
Encoding: 110 110 156
Width: 1392
GlyphClass: 2
Flags: W
AnchorPoint: "Anchor-4" 709 1055 basechar 0
AnchorPoint: "Anchor-3" 709 0 basechar 0
LayerCount: 2
Fore
SplineSet
201 0 m 1,0,-1
 41 0 l 1,1,-1
 41 41 l 1,2,3
 90 41 90 41 114.5 51 c 128,-1,4
 139 61 139 61 148.5 83.5 c 128,-1,5
 158 106 158 106 158 147 c 2,6,-1
 158 836 l 1,7,-1
 47 899 l 1,8,-1
 47 899 l 1,9,-1
 559 1141 l 1,10,-1
 559 1055 l 1,11,-1
 559 147 l 2,12,13
 559 104 559 104 567 82.5 c 128,-1,14
 575 61 575 61 595.5 51 c 128,-1,15
 616 41 616 41 659 41 c 1,16,-1
 659 0 l 1,17,-1
 522 0 l 1,18,-1
 201 0 l 1,0,-1
891 0 m 1,19,-1
 739 0 l 1,20,-1
 739 41 l 1,21,22
 786 41 786 41 810 51 c 128,-1,23
 834 61 834 61 842 82.5 c 128,-1,24
 850 104 850 104 850 147 c 2,25,-1
 850 717 l 2,26,27
 850 795 850 795 809 836 c 128,-1,28
 768 877 768 877 692 877 c 0,29,30
 647 877 647 877 611 868.5 c 128,-1,31
 575 860 575 860 545 844 c 1,32,-1
 545 860 l 1,33,34
 619 954 619 954 732.5 1019.5 c 128,-1,35
 846 1085 846 1085 965 1085 c 0,36,37
 1106 1085 1106 1085 1178.5 1002.5 c 128,-1,38
 1251 920 1251 920 1251 754 c 2,39,-1
 1251 147 l 2,40,41
 1251 104 1251 104 1259.5 82.5 c 128,-1,42
 1268 61 1268 61 1291.5 51 c 128,-1,43
 1315 41 1315 41 1362 41 c 1,44,-1
 1362 0 l 1,45,-1
 1210 0 l 1,46,-1
 891 0 l 1,19,-1
EndSplineSet
Validated: 5
Substitution2: "'smcp' Lowercase to Small Capitals in Latin lookup 25 subtable" n.sc
Substitution2: "'sups' Superscript in Latin lookup 12 subtable" n.sups
AlternateSubs2: "'aalt' Access All Alternates in Latin lookup 1 subtable" n.sc n.sups
EndChar

StartChar: o
Encoding: 111 111 157
Width: 1286
GlyphClass: 2
Flags: W
AnchorPoint: "Anchor-5" 809 0 basechar 0
AnchorPoint: "Anchor-4" 643 1055 basechar 0
AnchorPoint: "Anchor-3" 643 0 basechar 0
LayerCount: 2
Fore
SplineSet
339 44 m 128,-1,1
 201 119 201 119 121 247 c 128,-1,2
 41 375 41 375 41 528 c 256,3,4
 41 682 41 682 121 810 c 128,-1,5
 201 938 201 938 339 1011.5 c 128,-1,6
 477 1085 477 1085 643 1085 c 256,7,8
 809 1085 809 1085 947 1011.5 c 128,-1,9
 1085 938 1085 938 1165 810 c 128,-1,10
 1245 682 1245 682 1245 528 c 256,11,12
 1245 374 1245 374 1165 246.5 c 128,-1,13
 1085 119 1085 119 947 44 c 128,-1,14
 809 -31 809 -31 643 -31 c 256,15,0
 477 -31 477 -31 339 44 c 128,-1,1
734 68.5 m 128,-1,17
 772 127 772 127 790.5 242.5 c 128,-1,18
 809 358 809 358 809 528 c 0,19,20
 809 696 809 696 790.5 812 c 128,-1,21
 772 928 772 928 734 986 c 128,-1,22
 696 1044 696 1044 643 1044 c 256,23,24
 590 1044 590 1044 552 986 c 128,-1,25
 514 928 514 928 495.5 812 c 128,-1,26
 477 696 477 696 477 528 c 0,27,28
 477 358 477 358 495.5 242.5 c 128,-1,29
 514 127 514 127 552 68.5 c 128,-1,30
 590 10 590 10 643 10 c 256,31,16
 696 10 696 10 734 68.5 c 128,-1,17
EndSplineSet
Validated: 1
Substitution2: "Single Substitution lookup 36 subtable" ordmasculine
Substitution2: "'smcp' Lowercase to Small Capitals in Latin lookup 25 subtable" o.sc
Substitution2: "'sups' Superscript in Latin lookup 12 subtable" o.sups
AlternateSubs2: "'aalt' Access All Alternates in Latin lookup 1 subtable" ordmasculine o.sc o.sups
EndChar

StartChar: p
Encoding: 112 112 158
Width: 1343
GlyphClass: 2
Flags: W
AnchorPoint: "Anchor-4" 678 1055 basechar 0
AnchorPoint: "Anchor-3" 678 0 basechar 0
LayerCount: 2
Fore
SplineSet
531.5 -11.5 m 128,-1,1
 436 8 436 8 338 51 c 128,-1,2
 240 94 240 94 172 164 c 1,3,-1
 553 211 l 1,4,5
 553 115 553 115 587 67.5 c 128,-1,6
 621 20 621 20 686 20 c 256,7,8
 752 20 752 20 800 76.5 c 128,-1,9
 848 133 848 133 872.5 232.5 c 128,-1,10
 897 332 897 332 897 457 c 0,11,12
 897 596 897 596 869.5 689 c 128,-1,13
 842 782 842 782 788.5 829.5 c 128,-1,14
 735 877 735 877 662 877 c 0,15,16
 633 877 633 877 602 868.5 c 128,-1,17
 571 860 571 860 541 844 c 1,18,-1
 541 860 l 1,19,20
 598 950 598 950 704.5 1017.5 c 128,-1,21
 811 1085 811 1085 920 1085 c 0,22,23
 1020 1085 1020 1085 1107 1031 c 128,-1,24
 1194 977 1194 977 1248.5 868.5 c 128,-1,25
 1303 760 1303 760 1303 604 c 0,26,27
 1303 426 1303 426 1223 280.5 c 128,-1,28
 1143 135 1143 135 1002.5 52 c 128,-1,29
 862 -31 862 -31 690 -31 c 0,30,0
 627 -31 627 -31 531.5 -11.5 c 128,-1,1
193 -379 m 1,31,-1
 41 -379 l 1,32,-1
 41 -338 l 1,33,34
 88 -338 88 -338 111.5 -327.5 c 128,-1,35
 135 -317 135 -317 143.5 -295.5 c 128,-1,36
 152 -274 152 -274 152 -231 c 2,37,-1
 152 836 l 1,38,-1
 41 899 l 1,39,-1
 41 899 l 1,40,-1
 553 1141 l 1,41,-1
 553 1055 l 1,42,-1
 553 -231 l 2,43,44
 553 -272 553 -272 566.5 -294.5 c 128,-1,45
 580 -317 580 -317 614.5 -327.5 c 128,-1,46
 649 -338 649 -338 719 -338 c 1,47,-1
 719 -379 l 1,48,-1
 492 -379 l 1,49,-1
 193 -379 l 1,31,-1
EndSplineSet
Validated: 5
Substitution2: "'smcp' Lowercase to Small Capitals in Latin lookup 25 subtable" p.sc
Substitution2: "'sups' Superscript in Latin lookup 12 subtable" p.sups
AlternateSubs2: "'aalt' Access All Alternates in Latin lookup 1 subtable" p.sc p.sups
EndChar

StartChar: q
Encoding: 113 113 159
Width: 1302
GlyphClass: 2
Flags: W
AnchorPoint: "Anchor-4" 649 1055 basechar 0
AnchorPoint: "Anchor-3" 649 0 basechar 0
LayerCount: 2
Fore
SplineSet
852 -379 m 1,0,-1
 625 -379 l 1,1,-1
 625 -338 l 1,2,3
 695 -338 695 -338 729.5 -327.5 c 128,-1,4
 764 -317 764 -317 777.5 -295.5 c 128,-1,5
 791 -274 791 -274 791 -231 c 2,6,-1
 791 844 l 2,7,8
 791 930 791 930 756 982 c 128,-1,9
 721 1034 721 1034 659 1034 c 0,10,11
 591 1034 591 1034 543.5 979 c 128,-1,12
 496 924 496 924 471 820.5 c 128,-1,13
 446 717 446 717 446 575 c 0,14,15
 446 452 446 452 476 363 c 128,-1,16
 506 274 506 274 559 226 c 128,-1,17
 612 178 612 178 682 178 c 0,18,19
 715 178 715 178 743.5 186.5 c 128,-1,20
 772 195 772 195 803 211 c 1,21,-1
 803 195 l 1,22,23
 746 105 746 105 642.5 37 c 128,-1,24
 539 -31 539 -31 434 -31 c 0,25,26
 328 -31 328 -31 237.5 28.5 c 128,-1,27
 147 88 147 88 94 200.5 c 128,-1,28
 41 313 41 313 41 467 c 0,29,30
 41 645 41 645 119 786.5 c 128,-1,31
 197 928 197 928 342 1006.5 c 128,-1,32
 487 1085 487 1085 680 1085 c 0,33,34
 795 1085 795 1085 916.5 1052.5 c 128,-1,35
 1038 1020 1038 1020 1151 958 c 1,36,-1
 825 932 l 1,37,-1
 1192 1141 l 1,38,-1
 1192 -231 l 2,39,40
 1192 -274 1192 -274 1200 -295.5 c 128,-1,41
 1208 -317 1208 -317 1231.5 -327.5 c 128,-1,42
 1255 -338 1255 -338 1303 -338 c 1,43,-1
 1303 -379 l 1,44,-1
 1151 -379 l 1,45,-1
 852 -379 l 1,0,-1
EndSplineSet
Validated: 5
Substitution2: "'smcp' Lowercase to Small Capitals in Latin lookup 25 subtable" q.sc
Substitution2: "'sups' Superscript in Latin lookup 12 subtable" q.sups
AlternateSubs2: "'aalt' Access All Alternates in Latin lookup 1 subtable" q.sc q.sups
EndChar

StartChar: r
Encoding: 114 114 160
Width: 929
GlyphClass: 2
Flags: W
AnchorPoint: "Anchor-4" 602 1055 basechar 0
AnchorPoint: "Anchor-3" 358 0 basechar 0
LayerCount: 2
Fore
SplineSet
201 0 m 1,0,-1
 41 0 l 1,1,-1
 41 41 l 1,2,3
 90 41 90 41 114.5 51 c 128,-1,4
 139 61 139 61 148.5 83.5 c 128,-1,5
 158 106 158 106 158 147 c 2,6,-1
 158 836 l 1,7,-1
 47 899 l 1,8,-1
 47 899 l 1,9,-1
 559 1141 l 1,10,-1
 559 1055 l 1,11,-1
 559 147 l 2,12,13
 559 104 559 104 574.5 82.5 c 128,-1,14
 590 61 590 61 632 51 c 128,-1,15
 674 41 674 41 758 41 c 1,16,-1
 758 0 l 1,17,-1
 485 0 l 1,18,-1
 201 0 l 1,0,-1
659.5 993.5 m 128,-1,20
 725 1096 725 1096 807 1096 c 0,21,22
 842 1096 842 1096 873.5 1076.5 c 128,-1,23
 905 1057 905 1057 920 1032 c 1,24,-1
 920 715 l 1,25,26
 875 742 875 742 782 741 c 0,27,28
 725 741 725 741 665.5 723 c 128,-1,29
 606 705 606 705 555 670 c 1,30,-1
 555 690 l 1,31,19
 594 891 594 891 659.5 993.5 c 128,-1,20
EndSplineSet
Validated: 37
Substitution2: "'smcp' Lowercase to Small Capitals in Latin lookup 25 subtable" r.sc
Substitution2: "'sups' Superscript in Latin lookup 12 subtable" r.sups
AlternateSubs2: "'aalt' Access All Alternates in Latin lookup 1 subtable" r.sc r.sups
EndChar

StartChar: s
Encoding: 115 115 161
Width: 1003
GlyphClass: 2
Flags: W
AnchorPoint: "Anchor-4" 526 1055 basechar 0
AnchorPoint: "Anchor-3" 485 0 basechar 0
LayerCount: 2
Fore
SplineSet
258 -7.5 m 128,-1,1
 162 16 162 16 100 51 c 1,2,-1
 51 416 l 1,3,-1
 86 416 l 1,4,5
 147 238 147 238 259 131.5 c 128,-1,6
 371 25 371 25 496 25 c 0,7,8
 578 25 578 25 625 68 c 128,-1,9
 672 111 672 111 672 184 c 0,10,11
 672 237 672 237 639 272 c 128,-1,12
 606 307 606 307 537 330 c 2,13,-1
 338 395 l 2,14,15
 223 434 223 434 161.5 508 c 128,-1,16
 100 582 100 582 100 684 c 0,17,18
 100 793 100 793 166.5 885 c 128,-1,19
 233 977 233 977 346 1031 c 128,-1,20
 459 1085 459 1085 592 1085 c 0,21,22
 668 1085 668 1085 754 1068 c 128,-1,23
 840 1051 840 1051 901 1022 c 1,24,-1
 901 731 l 1,25,-1
 866 731 l 1,26,27
 807 887 807 887 728 959.5 c 128,-1,28
 649 1032 649 1032 541 1032 c 0,29,30
 459 1032 459 1032 409.5 993 c 128,-1,31
 360 954 360 954 360 889 c 0,32,33
 360 844 360 844 391 815 c 128,-1,34
 422 786 422 786 496 762 c 2,35,-1
 694 696 l 2,36,37
 809 657 809 657 870.5 578.5 c 128,-1,38
 932 500 932 500 932 391 c 0,39,40
 932 274 932 274 866.5 178 c 128,-1,41
 801 82 801 82 688 25.5 c 128,-1,42
 575 -31 575 -31 440 -31 c 0,43,0
 354 -31 354 -31 258 -7.5 c 128,-1,1
EndSplineSet
Validated: 1
Substitution2: "'smcp' Lowercase to Small Capitals in Latin lookup 25 subtable" s.sc
Substitution2: "'sups' Superscript in Latin lookup 12 subtable" s.sups
AlternateSubs2: "'aalt' Access All Alternates in Latin lookup 1 subtable" s.sc s.sups
EndChar

StartChar: t
Encoding: 116 116 162
Width: 874
GlyphClass: 2
Flags: W
AnchorPoint: "Anchor-4" 498 1444 basechar 0
AnchorPoint: "Anchor-3" 457 0 basechar 0
LayerCount: 2
Fore
SplineSet
243 58.5 m 128,-1,1
 154 137 154 137 154 319 c 2,2,-1
 154 1008 l 1,3,-1
 406 963 l 1,4,-1
 20 963 l 1,5,-1
 20 963 l 1,6,-1
 555 1393 l 1,7,-1
 555 1393 l 1,8,-1
 555 406 l 2,9,10
 555 304 555 304 593 254.5 c 128,-1,11
 631 205 631 205 698 205 c 0,12,13
 768 205 768 205 844 250 c 1,14,-1
 844 215 l 1,15,16
 774 125 774 125 669.5 52.5 c 128,-1,17
 565 -20 565 -20 459 -20 c 0,18,0
 332 -20 332 -20 243 58.5 c 128,-1,1
504 1055 m 1,19,-1
 834 1055 l 1,20,-1
 834 963 l 1,21,-1
 504 963 l 1,22,-1
 504 1055 l 1,19,-1
EndSplineSet
Validated: 5
Substitution2: "'smcp' Lowercase to Small Capitals in Latin lookup 25 subtable" t.sc
Substitution2: "'sups' Superscript in Latin lookup 12 subtable" t.sups
AlternateSubs2: "'aalt' Access All Alternates in Latin lookup 1 subtable" t.sc t.sups
EndChar

StartChar: u
Encoding: 117 117 163
Width: 1388
GlyphClass: 2
Flags: W
AnchorPoint: "Anchor-5" 899 0 basechar 0
AnchorPoint: "Anchor-4" 678 1055 basechar 0
AnchorPoint: "Anchor-3" 676 0 basechar 0
LayerCount: 2
Fore
SplineSet
214 47 m 128,-1,1
 141 125 141 125 141 264 c 2,2,-1
 141 907 l 2,3,4
 141 950 141 950 133 971.5 c 128,-1,5
 125 993 125 993 101.5 1003.5 c 128,-1,6
 78 1014 78 1014 31 1014 c 1,7,-1
 31 1055 l 1,8,-1
 182 1055 l 1,9,-1
 543 1055 l 1,10,-1
 543 338 l 2,11,12
 543 258 543 258 584 218 c 128,-1,13
 625 178 625 178 698 178 c 0,14,15
 747 178 747 178 783 186.5 c 128,-1,16
 819 195 819 195 848 211 c 1,17,-1
 848 195 l 1,18,19
 789 121 789 121 675 45 c 128,-1,20
 561 -31 561 -31 432 -31 c 0,21,0
 287 -31 287 -31 214 47 c 128,-1,1
827.5 971.5 m 128,-1,23
 819 993 819 993 795.5 1003.5 c 128,-1,24
 772 1014 772 1014 725 1014 c 1,25,-1
 725 1055 l 1,26,-1
 877 1055 l 1,27,-1
 1237 1055 l 1,28,-1
 1237 184 l 1,29,-1
 1348 121 l 1,30,-1
 1348 121 l 1,31,-1
 836 -39 l 1,32,-1
 836 0 l 1,33,-1
 836 907 l 2,34,22
 836 950 836 950 827.5 971.5 c 128,-1,23
EndSplineSet
Validated: 5
Substitution2: "'smcp' Lowercase to Small Capitals in Latin lookup 25 subtable" u.sc
Substitution2: "'sups' Superscript in Latin lookup 12 subtable" u.sups
AlternateSubs2: "'aalt' Access All Alternates in Latin lookup 1 subtable" u.sc u.sups
EndChar

StartChar: v
Encoding: 118 118 164
Width: 1187
GlyphClass: 2
Flags: W
AnchorPoint: "Anchor-4" 594 1055 basechar 0
AnchorPoint: "Anchor-3" 594 0 basechar 0
LayerCount: 2
Fore
SplineSet
97.5 975.5 m 128,-1,1
 84 995 84 995 64.5 1004.5 c 128,-1,2
 45 1014 45 1014 10 1014 c 1,3,-1
 10 1055 l 1,4,-1
 655 1055 l 1,5,-1
 655 1014 l 1,6,7
 600 1014 600 1014 574.5 1002.5 c 128,-1,8
 549 991 549 991 549 965 c 0,9,10
 549 947 549 947 580 879 c 2,11,-1
 784 412 l 1,12,-1
 766 412 l 1,13,-1
 950 874 l 2,14,15
 977 940 977 940 977 963 c 0,16,17
 977 990 977 990 951.5 1002 c 128,-1,18
 926 1014 926 1014 870 1014 c 1,19,-1
 870 1055 l 1,20,-1
 1178 1055 l 1,21,-1
 1178 1014 l 1,22,23
 1141 1014 1141 1014 1121.5 1004.5 c 128,-1,24
 1102 995 1102 995 1089.5 975.5 c 128,-1,25
 1077 956 1077 956 1059 913 c 2,26,-1
 625 -31 l 1,27,-1
 584 -31 l 1,28,-1
 131 915 l 2,29,0
 111 956 111 956 97.5 975.5 c 128,-1,1
EndSplineSet
Validated: 5
Substitution2: "'smcp' Lowercase to Small Capitals in Latin lookup 25 subtable" v.sc
Substitution2: "'sups' Superscript in Latin lookup 12 subtable" v.sups
AlternateSubs2: "'aalt' Access All Alternates in Latin lookup 1 subtable" v.sc v.sups
EndChar

StartChar: w
Encoding: 119 119 165
Width: 1718
GlyphClass: 2
Flags: W
AnchorPoint: "Anchor-4" 1034 1055 basechar 0
AnchorPoint: "Anchor-3" 838 0 basechar 0
LayerCount: 2
Fore
SplineSet
108.5 975.5 m 128,-1,1
 96 995 96 995 76.5 1004.5 c 128,-1,2
 57 1014 57 1014 20 1014 c 1,3,-1
 20 1055 l 1,4,-1
 680 1055 l 1,5,-1
 680 1014 l 1,6,7
 608 1014 608 1014 580.5 1003.5 c 128,-1,8
 553 993 553 993 553 958 c 0,9,10
 553 938 553 938 578 872 c 2,11,-1
 752 403 l 1,12,-1
 725 399 l 1,13,-1
 1018 1067 l 1,14,-1
 1049 1067 l 1,15,-1
 1358 391 l 1,16,-1
 1327 381 l 1,17,-1
 1483 872 l 2,18,19
 1501 931 1501 931 1501 954 c 0,20,21
 1501 991 1501 991 1473.5 1002.5 c 128,-1,22
 1446 1014 1446 1014 1372 1014 c 1,23,-1
 1372 1055 l 1,24,-1
 1698 1055 l 1,25,-1
 1698 1014 l 1,26,27
 1661 1014 1661 1014 1641.5 1004.5 c 128,-1,28
 1622 995 1622 995 1609.5 974.5 c 128,-1,29
 1597 954 1597 954 1581 911 c 2,30,-1
 1219 -31 l 1,31,-1
 1178 -31 l 1,32,-1
 846 647 l 1,33,-1
 893 651 l 1,34,-1
 592 -31 l 1,35,-1
 551 -31 l 1,36,-1
 139 913 l 2,37,0
 121 956 121 956 108.5 975.5 c 128,-1,1
EndSplineSet
Validated: 5
Substitution2: "'smcp' Lowercase to Small Capitals in Latin lookup 25 subtable" w.sc
Substitution2: "'sups' Superscript in Latin lookup 12 subtable" w.sups
AlternateSubs2: "'aalt' Access All Alternates in Latin lookup 1 subtable" w.sc w.sups
EndChar

StartChar: x
Encoding: 120 120 166
Width: 1286
GlyphClass: 2
Flags: W
AnchorPoint: "Anchor-4" 592 1055 basechar 0
AnchorPoint: "Anchor-3" 592 0 basechar 0
LayerCount: 2
Fore
SplineSet
672.5 50 m 128,-1,1
 696 59 696 59 696 84 c 0,2,3
 696 96 696 96 692 108.5 c 128,-1,4
 688 121 688 121 680 135 c 2,5,-1
 475 461 l 1,6,-1
 154 922 l 2,7,8
 125 961 125 961 106.5 979 c 128,-1,9
 88 997 88 997 68.5 1005.5 c 128,-1,10
 49 1014 49 1014 20 1014 c 1,11,-1
 20 1055 l 1,12,-1
 698 1055 l 1,13,-1
 698 1014 l 1,14,15
 637 1014 637 1014 611.5 1005.5 c 128,-1,16
 586 997 586 997 586 971 c 0,17,18
 586 961 586 961 592 947.5 c 128,-1,19
 598 934 598 934 606 920 c 2,20,-1
 786 637 l 1,21,-1
 1135 133 l 2,22,23
 1162 94 1162 94 1178 75.5 c 128,-1,24
 1194 57 1194 57 1214.5 49 c 128,-1,25
 1235 41 1235 41 1266 41 c 1,26,-1
 1266 0 l 1,27,-1
 588 0 l 1,28,-1
 588 41 l 1,29,0
 649 41 649 41 672.5 50 c 128,-1,1
69.5 48 m 128,-1,31
 88 55 88 55 106.5 72.5 c 128,-1,32
 125 90 125 90 160 129 c 2,33,-1
 502 514 l 1,34,-1
 518 463 l 1,35,-1
 272 133 l 2,36,37
 260 117 260 117 256 106.5 c 128,-1,38
 252 96 252 96 252 84 c 0,39,40
 252 61 252 61 275.5 51 c 128,-1,41
 299 41 299 41 350 41 c 1,42,-1
 350 0 l 1,43,-1
 23 0 l 1,44,-1
 23 41 l 1,45,30
 51 41 51 41 69.5 48 c 128,-1,31
737 608 m 1,46,-1
 961 922 l 2,47,48
 973 938 973 938 979 951.5 c 128,-1,49
 985 965 985 965 985 975 c 0,50,51
 985 998 985 998 962.5 1006 c 128,-1,52
 940 1014 940 1014 887 1014 c 1,53,-1
 887 1055 l 1,54,-1
 1208 1055 l 1,55,-1
 1208 1014 l 1,56,57
 1177 1014 1177 1014 1159 1006.5 c 128,-1,58
 1141 999 1141 999 1121.5 982 c 128,-1,59
 1102 965 1102 965 1069 926 c 2,60,-1
 764 573 l 1,61,-1
 737 608 l 1,46,-1
EndSplineSet
Validated: 5
Substitution2: "'smcp' Lowercase to Small Capitals in Latin lookup 25 subtable" x.sc
Substitution2: "'sups' Superscript in Latin lookup 12 subtable" x.sups
AlternateSubs2: "'aalt' Access All Alternates in Latin lookup 1 subtable" x.sc x.sups
EndChar

StartChar: y
Encoding: 121 121 167
Width: 1200
GlyphClass: 2
Flags: W
AnchorPoint: "Anchor-4" 725 1055 basechar 0
AnchorPoint: "Anchor-3" 651 0 basechar 0
LayerCount: 2
Fore
SplineSet
132 -361.5 m 128,-1,1
 76 -324 76 -324 10 -229 c 1,2,-1
 10 -78 l 1,3,4
 86 -111 86 -111 143.5 -123 c 128,-1,5
 201 -135 201 -135 281 -135 c 0,6,7
 365 -135 365 -135 428.5 -109.5 c 128,-1,8
 492 -84 492 -84 540 -28.5 c 128,-1,9
 588 27 588 27 629 115 c 1,10,-1
 608 20 l 1,11,-1
 143 915 l 2,12,13
 120 958 120 958 104 978.5 c 128,-1,14
 88 999 88 999 69.5 1006.5 c 128,-1,15
 51 1014 51 1014 20 1014 c 1,16,-1
 20 1055 l 1,17,-1
 657 1055 l 1,18,-1
 657 1014 l 1,19,20
 608 1014 608 1014 585.5 1002.5 c 128,-1,21
 563 991 563 991 563 967 c 0,22,23
 563 944 563 944 578 913 c 2,24,-1
 803 424 l 1,25,-1
 770 424 l 1,26,-1
 977 913 l 2,27,28
 991 944 991 944 991 965 c 0,29,30
 991 992 991 992 968.5 1003 c 128,-1,31
 946 1014 946 1014 895 1014 c 1,32,-1
 895 1055 l 1,33,-1
 1190 1055 l 1,34,-1
 1190 1014 l 1,35,36
 1157 1014 1157 1014 1138.5 1006.5 c 128,-1,37
 1120 999 1120 999 1105 978.5 c 128,-1,38
 1090 958 1090 958 1069 915 c 2,39,-1
 530 -199 l 2,40,41
 483 -295 483 -295 412.5 -347 c 128,-1,42
 342 -399 342 -399 260 -399 c 0,43,0
 188 -399 188 -399 132 -361.5 c 128,-1,1
EndSplineSet
Validated: 5
Substitution2: "'smcp' Lowercase to Small Capitals in Latin lookup 25 subtable" y.sc
Substitution2: "'sups' Superscript in Latin lookup 12 subtable" y.sups
AlternateSubs2: "'aalt' Access All Alternates in Latin lookup 1 subtable" y.sc y.sups
EndChar

StartChar: z
Encoding: 122 122 168
Width: 1107
GlyphClass: 2
Flags: W
AnchorPoint: "Anchor-4" 559 1055 basechar 0
AnchorPoint: "Anchor-3" 436 0 basechar 0
LayerCount: 2
Fore
SplineSet
41 20 m 1,0,-1
 588 1042 l 1,1,-1
 723 1004 l 1,2,-1
 477 1004 l 2,3,4
 393 1004 393 1004 323.5 980 c 128,-1,5
 254 956 254 956 196.5 895 c 128,-1,6
 139 834 139 834 100 725 c 1,7,-1
 68 725 l 1,8,-1
 106 1055 l 1,9,-1
 1018 1055 l 1,10,-1
 1018 1034 l 1,11,-1
 471 12 l 1,12,-1
 336 51 l 1,13,-1
 578 51 l 2,14,15
 674 51 674 51 756 88 c 128,-1,16
 838 125 838 125 911.5 205 c 128,-1,17
 985 285 985 285 1047 412 c 1,18,-1
 1077 412 l 1,19,-1
 967 0 l 1,20,-1
 41 0 l 1,21,-1
 41 20 l 1,0,-1
EndSplineSet
Validated: 5
Substitution2: "'smcp' Lowercase to Small Capitals in Latin lookup 25 subtable" z.sc
Substitution2: "'sups' Superscript in Latin lookup 12 subtable" z.sups
AlternateSubs2: "'aalt' Access All Alternates in Latin lookup 1 subtable" z.sc z.sups
EndChar

StartChar: ae
Encoding: 230 230 174
Width: 1689
GlyphClass: 2
Flags: W
AnchorPoint: "Anchor-4" 840 1055 basechar 0
AnchorPoint: "Anchor-3" 840 0 basechar 0
LayerCount: 2
Fore
SplineSet
875.5 36.5 m 128,-1,1
 756 104 756 104 689.5 222 c 128,-1,2
 623 340 623 340 623 485 c 0,3,4
 623 587 623 587 653.5 682.5 c 128,-1,5
 684 778 684 778 741 858 c 1,6,-1
 741 858 l 1,7,8
 819 964 819 964 933 1024.5 c 128,-1,9
 1047 1085 1047 1085 1176 1085 c 0,10,11
 1362 1085 1362 1085 1480.5 971.5 c 128,-1,12
 1599 858 1599 858 1640 690 c 1,13,-1
 754 690 l 1,14,-1
 754 741 l 1,15,-1
 1329 741 l 1,16,-1
 1276 731 l 1,17,18
 1276 893 1276 893 1238 967.5 c 128,-1,19
 1200 1042 1200 1042 1137 1042 c 0,20,21
 1061 1042 1061 1042 1019 956 c 128,-1,22
 977 870 977 870 977 700 c 0,23,24
 977 555 977 555 1020 451.5 c 128,-1,25
 1063 348 1063 348 1146 293 c 128,-1,26
 1229 238 1229 238 1346 238 c 0,27,28
 1444 238 1444 238 1520.5 267.5 c 128,-1,29
 1597 297 1597 297 1659 358 c 1,30,-1
 1659 324 l 1,31,32
 1573 144 1573 144 1446 56.5 c 128,-1,33
 1319 -31 1319 -31 1147 -31 c 0,34,0
 995 -31 995 -31 875.5 36.5 c 128,-1,1
176.5 4 m 128,-1,36
 113 39 113 39 77 97.5 c 128,-1,37
 41 156 41 156 41 225 c 0,38,39
 41 311 41 311 93 365.5 c 128,-1,40
 145 420 145 420 264 461 c 2,41,-1
 635 594 l 1,42,-1
 635 539 l 1,43,-1
 580 518 l 2,44,45
 517 493 517 493 485 448 c 128,-1,46
 453 403 453 403 453 338 c 256,47,48
 453 272 453 272 486.5 234.5 c 128,-1,49
 520 197 520 197 573 197 c 0,50,51
 616 197 616 197 651 211 c 128,-1,52
 686 225 686 225 709 256 c 1,53,-1
 709 233 l 1,54,55
 639 102 639 102 544 35.5 c 128,-1,56
 449 -31 449 -31 317 -31 c 0,57,35
 240 -31 240 -31 176.5 4 c 128,-1,36
609.5 951.5 m 128,-1,59
 596 981 596 981 563 981 c 0,60,61
 528 981 528 981 507.5 957.5 c 128,-1,62
 487 934 487 934 476 866.5 c 128,-1,63
 465 799 465 799 465 668 c 1,64,-1
 41 668 l 1,65,66
 234 871 234 871 415 978 c 128,-1,67
 596 1085 596 1085 758 1085 c 0,68,69
 852 1085 852 1085 901 1035 c 128,-1,70
 950 985 950 985 983 874 c 1,71,-1
 623 485 l 1,72,-1
 623 850 l 2,73,58
 623 922 623 922 609.5 951.5 c 128,-1,59
EndSplineSet
Validated: 5
Substitution2: "'smcp' Lowercase to Small Capitals in Latin lookup 25 subtable" ae.sc
Substitution2: "'aalt' Access All Alternates in Latin lookup 0 subtable" ae.sc
EndChar

StartChar: dcaron
Encoding: 271 271 186
Width: 1333
GlyphClass: 2
Flags: W
AnchorPoint: "Anchor-4" 621 1444 basechar 0
AnchorPoint: "Anchor-3" 621 0 basechar 0
LayerCount: 2
Fore
SplineSet
237.5 28.5 m 128,-1,1
 147 88 147 88 94 200.5 c 128,-1,2
 41 313 41 313 41 467 c 0,3,4
 41 647 41 647 119 787.5 c 128,-1,5
 197 928 197 928 343 1006.5 c 128,-1,6
 489 1085 489 1085 688 1085 c 0,7,8
 768 1085 768 1085 909.5 1044.5 c 128,-1,9
 1051 1004 1051 1004 1151 932 c 1,10,-1
 791 1012 l 1,11,-1
 791 1333 l 1,12,-1
 680 1397 l 1,13,-1
 680 1397 l 1,14,-1
 1192 1638 l 1,15,-1
 1192 1552 l 1,16,-1
 1192 184 l 1,17,-1
 1303 121 l 1,18,-1
 1303 121 l 1,19,-1
 791 -39 l 1,20,-1
 791 0 l 1,21,-1
 791 844 l 2,22,23
 791 942 791 942 757 988 c 128,-1,24
 723 1034 723 1034 659 1034 c 0,25,26
 591 1034 591 1034 543.5 980 c 128,-1,27
 496 926 496 926 471 826.5 c 128,-1,28
 446 727 446 727 446 596 c 256,29,30
 446 465 446 465 476 370.5 c 128,-1,31
 506 276 506 276 559 227 c 128,-1,32
 612 178 612 178 682 178 c 0,33,34
 715 178 715 178 743.5 186.5 c 128,-1,35
 772 195 772 195 803 211 c 1,36,-1
 803 195 l 1,37,38
 746 105 746 105 642.5 37 c 128,-1,39
 539 -31 539 -31 434 -31 c 0,40,0
 328 -31 328 -31 237.5 28.5 c 128,-1,1
1365 1306.5 m 128,-1,42
 1384 1378 1384 1378 1367 1433.5 c 128,-1,43
 1350 1489 1350 1489 1296 1524 c 1,44,45
 1316 1577 1316 1577 1355.5 1607.5 c 128,-1,46
 1395 1638 1395 1638 1460 1638 c 0,47,48
 1534 1638 1534 1638 1577 1596 c 128,-1,49
 1620 1554 1620 1554 1620 1481 c 0,50,51
 1620 1405 1620 1405 1545 1317 c 128,-1,52
 1470 1229 1470 1229 1329 1153 c 1,53,-1
 1292 1153 l 1,54,41
 1346 1235 1346 1235 1365 1306.5 c 128,-1,42
EndSplineSet
Validated: 37
Substitution2: "'smcp' Lowercase to Small Capitals in Latin lookup 25 subtable" dcaron.sc
Substitution2: "'aalt' Access All Alternates in Latin lookup 0 subtable" dcaron.sc
EndChar

StartChar: dcroat
Encoding: 273 273 187
Width: 1333
GlyphClass: 1
Flags: W
LayerCount: 2
Fore
SplineSet
237.5 28.5 m 128,-1,1
 147 88 147 88 94 200.5 c 128,-1,2
 41 313 41 313 41 467 c 0,3,4
 41 647 41 647 119 787.5 c 128,-1,5
 197 928 197 928 343 1006.5 c 128,-1,6
 489 1085 489 1085 688 1085 c 0,7,8
 768 1085 768 1085 909.5 1044.5 c 128,-1,9
 1051 1004 1051 1004 1151 932 c 1,10,-1
 791 1012 l 1,11,-1
 791 1333 l 1,12,-1
 680 1397 l 1,13,-1
 680 1397 l 1,14,-1
 1192 1638 l 1,15,-1
 1192 184 l 1,16,-1
 1303 121 l 1,17,-1
 1303 121 l 1,18,-1
 791 -39 l 1,19,-1
 791 0 l 1,20,-1
 791 844 l 2,21,22
 791 942 791 942 757 988 c 128,-1,23
 723 1034 723 1034 659 1034 c 0,24,25
 591 1034 591 1034 543.5 980 c 128,-1,26
 496 926 496 926 471 826.5 c 128,-1,27
 446 727 446 727 446 596 c 256,28,29
 446 465 446 465 476 370.5 c 128,-1,30
 506 276 506 276 559 227 c 128,-1,31
 612 178 612 178 682 178 c 0,32,33
 715 178 715 178 743.5 186.5 c 128,-1,34
 772 195 772 195 803 211 c 1,35,-1
 803 195 l 1,36,37
 746 105 746 105 642.5 37 c 128,-1,38
 539 -31 539 -31 434 -31 c 0,39,0
 328 -31 328 -31 237.5 28.5 c 128,-1,1
485 1239 m 1,40,-1
 1298 1239 l 1,41,-1
 1298 1178 l 1,42,-1
 485 1178 l 1,43,-1
 485 1239 l 1,40,-1
EndSplineSet
Validated: 5
Substitution2: "'smcp' Lowercase to Small Capitals in Latin lookup 25 subtable" dcroat.sc
Substitution2: "'aalt' Access All Alternates in Latin lookup 0 subtable" dcroat.sc
EndChar

StartChar: hbar
Encoding: 295 295 204
Width: 1386
GlyphClass: 2
Flags: W
AnchorPoint: "Anchor-4" 694 1618 basechar 0
AnchorPoint: "Anchor-3" 694 0 basechar 0
LayerCount: 2
Fore
SplineSet
193 0 m 1,0,-1
 41 0 l 1,1,-1
 41 41 l 1,2,3
 88 41 88 41 111.5 51 c 128,-1,4
 135 61 135 61 143.5 82.5 c 128,-1,5
 152 104 152 104 152 147 c 2,6,-1
 152 1333 l 1,7,-1
 41 1397 l 1,8,-1
 41 1397 l 1,9,-1
 553 1638 l 1,10,-1
 553 1552 l 1,11,-1
 553 147 l 2,12,13
 553 104 553 104 561 82.5 c 128,-1,14
 569 61 569 61 592.5 51 c 128,-1,15
 616 41 616 41 664 41 c 1,16,-1
 664 0 l 1,17,-1
 512 0 l 1,18,-1
 193 0 l 1,0,-1
885 0 m 1,19,-1
 733 0 l 1,20,-1
 733 41 l 1,21,22
 780 41 780 41 803.5 51 c 128,-1,23
 827 61 827 61 835.5 82.5 c 128,-1,24
 844 104 844 104 844 147 c 2,25,-1
 844 717 l 2,26,27
 844 795 844 795 803 836 c 128,-1,28
 762 877 762 877 686 877 c 0,29,30
 641 877 641 877 605 868.5 c 128,-1,31
 569 860 569 860 539 844 c 1,32,-1
 539 860 l 1,33,34
 613 954 613 954 726.5 1019.5 c 128,-1,35
 840 1085 840 1085 958 1085 c 0,36,37
 1099 1085 1099 1085 1172 1002.5 c 128,-1,38
 1245 920 1245 920 1245 754 c 2,39,-1
 1245 147 l 2,40,41
 1245 104 1245 104 1253.5 82.5 c 128,-1,42
 1262 61 1262 61 1285.5 51 c 128,-1,43
 1309 41 1309 41 1356 41 c 1,44,-1
 1356 0 l 1,45,-1
 1204 0 l 1,46,-1
 885 0 l 1,19,-1
43 1239 m 1,47,-1
 856 1239 l 1,48,-1
 856 1178 l 1,49,-1
 43 1178 l 1,50,-1
 43 1239 l 1,47,-1
EndSplineSet
Validated: 5
Substitution2: "'smcp' Lowercase to Small Capitals in Latin lookup 25 subtable" hbar.sc
Substitution2: "'aalt' Access All Alternates in Latin lookup 0 subtable" hbar.sc
EndChar

StartChar: dotlessi
Encoding: 305 305 212
Width: 694
GlyphClass: 2
Flags: W
AnchorPoint: "Anchor-5" 553 0 basechar 0
AnchorPoint: "Anchor-4" 352 1055 basechar 0
AnchorPoint: "Anchor-3" 352 0 basechar 0
LayerCount: 2
Fore
SplineSet
193 0 m 1,0,-1
 41 0 l 1,1,-1
 41 41 l 1,2,3
 88 41 88 41 111.5 51 c 128,-1,4
 135 61 135 61 143.5 82.5 c 128,-1,5
 152 104 152 104 152 147 c 2,6,-1
 152 836 l 1,7,-1
 41 899 l 1,8,-1
 41 899 l 1,9,-1
 553 1141 l 1,10,-1
 553 1055 l 1,11,-1
 553 147 l 2,12,13
 553 104 553 104 561 82.5 c 128,-1,14
 569 61 569 61 592.5 51 c 128,-1,15
 616 41 616 41 664 41 c 1,16,-1
 664 0 l 1,17,-1
 512 0 l 1,18,-1
 193 0 l 1,0,-1
EndSplineSet
Validated: 5
Substitution2: "'smcp' Lowercase to Small Capitals in Latin lookup 25 subtable" i.sc
Substitution2: "'aalt' Access All Alternates in Latin lookup 0 subtable" i.sc
EndChar

StartChar: uni0237
Encoding: 567 567 220
Width: 655
GlyphClass: 2
Flags: W
AnchorPoint: "Anchor-4" 332 1055 basechar 0
AnchorPoint: "Anchor-3" 377 0 basechar 0
LayerCount: 2
Fore
SplineSet
94 -116 m 128,-1,1
 131 14 131 14 131 160 c 2,2,-1
 131 836 l 1,3,-1
 20 899 l 1,4,-1
 20 899 l 1,5,-1
 532 1141 l 1,6,-1
 532 1055 l 1,7,-1
 532 287 l 2,8,9
 532 137 532 137 447 0 c 128,-1,10
 362 -137 362 -137 242.5 -235.5 c 128,-1,11
 123 -334 123 -334 18 -379 c 1,12,-1
 -25 -379 l 1,13,0
 57 -246 57 -246 94 -116 c 128,-1,1
EndSplineSet
Validated: 5
Substitution2: "'smcp' Lowercase to Small Capitals in Latin lookup 25 subtable" j.sc
Substitution2: "'aalt' Access All Alternates in Latin lookup 0 subtable" j.sc
EndChar

StartChar: lcaron
Encoding: 318 318 223
Width: 704
GlyphClass: 2
Flags: W
AnchorPoint: "Anchor-4" 352 1618 basechar 0
AnchorPoint: "Anchor-3" 352 0 basechar 0
LayerCount: 2
Fore
SplineSet
193 0 m 1,0,-1
 41 0 l 1,1,-1
 41 41 l 1,2,3
 88 41 88 41 111.5 51 c 128,-1,4
 135 61 135 61 143.5 82.5 c 128,-1,5
 152 104 152 104 152 147 c 2,6,-1
 152 1333 l 1,7,-1
 41 1397 l 1,8,-1
 41 1397 l 1,9,-1
 553 1638 l 1,10,-1
 553 1552 l 1,11,-1
 553 147 l 2,12,13
 553 104 553 104 561 82.5 c 128,-1,14
 569 61 569 61 592.5 51 c 128,-1,15
 616 41 616 41 664 41 c 1,16,-1
 664 0 l 1,17,-1
 512 0 l 1,18,-1
 193 0 l 1,0,-1
726 1306.5 m 128,-1,20
 745 1378 745 1378 728 1433.5 c 128,-1,21
 711 1489 711 1489 657 1524 c 1,22,23
 677 1577 677 1577 716.5 1607.5 c 128,-1,24
 756 1638 756 1638 821 1638 c 0,25,26
 895 1638 895 1638 938 1596 c 128,-1,27
 981 1554 981 1554 981 1481 c 0,28,29
 981 1405 981 1405 906 1317 c 128,-1,30
 831 1229 831 1229 690 1153 c 1,31,-1
 653 1153 l 1,32,19
 707 1235 707 1235 726 1306.5 c 128,-1,20
EndSplineSet
Validated: 37
Substitution2: "'smcp' Lowercase to Small Capitals in Latin lookup 25 subtable" lcaron.sc
Substitution2: "'aalt' Access All Alternates in Latin lookup 0 subtable" lcaron.sc
EndChar

StartChar: ldot
Encoding: 320 320 225
Width: 835
GlyphClass: 2
Flags: W
AnchorPoint: "Anchor-4" 352 1618 basechar 0
AnchorPoint: "Anchor-3" 352 0 basechar 0
LayerCount: 2
Fore
SplineSet
193 0 m 1,0,-1
 41 0 l 1,1,-1
 41 41 l 1,2,3
 88 41 88 41 111.5 51 c 128,-1,4
 135 61 135 61 143.5 82.5 c 128,-1,5
 152 104 152 104 152 147 c 2,6,-1
 152 1333 l 1,7,-1
 41 1397 l 1,8,-1
 41 1397 l 1,9,-1
 553 1638 l 1,10,-1
 553 1552 l 1,11,-1
 553 147 l 2,12,13
 553 104 553 104 561 82.5 c 128,-1,14
 569 61 569 61 592.5 51 c 128,-1,15
 616 41 616 41 664 41 c 1,16,-1
 664 0 l 1,17,-1
 512 0 l 1,18,-1
 193 0 l 1,0,-1
656.5 683 m 128,-1,20
 608 731 608 731 608 801 c 256,21,22
 608 871 608 871 656.5 918 c 128,-1,23
 705 965 705 965 776 965 c 0,24,25
 844 965 844 965 891 917.5 c 128,-1,26
 938 870 938 870 938 801 c 256,27,28
 938 731 938 731 891 683 c 128,-1,29
 844 635 844 635 776 635 c 0,30,19
 705 635 705 635 656.5 683 c 128,-1,20
EndSplineSet
Validated: 5
Ligature2: "Ligature Substitution lookup 33 subtable" l periodcentered
Substitution2: "'smcp' Lowercase to Small Capitals in Latin lookup 25 subtable" ldot.sc
Substitution2: "'aalt' Access All Alternates in Latin lookup 0 subtable" ldot.sc
EndChar

StartChar: lslash
Encoding: 322 322 226
Width: 704
GlyphClass: 2
Flags: W
AnchorPoint: "Anchor-4" 352 1618 basechar 0
AnchorPoint: "Anchor-3" 352 0 basechar 0
LayerCount: 2
Fore
SplineSet
193 0 m 1,0,-1
 41 0 l 1,1,-1
 41 41 l 1,2,3
 88 41 88 41 111.5 51 c 128,-1,4
 135 61 135 61 143.5 82.5 c 128,-1,5
 152 104 152 104 152 147 c 2,6,-1
 152 1333 l 1,7,-1
 41 1397 l 1,8,-1
 41 1397 l 1,9,-1
 553 1638 l 1,10,-1
 553 1552 l 1,11,-1
 553 147 l 2,12,13
 553 104 553 104 561 82.5 c 128,-1,14
 569 61 569 61 592.5 51 c 128,-1,15
 616 41 616 41 664 41 c 1,16,-1
 664 0 l 1,17,-1
 512 0 l 1,18,-1
 193 0 l 1,0,-1
37 604 m 1,19,-1
 668 946 l 1,20,-1
 668 862 l 1,21,-1
 37 520 l 1,22,-1
 37 604 l 1,19,-1
EndSplineSet
Validated: 5
Substitution2: "'smcp' Lowercase to Small Capitals in Latin lookup 25 subtable" lslash.sc
Substitution2: "'aalt' Access All Alternates in Latin lookup 0 subtable" lslash.sc
EndChar

StartChar: eng
Encoding: 331 331 231
Width: 1374
GlyphClass: 2
Flags: W
AnchorPoint: "Anchor-4" 692 1055 basechar 0
AnchorPoint: "Anchor-3" 692 -379 basechar 0
LayerCount: 2
Fore
SplineSet
817 -120 m 128,-1,1
 850 8 850 8 850 160 c 2,2,-1
 850 717 l 2,3,4
 850 795 850 795 809 836 c 128,-1,5
 768 877 768 877 692 877 c 0,6,7
 647 877 647 877 611 868.5 c 128,-1,8
 575 860 575 860 545 844 c 1,9,-1
 545 860 l 1,10,11
 619 954 619 954 732.5 1019.5 c 128,-1,12
 846 1085 846 1085 965 1085 c 0,13,14
 1106 1085 1106 1085 1178.5 1002.5 c 128,-1,15
 1251 920 1251 920 1251 754 c 2,16,-1
 1251 287 l 2,17,18
 1251 137 1251 137 1168 0 c 128,-1,19
 1085 -137 1085 -137 968.5 -235.5 c 128,-1,20
 852 -334 852 -334 748 -379 c 1,21,-1
 705 -379 l 1,22,0
 784 -248 784 -248 817 -120 c 128,-1,1
201 0 m 1,23,-1
 41 0 l 1,24,-1
 41 41 l 1,25,26
 90 41 90 41 114.5 51 c 128,-1,27
 139 61 139 61 148.5 83.5 c 128,-1,28
 158 106 158 106 158 147 c 2,29,-1
 158 836 l 1,30,-1
 47 899 l 1,31,-1
 47 899 l 1,32,-1
 559 1141 l 1,33,-1
 559 1055 l 1,34,-1
 559 147 l 2,35,36
 559 104 559 104 567 82.5 c 128,-1,37
 575 61 575 61 595.5 51 c 128,-1,38
 616 41 616 41 659 41 c 1,39,-1
 659 0 l 1,40,-1
 522 0 l 1,41,-1
 201 0 l 1,23,-1
EndSplineSet
Validated: 5
Substitution2: "'smcp' Lowercase to Small Capitals in Latin lookup 25 subtable" eng.sc
Substitution2: "'aalt' Access All Alternates in Latin lookup 0 subtable" eng.sc
EndChar

StartChar: uni0272
Encoding: 626 626 232
Width: 1431
GlyphClass: 2
Flags: W
AnchorPoint: "Anchor-4" 397 1055 basechar 0
AnchorPoint: "Anchor-3" 442 0 basechar 0
LayerCount: 2
Fore
SplineSet
930 0 m 1,0,-1
 778 0 l 1,1,-1
 778 41 l 1,2,3
 825 41 825 41 848.5 51 c 128,-1,4
 872 61 872 61 880.5 82.5 c 128,-1,5
 889 104 889 104 889 147 c 2,6,-1
 889 717 l 2,7,8
 889 795 889 795 848 836 c 128,-1,9
 807 877 807 877 731 877 c 0,10,11
 686 877 686 877 650 868.5 c 128,-1,12
 614 860 614 860 584 844 c 1,13,-1
 584 860 l 1,14,15
 658 954 658 954 771.5 1019.5 c 128,-1,16
 885 1085 885 1085 1004 1085 c 0,17,18
 1145 1085 1145 1085 1217.5 1002.5 c 128,-1,19
 1290 920 1290 920 1290 754 c 2,20,-1
 1290 147 l 2,21,22
 1290 104 1290 104 1298.5 82.5 c 128,-1,23
 1307 61 1307 61 1330.5 51 c 128,-1,24
 1354 41 1354 41 1401 41 c 1,25,-1
 1401 0 l 1,26,-1
 1249 0 l 1,27,-1
 930 0 l 1,0,-1
160 -116 m 128,-1,29
 197 14 197 14 197 160 c 2,30,-1
 197 836 l 1,31,-1
 86 899 l 1,32,-1
 86 899 l 1,33,-1
 598 1141 l 1,34,-1
 598 1055 l 1,35,-1
 598 287 l 2,36,37
 598 137 598 137 513 0 c 128,-1,38
 428 -137 428 -137 308 -235.5 c 128,-1,39
 188 -334 188 -334 84 -379 c 1,40,-1
 41 -379 l 1,41,28
 123 -246 123 -246 160 -116 c 128,-1,29
EndSplineSet
Validated: 5
Substitution2: "'smcp' Lowercase to Small Capitals in Latin lookup 25 subtable" uni0272.sc
Substitution2: "'aalt' Access All Alternates in Latin lookup 0 subtable" uni0272.sc
EndChar

StartChar: oe
Encoding: 339 339 238
Width: 1964
GlyphClass: 2
Flags: W
AnchorPoint: "Anchor-4" 977 1055 basechar 0
AnchorPoint: "Anchor-3" 977 0 basechar 0
LayerCount: 2
Fore
SplineSet
337 44 m 128,-1,1
 201 119 201 119 121 247 c 128,-1,2
 41 375 41 375 41 528 c 256,3,4
 41 682 41 682 120 810 c 128,-1,5
 199 938 199 938 336 1011.5 c 128,-1,6
 473 1085 473 1085 637 1085 c 256,7,8
 801 1085 801 1085 938 1011.5 c 128,-1,9
 1075 938 1075 938 1154 810 c 128,-1,10
 1233 682 1233 682 1233 528 c 256,11,12
 1233 374 1233 374 1153 246.5 c 128,-1,13
 1073 119 1073 119 937 44 c 128,-1,14
 801 -31 801 -31 637 -31 c 256,15,0
 473 -31 473 -31 337 44 c 128,-1,1
724 68.5 m 128,-1,17
 760 127 760 127 778.5 242.5 c 128,-1,18
 797 358 797 358 797 528 c 0,19,20
 797 696 797 696 778.5 812 c 128,-1,21
 760 928 760 928 724 986 c 128,-1,22
 688 1044 688 1044 637 1044 c 256,23,24
 586 1044 586 1044 550 986 c 128,-1,25
 514 928 514 928 495.5 812 c 128,-1,26
 477 696 477 696 477 528 c 0,27,28
 477 358 477 358 495.5 242.5 c 128,-1,29
 514 127 514 127 550 68.5 c 128,-1,30
 586 10 586 10 637 10 c 256,31,16
 688 10 688 10 724 68.5 c 128,-1,17
1154 36.5 m 128,-1,33
 1032 104 1032 104 964.5 222 c 128,-1,34
 897 340 897 340 897 485 c 0,35,36
 897 647 897 647 969.5 784.5 c 128,-1,37
 1042 922 1042 922 1168 1003.5 c 128,-1,38
 1294 1085 1294 1085 1446 1085 c 0,39,40
 1636 1085 1636 1085 1755 971.5 c 128,-1,41
 1874 858 1874 858 1915 690 c 1,42,-1
 1028 690 l 1,43,-1
 1028 741 l 1,44,-1
 1604 741 l 1,45,-1
 1550 731 l 1,46,47
 1550 891 1550 891 1510 966.5 c 128,-1,48
 1470 1042 1470 1042 1407 1042 c 0,49,50
 1331 1042 1331 1042 1291 956 c 128,-1,51
 1251 870 1251 870 1251 700 c 0,52,53
 1251 555 1251 555 1295 451.5 c 128,-1,54
 1339 348 1339 348 1422 293 c 128,-1,55
 1505 238 1505 238 1622 238 c 0,56,57
 1720 238 1720 238 1796 267.5 c 128,-1,58
 1872 297 1872 297 1933 358 c 1,59,-1
 1933 324 l 1,60,61
 1849 144 1849 144 1724 56.5 c 128,-1,62
 1599 -31 1599 -31 1432 -31 c 0,63,32
 1276 -31 1276 -31 1154 36.5 c 128,-1,33
EndSplineSet
Validated: 5
Substitution2: "'smcp' Lowercase to Small Capitals in Latin lookup 25 subtable" oe.sc
Substitution2: "'aalt' Access All Alternates in Latin lookup 0 subtable" oe.sc
EndChar

StartChar: ordfeminine
Encoding: 170 170 242
Width: 1028
GlyphClass: 2
Flags: W
AnchorPoint: "Anchor-5" 778 717 basechar 0
AnchorPoint: "Anchor-4" 549 1456 basechar 0
AnchorPoint: "Anchor-3" 516 717 basechar 0
LayerCount: 2
Fore
SplineSet
595 744.5 m 128,-1,1
 541 793 541 793 526 881 c 1,2,-1
 526 1315 l 2,3,4
 526 1358 526 1358 512 1379.5 c 128,-1,5
 498 1401 498 1401 469 1401 c 0,6,7
 422 1401 422 1401 411.5 1361 c 128,-1,8
 401 1321 401 1321 403 1231 c 0,9,10
 405 1213 405 1213 406 1171 c 1,11,-1
 70 1171 l 1,12,13
 220 1318 220 1318 368 1397.5 c 128,-1,14
 516 1477 516 1477 647 1477 c 0,15,16
 758 1477 758 1477 806 1421.5 c 128,-1,17
 854 1366 854 1366 854 1245 c 2,18,-1
 854 952 l 2,19,20
 854 905 854 905 871.5 881.5 c 128,-1,21
 889 858 889 858 926 858 c 0,22,23
 953 858 953 858 979 874 c 1,24,-1
 979 850 l 1,25,26
 934 778 934 778 866.5 737 c 128,-1,27
 799 696 799 696 733 696 c 0,28,0
 649 696 649 696 595 744.5 c 128,-1,1
130 750.5 m 128,-1,30
 70 805 70 805 70 881 c 0,31,32
 70 942 70 942 108.5 980 c 128,-1,33
 147 1018 147 1018 240 1047 c 2,34,-1
 535 1137 l 1,35,-1
 535 1104 l 1,36,-1
 489 1090 l 2,37,38
 446 1076 446 1076 424.5 1046 c 128,-1,39
 403 1016 403 1016 403 971 c 0,40,41
 403 928 403 928 428 901 c 128,-1,42
 453 874 453 874 489 874 c 0,43,44
 503 874 503 874 515.5 877.5 c 128,-1,45
 528 881 528 881 539 885 c 1,46,-1
 543 866 l 1,47,48
 480 776 480 776 422.5 736 c 128,-1,49
 365 696 365 696 281 696 c 0,50,29
 190 696 190 696 130 750.5 c 128,-1,30
125 557 m 1,51,-1
 938 557 l 1,52,-1
 938 496 l 1,53,-1
 125 496 l 1,54,-1
 125 557 l 1,51,-1
EndSplineSet
Validated: 37
EndChar

StartChar: ordmasculine
Encoding: 186 186 243
Width: 1060
GlyphClass: 2
Flags: W
AnchorPoint: "Anchor-5" 662 717 basechar 0
AnchorPoint: "Anchor-4" 530 1456 basechar 0
AnchorPoint: "Anchor-3" 530 717 basechar 0
LayerCount: 2
Fore
SplineSet
298 748.5 m 128,-1,1
 193 801 193 801 131.5 891 c 128,-1,2
 70 981 70 981 70 1087 c 0,3,4
 70 1191 70 1191 131.5 1281.5 c 128,-1,5
 193 1372 193 1372 298 1424.5 c 128,-1,6
 403 1477 403 1477 530 1477 c 256,7,8
 657 1477 657 1477 762.5 1424.5 c 128,-1,9
 868 1372 868 1372 929.5 1282 c 128,-1,10
 991 1192 991 1192 991 1087 c 0,11,12
 991 981 991 981 929.5 891 c 128,-1,13
 868 801 868 801 762.5 748.5 c 128,-1,14
 657 696 657 696 530 696 c 256,15,0
 403 696 403 696 298 748.5 c 128,-1,1
611.5 822 m 128,-1,17
 639 909 639 909 639 1087 c 0,18,19
 639 1263 639 1263 611.5 1351.5 c 128,-1,20
 584 1440 584 1440 530 1440 c 256,21,22
 477 1440 477 1440 450.5 1352 c 128,-1,23
 424 1264 424 1264 424 1087 c 0,24,25
 424 909 424 909 450.5 822 c 128,-1,26
 477 735 477 735 530 735 c 256,27,16
 584 735 584 735 611.5 822 c 128,-1,17
123 557 m 1,28,-1
 936 557 l 1,29,-1
 936 496 l 1,30,-1
 123 496 l 1,31,-1
 123 557 l 1,28,-1
EndSplineSet
Validated: 1
EndChar

StartChar: oslash
Encoding: 248 248 244
Width: 1286
GlyphClass: 2
Flags: W
AnchorPoint: "Anchor-5" 809 0 basechar 0
AnchorPoint: "Anchor-4" 643 1055 basechar 0
AnchorPoint: "Anchor-3" 643 0 basechar 0
LayerCount: 2
Fore
SplineSet
339 44 m 128,-1,1
 201 119 201 119 121 247 c 128,-1,2
 41 375 41 375 41 528 c 256,3,4
 41 682 41 682 121 810 c 128,-1,5
 201 938 201 938 339 1011.5 c 128,-1,6
 477 1085 477 1085 643 1085 c 256,7,8
 809 1085 809 1085 947 1011.5 c 128,-1,9
 1085 938 1085 938 1165 810 c 128,-1,10
 1245 682 1245 682 1245 528 c 256,11,12
 1245 374 1245 374 1165 246.5 c 128,-1,13
 1085 119 1085 119 947 44 c 128,-1,14
 809 -31 809 -31 643 -31 c 256,15,0
 477 -31 477 -31 339 44 c 128,-1,1
734 68.5 m 128,-1,17
 772 127 772 127 790.5 242.5 c 128,-1,18
 809 358 809 358 809 528 c 0,19,20
 809 696 809 696 790.5 812 c 128,-1,21
 772 928 772 928 734 986 c 128,-1,22
 696 1044 696 1044 643 1044 c 256,23,24
 590 1044 590 1044 552 986 c 128,-1,25
 514 928 514 928 495.5 812 c 128,-1,26
 477 696 477 696 477 528 c 0,27,28
 477 358 477 358 495.5 242.5 c 128,-1,29
 514 127 514 127 552 68.5 c 128,-1,30
 590 10 590 10 643 10 c 256,31,16
 696 10 696 10 734 68.5 c 128,-1,17
1077 1126 m 1,32,-1
 1161 1126 l 1,33,-1
 207 -72 l 1,34,-1
 123 -72 l 1,35,-1
 1077 1126 l 1,32,-1
EndSplineSet
Validated: 5
Substitution2: "'smcp' Lowercase to Small Capitals in Latin lookup 25 subtable" oslash.sc
Substitution2: "'aalt' Access All Alternates in Latin lookup 0 subtable" oslash.sc
EndChar

StartChar: oslashacute
Encoding: 511 511 245
Width: 1286
GlyphClass: 2
Flags: W
AnchorPoint: "Anchor-5" 809 0 basechar 0
AnchorPoint: "Anchor-4" 872 1597 basechar 0
AnchorPoint: "Anchor-3" 643 0 basechar 0
LayerCount: 2
Fore
SplineSet
339 44 m 128,-1,1
 201 119 201 119 121 247 c 128,-1,2
 41 375 41 375 41 528 c 256,3,4
 41 682 41 682 121 810 c 128,-1,5
 201 938 201 938 339 1011.5 c 128,-1,6
 477 1085 477 1085 643 1085 c 256,7,8
 809 1085 809 1085 947 1011.5 c 128,-1,9
 1085 938 1085 938 1165 810 c 128,-1,10
 1245 682 1245 682 1245 528 c 256,11,12
 1245 374 1245 374 1165 246.5 c 128,-1,13
 1085 119 1085 119 947 44 c 128,-1,14
 809 -31 809 -31 643 -31 c 256,15,0
 477 -31 477 -31 339 44 c 128,-1,1
734 68.5 m 128,-1,17
 772 127 772 127 790.5 242.5 c 128,-1,18
 809 358 809 358 809 528 c 0,19,20
 809 696 809 696 790.5 812 c 128,-1,21
 772 928 772 928 734 986 c 128,-1,22
 696 1044 696 1044 643 1044 c 256,23,24
 590 1044 590 1044 552 986 c 128,-1,25
 514 928 514 928 495.5 812 c 128,-1,26
 477 696 477 696 477 528 c 0,27,28
 477 358 477 358 495.5 242.5 c 128,-1,29
 514 127 514 127 552 68.5 c 128,-1,30
 590 10 590 10 643 10 c 256,31,16
 696 10 696 10 734 68.5 c 128,-1,17
1077 1126 m 1,32,-1
 1161 1126 l 1,33,-1
 207 -72 l 1,34,-1
 123 -72 l 1,35,-1
 1077 1126 l 1,32,-1
731 1597 m 1,36,-1
 1112 1597 l 1,37,-1
 655 1198 l 1,38,-1
 631 1198 l 1,39,-1
 731 1597 l 1,36,-1
EndSplineSet
Validated: 5
Substitution2: "'smcp' Lowercase to Small Capitals in Latin lookup 25 subtable" oslashacute.sc
Substitution2: "'aalt' Access All Alternates in Latin lookup 0 subtable" oslashacute.sc
EndChar

StartChar: tbar
Encoding: 359 359 255
Width: 874
GlyphClass: 2
Flags: W
AnchorPoint: "Anchor-4" 498 1444 basechar 0
AnchorPoint: "Anchor-3" 457 0 basechar 0
LayerCount: 2
Fore
SplineSet
243 58.5 m 128,-1,1
 154 137 154 137 154 319 c 2,2,-1
 154 1008 l 1,3,-1
 406 963 l 1,4,-1
 20 963 l 1,5,-1
 20 963 l 1,6,-1
 555 1393 l 1,7,-1
 555 1393 l 1,8,-1
 555 406 l 2,9,10
 555 304 555 304 593 254.5 c 128,-1,11
 631 205 631 205 698 205 c 0,12,13
 768 205 768 205 844 250 c 1,14,-1
 844 215 l 1,15,16
 774 125 774 125 669.5 52.5 c 128,-1,17
 565 -20 565 -20 459 -20 c 0,18,0
 332 -20 332 -20 243 58.5 c 128,-1,1
504 1055 m 1,19,-1
 834 1055 l 1,20,-1
 834 963 l 1,21,-1
 504 963 l 1,22,-1
 504 1055 l 1,19,-1
53 645 m 1,23,-1
 834 645 l 1,24,-1
 834 584 l 1,25,-1
 53 584 l 1,26,-1
 53 645 l 1,23,-1
EndSplineSet
Validated: 5
Substitution2: "'smcp' Lowercase to Small Capitals in Latin lookup 25 subtable" tbar.sc
Substitution2: "'aalt' Access All Alternates in Latin lookup 0 subtable" tbar.sc
EndChar

StartChar: tcaron
Encoding: 357 357 256
Width: 874
GlyphClass: 2
Flags: W
AnchorPoint: "Anchor-4" 498 1444 basechar 0
AnchorPoint: "Anchor-3" 457 0 basechar 0
LayerCount: 2
Fore
SplineSet
243 58.5 m 128,-1,1
 154 137 154 137 154 319 c 2,2,-1
 154 1008 l 1,3,-1
 406 963 l 1,4,-1
 20 963 l 1,5,-1
 20 963 l 1,6,-1
 555 1393 l 1,7,-1
 555 1393 l 1,8,-1
 555 406 l 2,9,10
 555 304 555 304 593 254.5 c 128,-1,11
 631 205 631 205 698 205 c 0,12,13
 768 205 768 205 844 250 c 1,14,-1
 844 215 l 1,15,16
 774 125 774 125 669.5 52.5 c 128,-1,17
 565 -20 565 -20 459 -20 c 0,18,0
 332 -20 332 -20 243 58.5 c 128,-1,1
504 1055 m 1,19,-1
 834 1055 l 1,20,-1
 834 963 l 1,21,-1
 504 963 l 1,22,-1
 504 1055 l 1,19,-1
734.5 1306.5 m 128,-1,24
 754 1378 754 1378 736.5 1433.5 c 128,-1,25
 719 1489 719 1489 666 1524 c 1,26,27
 686 1577 686 1577 725 1607.5 c 128,-1,28
 764 1638 764 1638 829 1638 c 0,29,30
 903 1638 903 1638 946 1596 c 128,-1,31
 989 1554 989 1554 989 1481 c 0,32,33
 989 1405 989 1405 914.5 1317 c 128,-1,34
 840 1229 840 1229 698 1153 c 1,35,-1
 662 1153 l 1,36,23
 715 1235 715 1235 734.5 1306.5 c 128,-1,24
EndSplineSet
Validated: 37
Substitution2: "'smcp' Lowercase to Small Capitals in Latin lookup 25 subtable" tcaron.sc
Substitution2: "'aalt' Access All Alternates in Latin lookup 0 subtable" tcaron.sc
EndChar

StartChar: thorn
Encoding: 254 254 259
Width: 1343
GlyphClass: 2
Flags: W
AnchorPoint: "Anchor-4" 672 1628 basechar 0
AnchorPoint: "Anchor-3" 672 0 basechar 0
LayerCount: 2
Fore
SplineSet
531.5 -11.5 m 128,-1,1
 436 8 436 8 338 51 c 128,-1,2
 240 94 240 94 172 164 c 1,3,-1
 553 211 l 1,4,5
 553 115 553 115 587 67.5 c 128,-1,6
 621 20 621 20 686 20 c 256,7,8
 752 20 752 20 800 76.5 c 128,-1,9
 848 133 848 133 872.5 232.5 c 128,-1,10
 897 332 897 332 897 457 c 0,11,12
 897 596 897 596 869.5 689 c 128,-1,13
 842 782 842 782 788.5 829.5 c 128,-1,14
 735 877 735 877 662 877 c 0,15,16
 633 877 633 877 602 868.5 c 128,-1,17
 571 860 571 860 541 844 c 1,18,-1
 541 860 l 1,19,20
 598 950 598 950 704.5 1017.5 c 128,-1,21
 811 1085 811 1085 920 1085 c 0,22,23
 1020 1085 1020 1085 1107 1031 c 128,-1,24
 1194 977 1194 977 1248.5 868.5 c 128,-1,25
 1303 760 1303 760 1303 604 c 0,26,27
 1303 426 1303 426 1223 280.5 c 128,-1,28
 1143 135 1143 135 1002.5 52 c 128,-1,29
 862 -31 862 -31 690 -31 c 0,30,0
 627 -31 627 -31 531.5 -11.5 c 128,-1,1
193 -379 m 1,31,-1
 41 -379 l 1,32,-1
 41 -338 l 1,33,34
 88 -338 88 -338 111.5 -327.5 c 128,-1,35
 135 -317 135 -317 143.5 -295.5 c 128,-1,36
 152 -274 152 -274 152 -231 c 2,37,-1
 152 1333 l 1,38,-1
 41 1397 l 1,39,-1
 41 1397 l 1,40,-1
 553 1638 l 1,41,-1
 553 1552 l 1,42,-1
 553 -231 l 2,43,44
 553 -272 553 -272 566.5 -294.5 c 128,-1,45
 580 -317 580 -317 614.5 -327.5 c 128,-1,46
 649 -338 649 -338 719 -338 c 1,47,-1
 719 -379 l 1,48,-1
 492 -379 l 1,49,-1
 193 -379 l 1,31,-1
EndSplineSet
Validated: 5
Substitution2: "'smcp' Lowercase to Small Capitals in Latin lookup 25 subtable" thorn.sc
Substitution2: "'aalt' Access All Alternates in Latin lookup 0 subtable" thorn.sc
EndChar

StartChar: germandbls
Encoding: 223 223 285
Width: 1564
GlyphClass: 1
Flags: W
LayerCount: 2
Fore
SplineSet
862 -9.5 m 128,-1,1
 774 12 774 12 709 45 c 1,2,-1
 709 373 l 1,3,-1
 741 373 l 1,4,5
 784 207 784 207 868 116 c 128,-1,6
 952 25 952 25 1079 25 c 0,7,8
 1155 25 1155 25 1203 70 c 128,-1,9
 1251 115 1251 115 1251 186 c 0,10,11
 1251 245 1251 245 1200 285.5 c 128,-1,12
 1149 326 1149 326 1040 381 c 0,13,14
 948 426 948 426 891 462 c 128,-1,15
 834 498 834 498 794 554 c 128,-1,16
 754 610 754 610 754 690 c 0,17,18
 754 815 754 815 837 905 c 128,-1,19
 920 995 920 995 1077 1059 c 1,20,-1
 1057 1010 l 1,21,22
 1059 1325 1059 1325 998.5 1446 c 128,-1,23
 938 1567 938 1567 825 1567 c 0,24,25
 690 1567 690 1567 630.5 1436 c 128,-1,26
 571 1305 571 1305 571 1047 c 2,27,-1
 571 0 l 1,28,-1
 211 0 l 1,29,-1
 59 0 l 1,30,-1
 59 41 l 1,31,32
 106 41 106 41 130 51 c 128,-1,33
 154 61 154 61 162 82.5 c 128,-1,34
 170 104 170 104 170 147 c 2,35,-1
 170 1014 l 2,36,37
 170 1190 170 1190 248 1327 c 128,-1,38
 326 1464 326 1464 475.5 1541 c 128,-1,39
 625 1618 625 1618 834 1618 c 0,40,41
 1080 1618 1080 1618 1233 1498 c 128,-1,42
 1386 1378 1386 1378 1401 1159 c 1,43,44
 1192 1098 1192 1098 1111 1036.5 c 128,-1,45
 1030 975 1030 975 1030 903 c 0,46,47
 1030 858 1030 858 1071 826.5 c 128,-1,48
 1112 795 1112 795 1200 752 c 0,49,50
 1294 705 1294 705 1351.5 666 c 128,-1,51
 1409 627 1409 627 1451 561.5 c 128,-1,52
 1493 496 1493 496 1493 403 c 0,53,54
 1493 284 1493 284 1434.5 185 c 128,-1,55
 1376 86 1376 86 1272.5 27.5 c 128,-1,56
 1169 -31 1169 -31 1038 -31 c 0,57,0
 950 -31 950 -31 862 -9.5 c 128,-1,1
51 952 m 1,58,-1
 172 1055 l 1,59,-1
 299 1055 l 1,60,-1
 299 952 l 1,61,-1
 51 952 l 1,62,-1
 51 952 l 1,58,-1
EndSplineSet
Validated: 37
Substitution2: "'smcp' Lowercase to Small Capitals in Latin lookup 25 subtable" germandbls.sc
Substitution2: "'aalt' Access All Alternates in Latin lookup 0 subtable" germandbls.sc
EndChar

StartChar: eth
Encoding: 240 240 286
Width: 1290
GlyphClass: 2
Flags: W
AnchorPoint: "Anchor-4" 645 1618 basechar 0
AnchorPoint: "Anchor-3" 645 0 basechar 0
LayerCount: 2
Fore
SplineSet
330 41 m 128,-1,1
 197 113 197 113 119 242 c 128,-1,2
 41 371 41 371 41 535 c 0,3,4
 41 697 41 697 110.5 822.5 c 128,-1,5
 180 948 180 948 289.5 1016.5 c 128,-1,6
 399 1085 399 1085 510 1085 c 0,7,8
 598 1085 598 1085 669.5 1050.5 c 128,-1,9
 741 1016 741 1016 786 952 c 1,10,-1
 791 922 l 1,11,12
 766 942 766 942 735.5 952.5 c 128,-1,13
 705 963 705 963 670 963 c 0,14,15
 602 963 602 963 559 914.5 c 128,-1,16
 516 866 516 866 496.5 770 c 128,-1,17
 477 674 477 674 477 526 c 0,18,19
 477 358 477 358 495.5 242.5 c 128,-1,20
 514 127 514 127 550 68.5 c 128,-1,21
 586 10 586 10 637 10 c 0,22,23
 692 10 692 10 731 68.5 c 128,-1,24
 770 127 770 127 789.5 242.5 c 128,-1,25
 809 358 809 358 809 528 c 0,26,27
 809 770 809 770 784.5 936 c 128,-1,28
 760 1102 760 1102 683 1261.5 c 128,-1,29
 606 1421 606 1421 453 1597 c 1,30,-1
 494 1597 l 1,31,32
 859 1402 859 1402 1054 1169 c 128,-1,33
 1249 936 1249 936 1249 647 c 0,34,35
 1249 461 1249 461 1164 305.5 c 128,-1,36
 1079 150 1079 150 936 59.5 c 128,-1,37
 793 -31 793 -31 627 -31 c 0,38,0
 463 -31 463 -31 330 41 c 128,-1,1
299 1286 m 1,39,-1
 1026 1554 l 1,40,-1
 1026 1491 l 1,41,-1
 299 1223 l 1,42,-1
 299 1286 l 1,39,-1
EndSplineSet
Validated: 5
Substitution2: "'smcp' Lowercase to Small Capitals in Latin lookup 25 subtable" eth.sc
Substitution2: "'aalt' Access All Alternates in Latin lookup 0 subtable" eth.sc
EndChar

StartChar: comma
Encoding: 44 44 301
Width: 600
GlyphClass: 1
Flags: W
LayerCount: 2
Fore
SplineSet
159.5 -197.5 m 128,-1,1
 215 -43 215 -43 197.5 86 c 128,-1,2
 180 215 180 215 92 272 c 1,3,4
 127 327 127 327 181.5 360 c 128,-1,5
 236 393 236 393 297 393 c 0,6,7
 389 393 389 393 448.5 329.5 c 128,-1,8
 508 266 508 266 508 158 c 0,9,10
 508 -2 508 -2 372 -178 c 128,-1,11
 236 -354 236 -354 23 -481 c 1,12,-1
 -16 -481 l 1,13,0
 104 -352 104 -352 159.5 -197.5 c 128,-1,1
EndSplineSet
Validated: 33
EndChar

StartChar: period
Encoding: 46 46 304
Width: 600
GlyphClass: 1
Flags: W
LayerCount: 2
Fore
SplineSet
152.5 40 m 128,-1,1
 92 100 92 100 92 188 c 256,2,3
 92 276 92 276 152.5 334.5 c 128,-1,4
 213 393 213 393 303 393 c 0,5,6
 389 393 389 393 448.5 334.5 c 128,-1,7
 508 276 508 276 508 188 c 256,8,9
 508 100 508 100 448.5 40 c 128,-1,10
 389 -20 389 -20 303 -20 c 0,11,0
 213 -20 213 -20 152.5 40 c 128,-1,1
EndSplineSet
Validated: 1
EndChar

StartChar: hyphen
Encoding: 45 45 306
Width: 634
GlyphClass: 1
Flags: W
LayerCount: 2
Fore
SplineSet
82 686 m 1,0,-1
 553 686 l 1,1,-1
 553 461 l 1,2,-1
 82 461 l 1,3,-1
 82 686 l 1,0,-1
EndSplineSet
Validated: 1
Substitution2: "'case' Case-Sensitive Forms in Latin lookup 26 subtable" hyphen.case
Substitution2: "'aalt' Access All Alternates in Latin lookup 0 subtable" hyphen.case
EndChar

StartChar: exclam
Encoding: 33 33 307
Width: 806
GlyphClass: 1
Flags: W
LayerCount: 2
Fore
SplineSet
454 1606.5 m 128,-1,1
 578 1575 578 1575 627 1485 c 128,-1,2
 676 1395 676 1395 635 1262 c 2,3,-1
 412 537 l 1,4,-1
 379 537 l 1,5,-1
 154 1606 l 1,6,0
 330 1638 330 1638 454 1606.5 c 128,-1,1
250.5 40 m 128,-1,8
 190 100 190 100 190 188 c 256,9,10
 190 276 190 276 250.5 334.5 c 128,-1,11
 311 393 311 393 401 393 c 0,12,13
 487 393 487 393 546.5 334.5 c 128,-1,14
 606 276 606 276 606 188 c 256,15,16
 606 100 606 100 546.5 40 c 128,-1,17
 487 -20 487 -20 401 -20 c 0,18,7
 311 -20 311 -20 250.5 40 c 128,-1,8
EndSplineSet
Validated: 33
EndChar

StartChar: question
Encoding: 63 63 309
Width: 899
GlyphClass: 1
Flags: W
LayerCount: 2
Fore
SplineSet
285.5 599 m 128,-1,1
 252 668 252 668 252 735 c 0,2,3
 252 788 252 788 282.5 827 c 128,-1,4
 313 866 313 866 381 893 c 2,5,-1
 662 1006 l 2,6,7
 715 1026 715 1026 735.5 1039.5 c 128,-1,8
 756 1053 756 1053 756 1065 c 0,9,10
 756 1090 756 1090 713 1104 c 128,-1,11
 670 1118 670 1118 534.5 1132.5 c 128,-1,12
 399 1147 399 1147 113 1163 c 1,13,-1
 113 1618 l 1,14,15
 482 1505 482 1505 665 1323 c 128,-1,16
 848 1141 848 1141 848 872 c 0,17,18
 848 794 848 794 808 745 c 128,-1,19
 768 696 768 696 680 655 c 2,20,-1
 465 557 l 2,21,22
 436 545 436 545 421 531.5 c 128,-1,23
 406 518 406 518 400.5 499.5 c 128,-1,24
 395 481 395 481 397 455 c 1,25,-1
 383 455 l 1,26,0
 319 530 319 530 285.5 599 c 128,-1,1
248.5 40 m 128,-1,28
 188 100 188 100 188 188 c 256,29,30
 188 276 188 276 248.5 334.5 c 128,-1,31
 309 393 309 393 399 393 c 0,32,33
 485 393 485 393 544.5 334.5 c 128,-1,34
 604 276 604 276 604 188 c 256,35,36
 604 100 604 100 544.5 40 c 128,-1,37
 485 -20 485 -20 399 -20 c 0,38,27
 309 -20 309 -20 248.5 40 c 128,-1,28
EndSplineSet
Validated: 1
EndChar

StartChar: quoteright
Encoding: 8217 8217 312
Width: 626
GlyphClass: 1
Flags: W
LayerCount: 2
Fore
SplineSet
238.5 1183.5 m 128,-1,1
 268 1298 268 1298 236.5 1387.5 c 128,-1,2
 205 1477 205 1477 113 1530 c 1,3,4
 140 1587 140 1587 190 1623 c 128,-1,5
 240 1659 240 1659 305 1659 c 0,6,7
 397 1659 397 1659 455.5 1599.5 c 128,-1,8
 514 1540 514 1540 514 1440 c 0,9,10
 514 1329 514 1329 426 1206 c 128,-1,11
 338 1083 338 1083 160 942 c 1,12,-1
 123 942 l 1,13,0
 209 1069 209 1069 238.5 1183.5 c 128,-1,1
EndSplineSet
Validated: 33
EndChar

StartChar: guilsinglleft
Encoding: 8249 8249 317
Width: 700
GlyphClass: 1
Flags: W
LayerCount: 2
Fore
SplineSet
72 573 m 1,0,-1
 600 1024 l 1,1,-1
 629 1024 l 1,2,-1
 410 506 l 1,3,-1
 410 641 l 1,4,-1
 629 123 l 1,5,-1
 600 123 l 1,6,-1
 72 573 l 1,0,-1
EndSplineSet
Validated: 5
Substitution2: "'case' Case-Sensitive Forms in Latin lookup 26 subtable" guilsinglleft.case
Substitution2: "'aalt' Access All Alternates in Latin lookup 0 subtable" guilsinglleft.case
EndChar

StartChar: guilsinglright
Encoding: 8250 8250 318
Width: 700
GlyphClass: 1
Flags: W
LayerCount: 2
Fore
SplineSet
72 123 m 1,0,-1
 291 641 l 1,1,-1
 291 506 l 1,2,-1
 72 1024 l 1,3,-1
 100 1024 l 1,4,-1
 629 573 l 1,5,-1
 100 123 l 1,6,-1
 72 123 l 1,0,-1
EndSplineSet
Validated: 5
Substitution2: "'case' Case-Sensitive Forms in Latin lookup 26 subtable" guilsinglright.case
Substitution2: "'aalt' Access All Alternates in Latin lookup 0 subtable" guilsinglright.case
EndChar

StartChar: slash
Encoding: 47 47 320
Width: 759
GlyphClass: 1
Flags: W
LayerCount: 2
Fore
SplineSet
612 1556 m 1,0,-1
 719 1556 l 1,1,-1
 147 -307 l 1,2,-1
 41 -307 l 1,3,-1
 612 1556 l 1,0,-1
EndSplineSet
Validated: 1
Substitution2: "'case' Case-Sensitive Forms in Latin lookup 26 subtable" slash.case
Substitution2: "'frac' Diagonal Fractions in Latin lookup 15 subtable" fraction
AlternateSubs2: "'aalt' Access All Alternates in Latin lookup 1 subtable" fraction slash.case
EndChar

StartChar: bar
Encoding: 124 124 321
Width: 409
GlyphClass: 1
Flags: W
LayerCount: 2
Fore
SplineSet
154 1556 m 1,0,-1
 256 1556 l 1,1,-1
 256 -307 l 1,2,-1
 154 -307 l 1,3,-1
 154 1556 l 1,0,-1
EndSplineSet
Validated: 1
Substitution2: "'case' Case-Sensitive Forms in Latin lookup 26 subtable" bar.case
Substitution2: "'aalt' Access All Alternates in Latin lookup 0 subtable" bar.case
EndChar

StartChar: endash
Encoding: 8211 8211 322
Width: 1024
GlyphClass: 1
Flags: W
LayerCount: 2
Fore
SplineSet
0 608 m 1,0,-1
 1024 608 l 1,1,-1
 1024 537 l 1,2,-1
 0 537 l 1,3,-1
 0 608 l 1,0,-1
EndSplineSet
Validated: 1
Substitution2: "'case' Case-Sensitive Forms in Latin lookup 26 subtable" endash.case
Substitution2: "'aalt' Access All Alternates in Latin lookup 0 subtable" endash.case
EndChar

StartChar: emdash
Encoding: 8212 8212 323
Width: 2048
GlyphClass: 1
Flags: W
LayerCount: 2
Fore
SplineSet
0 608 m 1,0,-1
 2048 608 l 1,1,-1
 2048 537 l 1,2,-1
 0 537 l 1,3,-1
 0 608 l 1,0,-1
EndSplineSet
Validated: 1
Substitution2: "'case' Case-Sensitive Forms in Latin lookup 26 subtable" emdash.case
Substitution2: "'aalt' Access All Alternates in Latin lookup 0 subtable" emdash.case
EndChar

StartChar: bullet
Encoding: 8226 8226 324
Width: 763
GlyphClass: 1
Flags: W
LayerCount: 2
Fore
SplineSet
222 295 m 128,-1,1
 147 338 147 338 104 411.5 c 128,-1,2
 61 485 61 485 61 573 c 0,3,4
 61 663 61 663 104 736 c 128,-1,5
 147 809 147 809 221 850 c 128,-1,6
 295 891 295 891 385 891 c 0,7,8
 473 891 473 891 545.5 850 c 128,-1,9
 618 809 618 809 660 736.5 c 128,-1,10
 702 664 702 664 702 573 c 0,11,12
 702 485 702 485 660 411.5 c 128,-1,13
 618 338 618 338 545.5 295 c 128,-1,14
 473 252 473 252 385 252 c 256,15,0
 297 252 297 252 222 295 c 128,-1,1
EndSplineSet
Validated: 1
Substitution2: "'case' Case-Sensitive Forms in Latin lookup 26 subtable" bullet.case
Substitution2: "'aalt' Access All Alternates in Latin lookup 0 subtable" bullet.case
EndChar

StartChar: parenleft
Encoding: 40 40 325
Width: 733
GlyphClass: 1
Flags: W
LayerCount: 2
Fore
SplineSet
224.5 116.5 m 128,-1,1
 72 350 72 350 72 614 c 0,2,3
 72 884 72 884 224.5 1122 c 128,-1,4
 377 1360 377 1360 643 1556 c 1,5,-1
 682 1556 l 1,6,7
 573 1372 573 1372 508.5 1125.5 c 128,-1,8
 444 879 444 879 444 614 c 0,9,10
 444 356 444 356 508.5 113.5 c 128,-1,11
 573 -129 573 -129 682 -307 c 1,12,-1
 643 -307 l 1,13,0
 377 -117 377 -117 224.5 116.5 c 128,-1,1
EndSplineSet
Validated: 1
Substitution2: "'case' Case-Sensitive Forms in Latin lookup 26 subtable" parenleft.case
Substitution2: "'aalt' Access All Alternates in Latin lookup 0 subtable" parenleft.case
EndChar

StartChar: parenright
Encoding: 41 41 326
Width: 733
GlyphClass: 1
Flags: W
LayerCount: 2
Fore
SplineSet
51 -307 m 1,0,1
 160 -129 160 -129 224.5 113.5 c 128,-1,2
 289 356 289 356 289 614 c 0,3,4
 289 878 289 878 224.5 1125 c 128,-1,5
 160 1372 160 1372 51 1556 c 1,6,-1
 90 1556 l 1,7,8
 356 1359 356 1359 509 1122 c 128,-1,9
 662 885 662 885 662 614 c 0,10,11
 662 350 662 350 509 116.5 c 128,-1,12
 356 -117 356 -117 90 -307 c 1,13,-1
 51 -307 l 1,0,1
EndSplineSet
Validated: 1
Substitution2: "'case' Case-Sensitive Forms in Latin lookup 26 subtable" parenright.case
Substitution2: "'aalt' Access All Alternates in Latin lookup 0 subtable" parenright.case
EndChar

StartChar: bracketleft
Encoding: 91 91 327
Width: 827
GlyphClass: 1
Flags: W
LayerCount: 2
Fore
SplineSet
184 1556 m 1,0,-1
 518 1556 l 1,1,-1
 518 -307 l 1,2,-1
 184 -307 l 1,3,-1
 184 1556 l 1,0,-1
238 -252 m 1,4,-1
 766 -252 l 1,5,-1
 766 -307 l 1,6,-1
 238 -307 l 1,7,-1
 238 -252 l 1,4,-1
238 1556 m 1,8,-1
 766 1556 l 1,9,-1
 766 1501 l 1,10,-1
 238 1501 l 1,11,-1
 238 1556 l 1,8,-1
EndSplineSet
Validated: 5
Substitution2: "'case' Case-Sensitive Forms in Latin lookup 26 subtable" bracketleft.case
Substitution2: "'aalt' Access All Alternates in Latin lookup 0 subtable" bracketleft.case
EndChar

StartChar: bracketright
Encoding: 93 93 328
Width: 827
GlyphClass: 1
Flags: W
LayerCount: 2
Fore
SplineSet
309 -307 m 1,0,-1
 309 1556 l 1,1,-1
 643 1556 l 1,2,-1
 643 -307 l 1,3,-1
 309 -307 l 1,0,-1
61 -307 m 1,4,-1
 61 -252 l 1,5,-1
 590 -252 l 1,6,-1
 590 -307 l 1,7,-1
 61 -307 l 1,4,-1
61 1501 m 1,8,-1
 61 1556 l 1,9,-1
 590 1556 l 1,10,-1
 590 1501 l 1,11,-1
 61 1501 l 1,8,-1
EndSplineSet
Validated: 5
Substitution2: "'case' Case-Sensitive Forms in Latin lookup 26 subtable" bracketright.case
Substitution2: "'aalt' Access All Alternates in Latin lookup 0 subtable" bracketright.case
EndChar

StartChar: braceleft
Encoding: 123 123 329
Width: 839
GlyphClass: 1
Flags: W
LayerCount: 2
Fore
SplineSet
378 -207 m 128,-1,1
 244 -127 244 -127 244 12 c 0,2,3
 244 53 244 53 253 103.5 c 128,-1,4
 262 154 262 154 272 201 c 0,5,6
 282 246 282 246 290.5 295 c 128,-1,7
 299 344 299 344 299 383 c 0,8,9
 299 506 299 506 244.5 557 c 128,-1,10
 190 608 190 608 61 608 c 1,11,-1
 61 641 l 1,12,13
 190 641 190 641 244.5 692 c 128,-1,14
 299 743 299 743 299 866 c 0,15,16
 299 905 299 905 291 954.5 c 128,-1,17
 283 1004 283 1004 272 1049 c 0,18,19
 262 1096 262 1096 253 1146 c 128,-1,20
 244 1196 244 1196 244 1237 c 0,21,22
 244 1376 244 1376 378 1456 c 128,-1,23
 512 1536 512 1536 778 1556 c 1,24,-1
 778 1524 l 1,25,26
 688 1508 688 1508 643 1484 c 128,-1,27
 598 1460 598 1460 579.5 1417 c 128,-1,28
 561 1374 561 1374 561 1296 c 0,29,30
 561 1255 561 1255 568 1206 c 128,-1,31
 575 1157 575 1157 584 1112 c 0,32,33
 594 1069 594 1069 600 1024 c 128,-1,34
 606 979 606 979 606 940 c 0,35,36
 606 842 606 842 560 775.5 c 128,-1,37
 514 709 514 709 421 671 c 128,-1,38
 328 633 328 633 186 625 c 1,39,40
 327 617 327 617 420.5 579 c 128,-1,41
 514 541 514 541 560 474.5 c 128,-1,42
 606 408 606 408 606 309 c 0,43,44
 606 270 606 270 600 225 c 128,-1,45
 594 180 594 180 584 137 c 0,46,47
 576 92 576 92 568.5 43 c 128,-1,48
 561 -6 561 -6 561 -47 c 0,49,50
 561 -125 561 -125 579.5 -168 c 128,-1,51
 598 -211 598 -211 643 -234.5 c 128,-1,52
 688 -258 688 -258 778 -274 c 1,53,-1
 778 -307 l 1,54,0
 512 -287 512 -287 378 -207 c 128,-1,1
EndSplineSet
Validated: 1
Substitution2: "'case' Case-Sensitive Forms in Latin lookup 26 subtable" braceleft.case
Substitution2: "'aalt' Access All Alternates in Latin lookup 0 subtable" braceleft.case
EndChar

StartChar: braceright
Encoding: 125 125 330
Width: 839
GlyphClass: 1
Flags: W
LayerCount: 2
Fore
SplineSet
61 -274 m 1,0,1
 151 -258 151 -258 196.5 -234.5 c 128,-1,2
 242 -211 242 -211 260.5 -168 c 128,-1,3
 279 -125 279 -125 279 -47 c 0,4,5
 279 -6 279 -6 271.5 43 c 128,-1,6
 264 92 264 92 256 137 c 0,7,8
 246 180 246 180 239.5 225 c 128,-1,9
 233 270 233 270 233 309 c 0,10,11
 233 407 233 407 279.5 474 c 128,-1,12
 326 541 326 541 419 578.5 c 128,-1,13
 512 616 512 616 653 625 c 1,14,15
 512 633 512 633 419 671 c 128,-1,16
 326 709 326 709 279.5 775.5 c 128,-1,17
 233 842 233 842 233 940 c 0,18,19
 233 979 233 979 239.5 1024 c 128,-1,20
 246 1069 246 1069 256 1112 c 0,21,22
 264 1157 264 1157 271.5 1206 c 128,-1,23
 279 1255 279 1255 279 1296 c 0,24,25
 279 1374 279 1374 260.5 1417 c 128,-1,26
 242 1460 242 1460 197 1483.5 c 128,-1,27
 152 1507 152 1507 61 1524 c 1,28,-1
 61 1556 l 1,29,30
 329 1536 329 1536 462.5 1456 c 128,-1,31
 596 1376 596 1376 596 1237 c 0,32,33
 596 1196 596 1196 587 1146 c 128,-1,34
 578 1096 578 1096 567 1049 c 0,35,36
 557 1004 557 1004 549 954.5 c 128,-1,37
 541 905 541 905 541 866 c 0,38,39
 541 743 541 743 595 692 c 128,-1,40
 649 641 649 641 778 641 c 1,41,-1
 778 608 l 1,42,43
 649 608 649 608 595 557 c 128,-1,44
 541 506 541 506 541 383 c 0,45,46
 541 344 541 344 549 295 c 128,-1,47
 557 246 557 246 567 201 c 0,48,49
 577 154 577 154 586.5 103.5 c 128,-1,50
 596 53 596 53 596 12 c 0,51,52
 596 -127 596 -127 463 -207 c 128,-1,53
 330 -287 330 -287 61 -307 c 1,54,-1
 61 -274 l 1,0,1
EndSplineSet
Validated: 1
Substitution2: "'case' Case-Sensitive Forms in Latin lookup 26 subtable" braceright.case
Substitution2: "'aalt' Access All Alternates in Latin lookup 0 subtable" braceright.case
EndChar

StartChar: guillemotright
Encoding: 187 187 332
Width: 1159
GlyphClass: 1
Flags: W
LayerCount: 2
Fore
SplineSet
72 123 m 1,0,-1
 291 641 l 1,1,-1
 291 506 l 1,2,-1
 72 1024 l 1,3,-1
 100 1024 l 1,4,-1
 629 573 l 1,5,-1
 100 123 l 1,6,-1
 72 123 l 1,0,-1
530 123 m 1,7,-1
 750 641 l 1,8,-1
 750 506 l 1,9,-1
 530 1024 l 1,10,-1
 559 1024 l 1,11,-1
 1087 573 l 1,12,-1
 559 123 l 1,13,-1
 530 123 l 1,7,-1
EndSplineSet
Validated: 5
Substitution2: "'case' Case-Sensitive Forms in Latin lookup 26 subtable" guillemotright.case
Substitution2: "'aalt' Access All Alternates in Latin lookup 0 subtable" guillemotright.case
EndChar

StartChar: zero
Encoding: 48 48 333
Width: 1462
GlyphClass: 1
Flags: W
LayerCount: 2
Fore
SplineSet
398.5 67.5 m 128,-1,1
 250 166 250 166 166 338 c 128,-1,2
 82 510 82 510 82 721 c 0,3,4
 82 934 82 934 166 1106 c 128,-1,5
 250 1278 250 1278 398.5 1376.5 c 128,-1,6
 547 1475 547 1475 731 1475 c 256,7,8
 915 1475 915 1475 1063.5 1376.5 c 128,-1,9
 1212 1278 1212 1278 1296 1106 c 128,-1,10
 1380 934 1380 934 1380 721 c 0,11,12
 1380 510 1380 510 1296 338 c 128,-1,13
 1212 166 1212 166 1063.5 67.5 c 128,-1,14
 915 -31 915 -31 731 -31 c 256,15,0
 547 -31 547 -31 398.5 67.5 c 128,-1,1
854 97.5 m 128,-1,17
 903 168 903 168 928.5 321.5 c 128,-1,18
 954 475 954 475 954 721 c 256,19,20
 954 967 954 967 928.5 1120.5 c 128,-1,21
 903 1274 903 1274 854 1345.5 c 128,-1,22
 805 1417 805 1417 731 1417 c 256,23,24
 657 1417 657 1417 607 1345.5 c 128,-1,25
 557 1274 557 1274 531.5 1119.5 c 128,-1,26
 506 965 506 965 506 721 c 256,27,28
 506 477 506 477 531.5 322.5 c 128,-1,29
 557 168 557 168 607 97.5 c 128,-1,30
 657 27 657 27 731 27 c 256,31,16
 805 27 805 27 854 97.5 c 128,-1,17
EndSplineSet
Validated: 1
Substitution2: "'zero' Slashed Zero in Latin lookup 29 subtable" zero.zero
Substitution2: "'smcp' Lowercase to Small Capitals in Latin lookup 25 subtable" zero.sc
Substitution2: "'c2sc' Capitals to Small Capitals in Latin lookup 24 subtable" zero.sc
Substitution2: "'onum' Oldstyle Figures in Latin lookup 23 subtable" zero.osf
Substitution2: "'tnum' Tabular Numbers in Latin lookup 22 subtable" zero.tf
Substitution2: "'frac' Diagonal Fractions in Latin lookup 16 subtable" zero.numr
Substitution2: "'dnom' Denominators in Latin lookup 14 subtable" zero.dnom
Substitution2: "'numr' Numerators in Latin lookup 13 subtable" zero.numr
Substitution2: "'sups' Superscript in Latin lookup 12 subtable" uni2070
Substitution2: "'sinf' Scientific Inferiors in Latin lookup 11 subtable" uni2080
Substitution2: "'subs' Subscript in Latin lookup 10 subtable" uni2080
AlternateSubs2: "'aalt' Access All Alternates in Latin lookup 1 subtable" zero.zero zero.tf zero.osf zero.sc zero.dnom zero.numr uni2080 uni2070
EndChar

StartChar: one
Encoding: 49 49 334
Width: 876
GlyphClass: 1
Flags: W
LayerCount: 2
Fore
SplineSet
283 0 m 1,0,-1
 61 0 l 1,1,-1
 61 41 l 1,2,3
 139 41 139 41 175 57.5 c 128,-1,4
 211 74 211 74 222 110.5 c 128,-1,5
 233 147 233 147 233 225 c 2,6,-1
 233 1217 l 1,7,-1
 334 1206 l 1,8,-1
 61 1135 l 1,9,-1
 61 1165 l 1,10,-1
 664 1450 l 1,11,-1
 664 225 l 2,12,13
 664 147 664 147 675 110.5 c 128,-1,14
 686 74 686 74 722 57.5 c 128,-1,15
 758 41 758 41 836 41 c 1,16,-1
 836 0 l 1,17,-1
 614 0 l 1,18,-1
 283 0 l 1,0,-1
EndSplineSet
Validated: 5
Substitution2: "'smcp' Lowercase to Small Capitals in Latin lookup 25 subtable" one.sc
Substitution2: "'c2sc' Capitals to Small Capitals in Latin lookup 24 subtable" one.sc
Substitution2: "'onum' Oldstyle Figures in Latin lookup 23 subtable" one.osf
Substitution2: "'tnum' Tabular Numbers in Latin lookup 22 subtable" one.tf
Substitution2: "'frac' Diagonal Fractions in Latin lookup 16 subtable" one.numr
Substitution2: "'dnom' Denominators in Latin lookup 14 subtable" one.dnom
Substitution2: "'numr' Numerators in Latin lookup 13 subtable" one.numr
Substitution2: "'sups' Superscript in Latin lookup 12 subtable" uni00B9
Substitution2: "'sinf' Scientific Inferiors in Latin lookup 11 subtable" uni2081
Substitution2: "'subs' Subscript in Latin lookup 10 subtable" uni2081
AlternateSubs2: "'aalt' Access All Alternates in Latin lookup 1 subtable" one.tf one.osf one.sc one.dnom one.numr uni2081 uni00B9
EndChar

StartChar: two
Encoding: 50 50 335
Width: 1214
GlyphClass: 1
Flags: W
LayerCount: 2
Fore
SplineSet
376 441.5 m 128,-1,1
 506 600 506 600 560 721 c 128,-1,2
 614 842 614 842 614 965 c 0,3,4
 614 1094 614 1094 547.5 1163.5 c 128,-1,5
 481 1233 481 1233 354 1233 c 0,6,7
 268 1233 268 1233 193.5 1200 c 128,-1,8
 119 1167 119 1167 55 1108 c 1,9,-1
 55 1145 l 1,10,11
 139 1290 139 1290 281.5 1382.5 c 128,-1,12
 424 1475 424 1475 598 1475 c 0,13,14
 805 1475 805 1475 916.5 1373.5 c 128,-1,15
 1028 1272 1028 1272 1028 1110 c 0,16,17
 1028 987 1028 987 950 858 c 128,-1,18
 872 729 872 729 707.5 590 c 128,-1,19
 543 451 543 451 287 297 c 1,20,-1
 309 328 l 1,21,-1
 821 328 l 2,22,23
 903 328 903 328 959.5 343 c 128,-1,24
 1016 358 1016 358 1059 394 c 128,-1,25
 1102 430 1102 430 1143 492 c 1,26,-1
 1194 492 l 1,27,-1
 993 0 l 1,28,-1
 0 0 l 1,29,-1
 0 31 l 1,30,0
 246 283 246 283 376 441.5 c 128,-1,1
EndSplineSet
Validated: 5
Substitution2: "'smcp' Lowercase to Small Capitals in Latin lookup 25 subtable" two.sc
Substitution2: "'c2sc' Capitals to Small Capitals in Latin lookup 24 subtable" two.sc
Substitution2: "'onum' Oldstyle Figures in Latin lookup 23 subtable" two.osf
Substitution2: "'tnum' Tabular Numbers in Latin lookup 22 subtable" two.tf
Substitution2: "'frac' Diagonal Fractions in Latin lookup 16 subtable" two.numr
Substitution2: "'dnom' Denominators in Latin lookup 14 subtable" two.dnom
Substitution2: "'numr' Numerators in Latin lookup 13 subtable" two.numr
Substitution2: "'sups' Superscript in Latin lookup 12 subtable" uni00B2
Substitution2: "'sinf' Scientific Inferiors in Latin lookup 11 subtable" uni2082
Substitution2: "'subs' Subscript in Latin lookup 10 subtable" uni2082
AlternateSubs2: "'aalt' Access All Alternates in Latin lookup 1 subtable" two.tf two.osf two.sc two.dnom two.numr uni2082 uni00B2
EndChar

StartChar: three
Encoding: 51 51 336
Width: 1189
GlyphClass: 1
Flags: W
LayerCount: 2
Fore
SplineSet
265.5 9 m 128,-1,1
 150 49 150 49 85 115.5 c 128,-1,2
 20 182 20 182 20 262 c 0,3,4
 20 321 20 321 54 369.5 c 128,-1,5
 88 418 88 418 141 451 c 1,6,-1
 301 451 l 1,7,8
 324 226 324 226 392.5 123 c 128,-1,9
 461 20 461 20 590 20 c 0,10,11
 688 20 688 20 751.5 91 c 128,-1,12
 815 162 815 162 815 279 c 0,13,14
 815 455 815 455 685 558.5 c 128,-1,15
 555 662 555 662 319 664 c 1,16,-1
 319 694 l 1,17,18
 428 727 428 727 506 780.5 c 128,-1,19
 584 834 584 834 623 899.5 c 128,-1,20
 662 965 662 965 662 1032 c 0,21,22
 662 1124 662 1124 602.5 1183.5 c 128,-1,23
 543 1243 543 1243 418 1243 c 0,24,25
 338 1243 338 1243 266.5 1216.5 c 128,-1,26
 195 1190 195 1190 137 1141 c 1,27,-1
 137 1178 l 1,28,29
 211 1305 211 1305 345 1390 c 128,-1,30
 479 1475 479 1475 649 1475 c 0,31,32
 770 1475 770 1475 858 1435 c 128,-1,33
 946 1395 946 1395 993 1330.5 c 128,-1,34
 1040 1266 1040 1266 1040 1190 c 0,35,36
 1040 1071 1040 1071 932.5 993 c 128,-1,37
 825 915 825 915 623 872 c 1,38,-1
 655 891 l 1,39,40
 882 854 882 854 1005 744.5 c 128,-1,41
 1128 635 1128 635 1128 469 c 0,42,43
 1128 324 1128 324 1051.5 210 c 128,-1,44
 975 96 975 96 837.5 32.5 c 128,-1,45
 700 -31 700 -31 528 -31 c 0,46,0
 381 -31 381 -31 265.5 9 c 128,-1,1
EndSplineSet
Validated: 5
Substitution2: "'smcp' Lowercase to Small Capitals in Latin lookup 25 subtable" three.sc
Substitution2: "'c2sc' Capitals to Small Capitals in Latin lookup 24 subtable" three.sc
Substitution2: "'onum' Oldstyle Figures in Latin lookup 23 subtable" three.osf
Substitution2: "'tnum' Tabular Numbers in Latin lookup 22 subtable" three.tf
Substitution2: "'frac' Diagonal Fractions in Latin lookup 16 subtable" three.numr
Substitution2: "'dnom' Denominators in Latin lookup 14 subtable" three.dnom
Substitution2: "'numr' Numerators in Latin lookup 13 subtable" three.numr
Substitution2: "'sups' Superscript in Latin lookup 12 subtable" uni00B3
Substitution2: "'sinf' Scientific Inferiors in Latin lookup 11 subtable" uni2083
Substitution2: "'subs' Subscript in Latin lookup 10 subtable" uni2083
AlternateSubs2: "'aalt' Access All Alternates in Latin lookup 1 subtable" three.tf three.osf three.sc three.dnom three.numr uni2083 uni00B3
EndChar

StartChar: four
Encoding: 52 52 337
Width: 1284
GlyphClass: 1
Flags: W
LayerCount: 2
Fore
SplineSet
682 0 m 1,0,-1
 498 0 l 1,1,-1
 498 41 l 1,2,3
 564 41 564 41 593.5 57.5 c 128,-1,4
 623 74 623 74 632 110.5 c 128,-1,5
 641 147 641 147 641 225 c 2,6,-1
 641 1100 l 1,7,-1
 678 1100 l 1,8,-1
 180 494 l 1,9,-1
 186 543 l 1,10,-1
 1264 543 l 1,11,-1
 1264 371 l 1,12,-1
 20 371 l 1,13,-1
 20 391 l 1,14,-1
 899 1464 l 1,15,-1
 1010 1464 l 1,16,-1
 1010 225 l 2,17,18
 1010 147 1010 147 1019 110.5 c 128,-1,19
 1028 74 1028 74 1057.5 57.5 c 128,-1,20
 1087 41 1087 41 1153 41 c 1,21,-1
 1153 0 l 1,22,-1
 969 0 l 1,23,-1
 682 0 l 1,0,-1
EndSplineSet
Validated: 5
Substitution2: "'smcp' Lowercase to Small Capitals in Latin lookup 25 subtable" four.sc
Substitution2: "'c2sc' Capitals to Small Capitals in Latin lookup 24 subtable" four.sc
Substitution2: "'onum' Oldstyle Figures in Latin lookup 23 subtable" four.osf
Substitution2: "'tnum' Tabular Numbers in Latin lookup 22 subtable" four.tf
Substitution2: "'frac' Diagonal Fractions in Latin lookup 16 subtable" four.numr
Substitution2: "'dnom' Denominators in Latin lookup 14 subtable" four.dnom
Substitution2: "'numr' Numerators in Latin lookup 13 subtable" four.numr
Substitution2: "'sups' Superscript in Latin lookup 12 subtable" uni2074
Substitution2: "'sinf' Scientific Inferiors in Latin lookup 11 subtable" uni2084
Substitution2: "'subs' Subscript in Latin lookup 10 subtable" uni2084
AlternateSubs2: "'aalt' Access All Alternates in Latin lookup 1 subtable" four.tf four.osf four.sc four.dnom four.numr uni2084 uni2074
EndChar

StartChar: five
Encoding: 53 53 338
Width: 1136
GlyphClass: 1
Flags: W
LayerCount: 2
Fore
SplineSet
253 8 m 128,-1,1
 141 47 141 47 80.5 114.5 c 128,-1,2
 20 182 20 182 20 262 c 0,3,4
 20 323 20 323 54 370.5 c 128,-1,5
 88 418 88 418 141 451 c 1,6,-1
 295 451 l 1,7,8
 307 232 307 232 373.5 125 c 128,-1,9
 440 18 440 18 567 18 c 0,10,11
 659 18 659 18 717.5 85 c 128,-1,12
 776 152 776 152 776 256 c 0,13,14
 776 440 776 440 627.5 538.5 c 128,-1,15
 479 637 479 637 156 664 c 1,16,-1
 338 1444 l 1,17,-1
 1085 1444 l 1,18,-1
 1018 1114 l 1,19,-1
 283 1114 l 1,20,-1
 322 1163 l 1,21,-1
 270 934 l 1,22,-1
 250 987 l 1,23,24
 500 964 500 964 681 912 c 128,-1,25
 862 860 862 860 973.5 749.5 c 128,-1,26
 1085 639 1085 639 1085 455 c 0,27,28
 1085 320 1085 320 1009.5 208 c 128,-1,29
 934 96 934 96 803 32.5 c 128,-1,30
 672 -31 672 -31 512 -31 c 0,31,0
 365 -31 365 -31 253 8 c 128,-1,1
EndSplineSet
Validated: 5
Substitution2: "'smcp' Lowercase to Small Capitals in Latin lookup 25 subtable" five.sc
Substitution2: "'c2sc' Capitals to Small Capitals in Latin lookup 24 subtable" five.sc
Substitution2: "'onum' Oldstyle Figures in Latin lookup 23 subtable" five.osf
Substitution2: "'tnum' Tabular Numbers in Latin lookup 22 subtable" five.tf
Substitution2: "'frac' Diagonal Fractions in Latin lookup 16 subtable" five.numr
Substitution2: "'dnom' Denominators in Latin lookup 14 subtable" five.dnom
Substitution2: "'numr' Numerators in Latin lookup 13 subtable" five.numr
Substitution2: "'sups' Superscript in Latin lookup 12 subtable" uni2075
Substitution2: "'sinf' Scientific Inferiors in Latin lookup 11 subtable" uni2085
Substitution2: "'subs' Subscript in Latin lookup 10 subtable" uni2085
AlternateSubs2: "'aalt' Access All Alternates in Latin lookup 1 subtable" five.tf five.osf five.sc five.dnom five.numr uni2085 uni2075
EndChar

StartChar: six
Encoding: 54 54 339
Width: 1292
GlyphClass: 1
Flags: W
LayerCount: 2
Fore
SplineSet
364.5 46 m 128,-1,1
 227 123 227 123 144 258 c 128,-1,2
 61 393 61 393 61 561 c 0,3,4
 61 774 61 774 195.5 962.5 c 128,-1,5
 330 1151 330 1151 558 1284 c 128,-1,6
 786 1417 786 1417 1061 1475 c 1,7,-1
 1118 1475 l 1,8,9
 815 1276 815 1276 638 1012 c 128,-1,10
 461 748 461 748 461 471 c 0,11,12
 461 248 461 248 520.5 134 c 128,-1,13
 580 20 580 20 684 20 c 0,14,15
 768 20 768 20 811 103 c 128,-1,16
 854 186 854 186 854 324 c 0,17,18
 854 476 854 476 791.5 562.5 c 128,-1,19
 729 649 729 649 618 649 c 0,20,21
 598 649 598 649 573.5 646 c 128,-1,22
 549 643 549 643 532 635 c 1,23,-1
 532 657 l 1,24,25
 591 737 591 737 677.5 784 c 128,-1,26
 764 831 764 831 862 831 c 0,27,28
 964 831 964 831 1046 781 c 128,-1,29
 1128 731 1128 731 1174.5 644 c 128,-1,30
 1221 557 1221 557 1221 451 c 0,31,32
 1221 320 1221 320 1146 209 c 128,-1,33
 1071 98 1071 98 942 33.5 c 128,-1,34
 813 -31 813 -31 659 -31 c 0,35,0
 502 -31 502 -31 364.5 46 c 128,-1,1
EndSplineSet
Validated: 1
Substitution2: "'smcp' Lowercase to Small Capitals in Latin lookup 25 subtable" six.sc
Substitution2: "'c2sc' Capitals to Small Capitals in Latin lookup 24 subtable" six.sc
Substitution2: "'onum' Oldstyle Figures in Latin lookup 23 subtable" six.osf
Substitution2: "'tnum' Tabular Numbers in Latin lookup 22 subtable" six.tf
Substitution2: "'frac' Diagonal Fractions in Latin lookup 16 subtable" six.numr
Substitution2: "'dnom' Denominators in Latin lookup 14 subtable" six.dnom
Substitution2: "'numr' Numerators in Latin lookup 13 subtable" six.numr
Substitution2: "'sups' Superscript in Latin lookup 12 subtable" uni2076
Substitution2: "'sinf' Scientific Inferiors in Latin lookup 11 subtable" uni2086
Substitution2: "'subs' Subscript in Latin lookup 10 subtable" uni2086
AlternateSubs2: "'aalt' Access All Alternates in Latin lookup 1 subtable" six.tf six.osf six.sc six.dnom six.numr uni2086 uni2076
EndChar

StartChar: seven
Encoding: 55 55 340
Width: 1110
GlyphClass: 1
Flags: W
LayerCount: 2
Fore
SplineSet
963 1210 m 1,0,-1
 930 1108 l 1,1,-1
 303 1108 l 2,2,3
 221 1108 221 1108 180 1096.5 c 128,-1,4
 139 1085 139 1085 111.5 1054.5 c 128,-1,5
 84 1024 84 1024 51 954 c 1,6,-1
 10 954 l 1,7,-1
 141 1444 l 1,8,-1
 1100 1444 l 1,9,-1
 1100 1413 l 1,10,-1
 532 0 l 1,11,-1
 152 0 l 1,12,-1
 963 1210 l 1,0,-1
EndSplineSet
Validated: 5
Substitution2: "'smcp' Lowercase to Small Capitals in Latin lookup 25 subtable" seven.sc
Substitution2: "'c2sc' Capitals to Small Capitals in Latin lookup 24 subtable" seven.sc
Substitution2: "'onum' Oldstyle Figures in Latin lookup 23 subtable" seven.osf
Substitution2: "'tnum' Tabular Numbers in Latin lookup 22 subtable" seven.tf
Substitution2: "'frac' Diagonal Fractions in Latin lookup 16 subtable" seven.numr
Substitution2: "'dnom' Denominators in Latin lookup 14 subtable" seven.dnom
Substitution2: "'numr' Numerators in Latin lookup 13 subtable" seven.numr
Substitution2: "'sups' Superscript in Latin lookup 12 subtable" uni2077
Substitution2: "'sinf' Scientific Inferiors in Latin lookup 11 subtable" uni2087
Substitution2: "'subs' Subscript in Latin lookup 10 subtable" uni2087
AlternateSubs2: "'aalt' Access All Alternates in Latin lookup 1 subtable" seven.tf seven.osf seven.sc seven.dnom seven.numr uni2087 uni2077
EndChar

StartChar: eight
Encoding: 56 56 341
Width: 1294
GlyphClass: 1
Flags: W
LayerCount: 2
Fore
SplineSet
330 15 m 128,-1,1
 209 61 209 61 140.5 144 c 128,-1,2
 72 227 72 227 72 332 c 0,3,4
 72 463 72 463 174 547 c 128,-1,5
 276 631 276 631 471 657 c 1,6,-1
 483 657 l 1,7,8
 448 608 448 608 428 529.5 c 128,-1,9
 408 451 408 451 408 360 c 0,10,11
 408 204 408 204 476.5 112 c 128,-1,12
 545 20 545 20 659 20 c 0,13,14
 722 20 722 20 773.5 52 c 128,-1,15
 825 84 825 84 855 138.5 c 128,-1,16
 885 193 885 193 885 262 c 0,17,18
 885 338 885 338 848 391 c 128,-1,19
 811 444 811 444 729 487 c 2,20,-1
 350 690 l 2,21,22
 235 751 235 751 178 835.5 c 128,-1,23
 121 920 121 920 121 1028 c 0,24,25
 121 1155 121 1155 194.5 1257.5 c 128,-1,26
 268 1360 268 1360 398 1417.5 c 128,-1,27
 528 1475 528 1475 690 1475 c 0,28,29
 829 1475 829 1475 942 1434 c 128,-1,30
 1055 1393 1055 1393 1119.5 1321 c 128,-1,31
 1184 1249 1184 1249 1184 1161 c 0,32,33
 1184 1048 1184 1048 1084.5 973.5 c 128,-1,34
 985 899 985 899 809 879 c 1,35,-1
 801 881 l 1,36,37
 830 928 830 928 846 1004.5 c 128,-1,38
 862 1081 862 1081 862 1157 c 0,39,40
 862 1286 862 1286 809 1354.5 c 128,-1,41
 756 1423 756 1423 655 1423 c 0,42,43
 565 1423 565 1423 512 1370 c 128,-1,44
 459 1317 459 1317 459 1229 c 0,45,46
 459 1159 459 1159 500 1106 c 128,-1,47
 541 1053 541 1053 631 1006 c 2,48,-1
 993 813 l 2,49,50
 1106 754 1106 754 1164.5 663.5 c 128,-1,51
 1223 573 1223 573 1223 459 c 0,52,53
 1223 320 1223 320 1143 208 c 128,-1,54
 1063 96 1063 96 921.5 32.5 c 128,-1,55
 780 -31 780 -31 606 -31 c 0,56,0
 451 -31 451 -31 330 15 c 128,-1,1
EndSplineSet
Validated: 5
Substitution2: "'smcp' Lowercase to Small Capitals in Latin lookup 25 subtable" eight.sc
Substitution2: "'c2sc' Capitals to Small Capitals in Latin lookup 24 subtable" eight.sc
Substitution2: "'onum' Oldstyle Figures in Latin lookup 23 subtable" eight.osf
Substitution2: "'tnum' Tabular Numbers in Latin lookup 22 subtable" eight.tf
Substitution2: "'frac' Diagonal Fractions in Latin lookup 16 subtable" eight.numr
Substitution2: "'dnom' Denominators in Latin lookup 14 subtable" eight.dnom
Substitution2: "'numr' Numerators in Latin lookup 13 subtable" eight.numr
Substitution2: "'sups' Superscript in Latin lookup 12 subtable" uni2078
Substitution2: "'sinf' Scientific Inferiors in Latin lookup 11 subtable" uni2088
Substitution2: "'subs' Subscript in Latin lookup 10 subtable" uni2088
AlternateSubs2: "'aalt' Access All Alternates in Latin lookup 1 subtable" eight.tf eight.osf eight.sc eight.dnom eight.numr uni2088 uni2078
EndChar

StartChar: zero.zero
Encoding: 65540 -1 343
Width: 1462
GlyphClass: 1
Flags: W
LayerCount: 2
Fore
SplineSet
520 131 m 1,0,-1
 909 1395 l 1,1,-1
 944 1337 l 1,2,-1
 553 68 l 1,3,-1
 520 131 l 1,0,-1
398.5 67.5 m 128,-1,5
 250 166 250 166 166 338 c 128,-1,6
 82 510 82 510 82 721 c 0,7,8
 82 934 82 934 166 1106 c 128,-1,9
 250 1278 250 1278 398.5 1376.5 c 128,-1,10
 547 1475 547 1475 731 1475 c 256,11,12
 915 1475 915 1475 1063.5 1376.5 c 128,-1,13
 1212 1278 1212 1278 1296 1106 c 128,-1,14
 1380 934 1380 934 1380 721 c 0,15,16
 1380 510 1380 510 1296 338 c 128,-1,17
 1212 166 1212 166 1063.5 67.5 c 128,-1,18
 915 -31 915 -31 731 -31 c 256,19,4
 547 -31 547 -31 398.5 67.5 c 128,-1,5
854 97.5 m 128,-1,21
 903 168 903 168 928.5 321.5 c 128,-1,22
 954 475 954 475 954 721 c 256,23,24
 954 967 954 967 928.5 1120.5 c 128,-1,25
 903 1274 903 1274 854 1345.5 c 128,-1,26
 805 1417 805 1417 731 1417 c 256,27,28
 657 1417 657 1417 607 1345.5 c 128,-1,29
 557 1274 557 1274 531.5 1119.5 c 128,-1,30
 506 965 506 965 506 721 c 256,31,32
 506 477 506 477 531.5 322.5 c 128,-1,33
 557 168 557 168 607 97.5 c 128,-1,34
 657 27 657 27 731 27 c 256,35,20
 805 27 805 27 854 97.5 c 128,-1,21
EndSplineSet
Validated: 5
EndChar

StartChar: asterisk
Encoding: 42 42 344
Width: 954
GlyphClass: 1
Flags: W
LayerCount: 2
Fore
SplineSet
575.5 1625 m 128,-1,1
 639 1595 639 1595 648 1531.5 c 128,-1,2
 657 1468 657 1468 610 1397 c 2,3,-1
 475 1196 l 1,4,-1
 469 1196 l 1,5,-1
 406 1628 l 1,6,0
 512 1655 512 1655 575.5 1625 c 128,-1,1
161.5 1499 m 128,-1,8
 219 1540 219 1540 278.5 1515.5 c 128,-1,9
 338 1491 338 1491 375 1415 c 2,10,-1
 481 1196 l 1,11,-1
 479 1192 l 1,12,-1
 74 1354 l 1,13,7
 104 1458 104 1458 161.5 1499 c 128,-1,8
62.5 1075.5 m 128,-1,15
 55 1145 55 1145 106.5 1186 c 128,-1,16
 158 1227 158 1227 242 1221 c 2,17,-1
 483 1202 l 1,18,-1
 487 1198 l 1,19,-1
 145 928 l 1,20,14
 70 1006 70 1006 62.5 1075.5 c 128,-1,15
378.5 779.5 m 128,-1,22
 315 809 315 809 306 872.5 c 128,-1,23
 297 936 297 936 344 1008 c 2,24,-1
 479 1208 l 1,25,-1
 485 1208 l 1,26,-1
 549 776 l 1,27,21
 442 750 442 750 378.5 779.5 c 128,-1,22
792.5 905 m 128,-1,29
 735 864 735 864 675.5 888.5 c 128,-1,30
 616 913 616 913 580 989 c 2,31,-1
 473 1208 l 1,32,-1
 475 1212 l 1,33,-1
 881 1051 l 1,34,28
 850 946 850 946 792.5 905 c 128,-1,29
892 1329.5 m 128,-1,36
 899 1260 899 1260 848 1219 c 128,-1,37
 797 1178 797 1178 713 1184 c 2,38,-1
 471 1202 l 1,39,-1
 467 1206 l 1,40,-1
 809 1477 l 1,41,35
 885 1399 885 1399 892 1329.5 c 128,-1,36
EndSplineSet
Validated: 37
EndChar

StartChar: asciitilde
Encoding: 126 126 345
Width: 1228
GlyphClass: 1
Flags: W
LayerCount: 2
Fore
SplineSet
236.5 667.5 m 128,-1,1
 311 772 311 772 440 772 c 0,2,3
 514 772 514 772 572.5 744.5 c 128,-1,4
 631 717 631 717 702 666 c 0,5,6
 765 625 765 625 803.5 605.5 c 128,-1,7
 842 586 842 586 885 586 c 0,8,9
 963 586 963 586 1016 627 c 128,-1,10
 1069 668 1069 668 1100 776 c 1,11,-1
 1120 776 l 1,12,13
 1087 579 1087 579 1012.5 475 c 128,-1,14
 938 371 938 371 809 371 c 0,15,16
 735 371 735 371 676.5 398.5 c 128,-1,17
 618 426 618 426 547 477 c 0,18,19
 484 520 484 520 446 538.5 c 128,-1,20
 408 557 408 557 365 557 c 0,21,22
 287 557 287 557 233.5 516 c 128,-1,23
 180 475 180 475 150 367 c 1,24,-1
 129 367 l 1,25,0
 162 563 162 563 236.5 667.5 c 128,-1,1
EndSplineSet
Validated: 1
EndChar

StartChar: backslash
Encoding: 92 92 346
Width: 759
GlyphClass: 1
Flags: W
LayerCount: 2
Fore
SplineSet
612 -307 m 1,0,-1
 41 1556 l 1,1,-1
 147 1556 l 1,2,-1
 719 -307 l 1,3,-1
 612 -307 l 1,0,-1
EndSplineSet
Validated: 1
Substitution2: "'case' Case-Sensitive Forms in Latin lookup 26 subtable" backslash.case
Substitution2: "'aalt' Access All Alternates in Latin lookup 0 subtable" backslash.case
EndChar

StartChar: quotesingle
Encoding: 39 39 348
Width: 464
GlyphClass: 1
Flags: W
LayerCount: 2
Fore
SplineSet
264 1648.5 m 128,-1,1
 354 1628 354 1628 390 1555.5 c 128,-1,2
 426 1483 426 1483 377 1354 c 2,3,-1
 221 942 l 1,4,-1
 195 942 l 1,5,-1
 61 1647 l 1,6,0
 174 1669 174 1669 264 1648.5 c 128,-1,1
EndSplineSet
Validated: 33
EndChar

StartChar: ampersand
Encoding: 38 38 351
Width: 1699
GlyphClass: 1
Flags: W
LayerCount: 2
Fore
SplineSet
1090.5 48 m 128,-1,1
 1044 86 1044 86 999 133 c 2,2,-1
 477 676 l 2,3,4
 362 793 362 793 314 885 c 128,-1,5
 266 977 266 977 266 1077 c 0,6,7
 266 1194 266 1194 327.5 1284 c 128,-1,8
 389 1374 389 1374 498.5 1424.5 c 128,-1,9
 608 1475 608 1475 748 1475 c 0,10,11
 871 1475 871 1475 973 1439 c 128,-1,12
 1075 1403 1075 1403 1134.5 1335.5 c 128,-1,13
 1194 1268 1194 1268 1194 1174 c 0,14,15
 1194 1068 1194 1068 1078.5 980.5 c 128,-1,16
 963 893 963 893 764 854 c 1,17,-1
 758 868 l 1,18,19
 832 958 832 958 869.5 1041 c 128,-1,20
 907 1124 907 1124 907 1206 c 0,21,22
 907 1308 907 1308 869 1365.5 c 128,-1,23
 831 1423 831 1423 760 1423 c 0,24,25
 682 1423 682 1423 640 1369 c 128,-1,26
 598 1315 598 1315 598 1237 c 0,27,28
 598 1155 598 1155 631 1079.5 c 128,-1,29
 664 1004 664 1004 745 926 c 2,30,-1
 1561 135 l 2,31,32
 1614 84 1614 84 1641.5 62.5 c 128,-1,33
 1669 41 1669 41 1690 41 c 1,34,-1
 1690 0 l 1,35,-1
 1159 0 l 1,36,0
 1137 10 1137 10 1090.5 48 c 128,-1,1
242 18.5 m 128,-1,38
 150 66 150 66 95.5 149.5 c 128,-1,39
 41 233 41 233 41 342 c 0,40,41
 41 489 41 489 149.5 591.5 c 128,-1,42
 258 694 258 694 465 737 c 1,43,-1
 465 725 l 1,44,45
 430 674 430 674 414.5 620.5 c 128,-1,46
 399 567 399 567 399 500 c 0,47,48
 399 408 399 408 440 343.5 c 128,-1,49
 481 279 481 279 551 247 c 128,-1,50
 621 215 621 215 707 215 c 0,51,52
 781 215 781 215 838 231.5 c 128,-1,53
 895 248 895 248 922 274 c 2,54,-1
 1141 465 l 1,55,56
 1184 533 1184 533 1232 650.5 c 128,-1,57
 1280 768 1280 768 1280 827 c 0,58,59
 1280 862 1280 862 1262.5 876.5 c 128,-1,60
 1245 891 1245 891 1204 891 c 1,61,-1
 1204 932 l 1,62,-1
 1657 932 l 1,63,-1
 1657 891 l 1,64,65
 1618 891 1618 891 1588.5 875.5 c 128,-1,66
 1559 860 1559 860 1535 835.5 c 128,-1,67
 1511 811 1511 811 1477 766 c 2,68,-1
 1452 735 l 2,69,70
 1389 653 1389 653 1310 569 c 128,-1,71
 1231 485 1231 485 1163 432 c 2,72,-1
 942 274 l 1,73,74
 836 116 836 116 725 43.5 c 128,-1,75
 614 -29 614 -29 446 -29 c 0,76,37
 334 -29 334 -29 242 18.5 c 128,-1,38
EndSplineSet
Validated: 5
Substitution2: "'smcp' Lowercase to Small Capitals in Latin lookup 25 subtable" ampersand.sc
Substitution2: "'c2sc' Capitals to Small Capitals in Latin lookup 24 subtable" ampersand.sc
Substitution2: "'aalt' Access All Alternates in Latin lookup 0 subtable" ampersand.sc
EndChar

StartChar: at
Encoding: 64 64 352
Width: 1947
GlyphClass: 1
Flags: W
LayerCount: 2
Fore
SplineSet
523 -258 m 128,-1,1
 307 -137 307 -137 184 73 c 128,-1,2
 61 283 61 283 61 543 c 0,3,4
 61 801 61 801 188 1015 c 128,-1,5
 315 1229 315 1229 535.5 1352 c 128,-1,6
 756 1475 756 1475 1022 1475 c 0,7,8
 1268 1475 1268 1475 1465.5 1368.5 c 128,-1,9
 1663 1262 1663 1262 1774.5 1074.5 c 128,-1,10
 1886 887 1886 887 1886 655 c 0,11,12
 1886 475 1886 475 1822.5 338 c 128,-1,13
 1759 201 1759 201 1645.5 125 c 128,-1,14
 1532 49 1532 49 1382 49 c 0,15,16
 1224 49 1224 49 1131 114.5 c 128,-1,17
 1038 180 1038 180 1038 293 c 2,18,-1
 1038 858 l 2,19,20
 1038 924 1038 924 1018.5 956.5 c 128,-1,21
 999 989 999 989 961 989 c 0,22,23
 926 989 926 989 906.5 962.5 c 128,-1,24
 887 936 887 936 878.5 871.5 c 128,-1,25
 870 807 870 807 870 690 c 1,26,-1
 481 690 l 1,27,28
 661 878 661 878 834.5 975.5 c 128,-1,29
 1008 1073 1008 1073 1163 1073 c 0,30,31
 1292 1073 1292 1073 1349.5 1005.5 c 128,-1,32
 1407 938 1407 938 1407 786 c 2,33,-1
 1407 227 l 2,34,35
 1407 182 1407 182 1428.5 158.5 c 128,-1,36
 1450 135 1450 135 1489 135 c 0,37,38
 1575 135 1575 135 1650.5 207 c 128,-1,39
 1726 279 1726 279 1771.5 397.5 c 128,-1,40
 1817 516 1817 516 1817 653 c 0,41,42
 1817 868 1817 868 1714.5 1041 c 128,-1,43
 1612 1214 1612 1214 1429.5 1312.5 c 128,-1,44
 1247 1411 1247 1411 1022 1411 c 0,45,46
 776 1411 776 1411 572.5 1296.5 c 128,-1,47
 369 1182 369 1182 251 983 c 128,-1,48
 133 784 133 784 133 543 c 256,49,50
 133 301 133 301 245.5 106.5 c 128,-1,51
 358 -88 358 -88 556 -198.5 c 128,-1,52
 754 -309 754 -309 999 -309 c 0,53,54
 1161 -309 1161 -309 1296.5 -279.5 c 128,-1,55
 1432 -250 1432 -250 1550 -186 c 1,56,-1
 1550 -256 l 1,57,58
 1444 -315 1444 -315 1301.5 -347 c 128,-1,59
 1159 -379 1159 -379 1006 -379 c 0,60,0
 739 -379 739 -379 523 -258 c 128,-1,1
607.5 80 m 128,-1,62
 549 111 549 111 515 164 c 128,-1,63
 481 217 481 217 481 281 c 0,64,65
 481 361 481 361 528 412 c 128,-1,66
 575 463 575 463 684 500 c 2,67,-1
 1047 623 l 1,68,-1
 1047 582 l 1,69,-1
 975 553 l 2,70,71
 918 530 918 530 888 488 c 128,-1,72
 858 446 858 446 858 387 c 0,73,74
 858 330 858 330 889 294 c 128,-1,75
 920 258 920 258 971 258 c 0,76,77
 1000 258 1000 258 1018 263 c 128,-1,78
 1036 268 1036 268 1053 281 c 1,79,-1
 1055 258 l 1,80,81
 992 149 992 149 915 99 c 128,-1,82
 838 49 838 49 735 49 c 0,83,61
 666 49 666 49 607.5 80 c 128,-1,62
EndSplineSet
Validated: 5
Substitution2: "'case' Case-Sensitive Forms in Latin lookup 26 subtable" at.case
Substitution2: "'aalt' Access All Alternates in Latin lookup 0 subtable" at.case
EndChar

StartChar: copyright
Encoding: 169 169 353
Width: 1773
GlyphClass: 1
Flags: W
LayerCount: 2
Fore
SplineSet
472.5 3.5 m 128,-1,1
 283 111 283 111 172 300 c 128,-1,2
 61 489 61 489 61 721 c 256,3,4
 61 952 61 952 172 1141.5 c 128,-1,5
 283 1331 283 1331 472.5 1438.5 c 128,-1,6
 662 1546 662 1546 889 1546 c 0,7,8
 1114 1546 1114 1546 1302.5 1438.5 c 128,-1,9
 1491 1331 1491 1331 1601.5 1141.5 c 128,-1,10
 1712 952 1712 952 1712 721 c 256,11,12
 1712 490 1712 490 1601.5 300.5 c 128,-1,13
 1491 111 1491 111 1302.5 3.5 c 128,-1,14
 1114 -104 1114 -104 889 -104 c 0,15,0
 662 -104 662 -104 472.5 3.5 c 128,-1,1
1273 48.5 m 128,-1,17
 1448 150 1448 150 1550.5 327 c 128,-1,18
 1653 504 1653 504 1653 721 c 256,19,20
 1653 938 1653 938 1550.5 1115 c 128,-1,21
 1448 1292 1448 1292 1273 1393.5 c 128,-1,22
 1098 1495 1098 1495 889 1495 c 0,23,24
 678 1495 678 1495 503 1393.5 c 128,-1,25
 328 1292 328 1292 224.5 1115 c 128,-1,26
 121 938 121 938 121 721 c 256,27,28
 121 504 121 504 224.5 327 c 128,-1,29
 328 150 328 150 503 48.5 c 128,-1,30
 678 -53 678 -53 889 -53 c 0,31,16
 1098 -53 1098 -53 1273 48.5 c 128,-1,17
647 288.5 m 128,-1,33
 532 354 532 354 466.5 468 c 128,-1,34
 401 582 401 582 401 725 c 0,35,36
 401 866 401 866 469 979 c 128,-1,37
 537 1092 537 1092 654.5 1155.5 c 128,-1,38
 772 1219 772 1219 922 1219 c 0,39,40
 1028 1219 1028 1219 1117 1189 c 128,-1,41
 1206 1159 1206 1159 1262 1114 c 1,42,-1
 1262 879 l 1,43,-1
 1231 879 l 1,44,45
 1194 1018 1194 1018 1129.5 1090.5 c 128,-1,46
 1065 1163 1065 1163 981 1163 c 0,47,48
 922 1163 922 1163 876.5 1110 c 128,-1,49
 831 1057 831 1057 807.5 957.5 c 128,-1,50
 784 858 784 858 784 723 c 256,51,52
 784 588 784 588 806.5 487.5 c 128,-1,53
 829 387 829 387 872 334 c 128,-1,54
 915 281 915 281 973 281 c 0,55,56
 1059 281 1059 281 1129.5 366 c 128,-1,57
 1200 451 1200 451 1249 612 c 1,58,-1
 1282 612 l 1,59,-1
 1249 328 l 1,60,61
 1200 289 1200 289 1106 256 c 128,-1,62
 1012 223 1012 223 907 223 c 0,63,32
 762 223 762 223 647 288.5 c 128,-1,33
EndSplineSet
Validated: 1
EndChar

StartChar: registered
Encoding: 174 174 354
Width: 1015
GlyphClass: 1
Flags: W
LayerCount: 2
Fore
SplineSet
273.5 590.5 m 128,-1,1
 166 653 166 653 103.5 761.5 c 128,-1,2
 41 870 41 870 41 1001 c 256,3,4
 41 1132 41 1132 103.5 1241 c 128,-1,5
 166 1350 166 1350 273.5 1412.5 c 128,-1,6
 381 1475 381 1475 508 1475 c 256,7,8
 635 1475 635 1475 742.5 1412.5 c 128,-1,9
 850 1350 850 1350 912.5 1241.5 c 128,-1,10
 975 1133 975 1133 975 1001 c 256,11,12
 975 870 975 870 912.5 761.5 c 128,-1,13
 850 653 850 653 742.5 590.5 c 128,-1,14
 635 528 635 528 508 528 c 256,15,0
 381 528 381 528 273.5 590.5 c 128,-1,1
720 627.5 m 128,-1,17
 817 686 817 686 873.5 784.5 c 128,-1,18
 930 883 930 883 930 1001 c 256,19,20
 930 1120 930 1120 873.5 1218.5 c 128,-1,21
 817 1317 817 1317 720 1375.5 c 128,-1,22
 623 1434 623 1434 508 1434 c 256,23,24
 393 1434 393 1434 296 1375.5 c 128,-1,25
 199 1317 199 1317 142.5 1218.5 c 128,-1,26
 86 1120 86 1120 86 1001 c 256,27,28
 86 882 86 882 142.5 784 c 128,-1,29
 199 686 199 686 296 627.5 c 128,-1,30
 393 569 393 569 508 569 c 256,31,16
 623 569 623 569 720 627.5 c 128,-1,17
318.5 798.5 m 128,-1,33
 330 811 330 811 330 852 c 2,34,-1
 330 1157 l 2,35,36
 330 1192 330 1192 317.5 1203 c 128,-1,37
 305 1214 305 1214 272 1214 c 1,38,-1
 272 1239 l 1,39,-1
 535 1239 l 2,40,41
 619 1239 619 1239 666 1210.5 c 128,-1,42
 713 1182 713 1182 713 1130 c 0,43,44
 713 1087 713 1087 680 1056.5 c 128,-1,45
 647 1026 647 1026 594 1020 c 1,46,-1
 563 997 l 1,47,-1
 434 997 l 1,48,-1
 434 1026 l 1,49,-1
 475 1026 l 2,50,51
 520 1026 520 1026 543.5 1049.5 c 128,-1,52
 567 1073 567 1073 567 1120 c 0,53,54
 567 1161 567 1161 544.5 1184.5 c 128,-1,55
 522 1208 522 1208 483 1208 c 2,56,-1
 444 1208 l 1,57,-1
 471 1223 l 1,58,-1
 471 852 l 2,59,60
 471 811 471 811 480 798.5 c 128,-1,61
 489 786 489 786 518 786 c 1,62,-1
 518 762 l 1,63,-1
 272 762 l 1,64,-1
 272 786 l 1,65,32
 307 786 307 786 318.5 798.5 c 128,-1,33
485 1010 m 1,66,-1
 600 1044 l 1,67,-1
 754 805 l 2,68,69
 760 795 760 795 767 790.5 c 128,-1,70
 774 786 774 786 784 786 c 1,71,-1
 784 762 l 1,72,-1
 621 762 l 1,73,-1
 485 1010 l 1,66,-1
EndSplineSet
Validated: 5
EndChar

StartChar: trademark
Encoding: 8482 8482 355
Width: 1828
GlyphClass: 1
Flags: W
LayerCount: 2
Fore
SplineSet
922 1346 m 1,0,-1
 950 1350 l 1,1,-1
 895 776 l 2,2,3
 891 741 891 741 895 723 c 128,-1,4
 899 705 899 705 915.5 695.5 c 128,-1,5
 932 686 932 686 969 686 c 1,6,-1
 969 664 l 1,7,-1
 784 664 l 1,8,-1
 784 686 l 1,9,10
 804 686 804 686 815.5 694 c 128,-1,11
 827 702 827 702 832.5 720.5 c 128,-1,12
 838 739 838 739 842 776 c 2,13,-1
 905 1329 l 2,14,15
 909 1366 909 1366 907 1384.5 c 128,-1,16
 905 1403 905 1403 895 1411 c 128,-1,17
 885 1419 885 1419 860 1419 c 1,18,-1
 860 1444 l 1,19,-1
 1186 1444 l 1,20,-1
 1300 1022 l 1,21,-1
 1253 981 l 1,22,-1
 1393 1444 l 1,23,-1
 1737 1444 l 1,24,-1
 1737 1419 l 1,25,26
 1712 1419 1712 1419 1701 1411 c 128,-1,27
 1690 1403 1690 1403 1688 1384.5 c 128,-1,28
 1686 1366 1686 1366 1690 1329 c 2,29,-1
 1753 770 l 2,30,31
 1757 737 1757 737 1762 719.5 c 128,-1,32
 1767 702 1767 702 1777.5 694 c 128,-1,33
 1788 686 1788 686 1808 686 c 1,34,-1
 1808 664 l 1,35,-1
 1384 664 l 1,36,-1
 1384 686 l 1,37,38
 1419 686 1419 686 1436.5 695.5 c 128,-1,39
 1454 705 1454 705 1458 723 c 128,-1,40
 1462 741 1462 741 1458 778 c 2,41,-1
 1399 1372 l 1,42,-1
 1421 1370 l 1,43,-1
 1192 643 l 1,44,-1
 1165 643 l 1,45,-1
 922 1346 l 1,0,-1
236.5 695.5 m 128,-1,47
 252 705 252 705 256 723 c 128,-1,48
 260 741 260 741 260 778 c 2,49,-1
 260 1417 l 1,50,-1
 549 1417 l 1,51,-1
 549 778 l 2,52,53
 549 741 549 741 554 723 c 128,-1,54
 559 705 559 705 574.5 695.5 c 128,-1,55
 590 686 590 686 621 686 c 1,56,-1
 621 664 l 1,57,-1
 190 664 l 1,58,-1
 190 686 l 1,59,46
 221 686 221 686 236.5 695.5 c 128,-1,47
61 1444 m 1,60,-1
 750 1444 l 1,61,-1
 770 1225 l 1,62,-1
 745 1225 l 1,63,64
 727 1313 727 1313 679 1360 c 128,-1,65
 631 1407 631 1407 580 1407 c 2,66,-1
 231 1407 l 2,67,68
 178 1407 178 1407 131 1359 c 128,-1,69
 84 1311 84 1311 66 1225 c 1,70,-1
 41 1225 l 1,71,-1
 61 1444 l 1,60,-1
EndSplineSet
Validated: 5
EndChar

StartChar: paragraph
Encoding: 182 182 356
Width: 1200
GlyphClass: 1
Flags: W
LayerCount: 2
Fore
SplineSet
362.5 -365.5 m 128,-1,1
 258 -334 258 -334 199.5 -277.5 c 128,-1,2
 141 -221 141 -221 141 -147 c 0,3,4
 141 -100 141 -100 168 -58 c 128,-1,5
 195 -16 195 -16 238 2 c 1,6,-1
 360 2 l 1,7,8
 360 -172 360 -172 424.5 -261 c 128,-1,9
 489 -350 489 -350 616 -350 c 0,10,11
 708 -350 708 -350 761.5 -265 c 128,-1,12
 815 -180 815 -180 815 -33 c 2,13,-1
 815 1430 l 1,14,-1
 907 1399 l 1,15,-1
 539 1399 l 1,16,-1
 612 1430 l 1,17,-1
 612 541 l 1,18,-1
 600 541 l 2,19,20
 434 541 434 541 312 597 c 128,-1,21
 190 653 190 653 125.5 753.5 c 128,-1,22
 61 854 61 854 61 987 c 256,23,24
 61 1120 61 1120 127 1224.5 c 128,-1,25
 193 1329 193 1329 315.5 1386.5 c 128,-1,26
 438 1444 438 1444 604 1444 c 2,27,-1
 975 1444 l 1,28,-1
 1159 1444 l 1,29,-1
 1159 1403 l 1,30,31
 1093 1403 1093 1403 1063.5 1386.5 c 128,-1,32
 1034 1370 1034 1370 1025 1333 c 128,-1,33
 1016 1296 1016 1296 1016 1219 c 2,34,-1
 1016 109 l 2,35,36
 1016 -127 1016 -127 906.5 -262 c 128,-1,37
 797 -397 797 -397 604 -397 c 0,38,0
 467 -397 467 -397 362.5 -365.5 c 128,-1,1
EndSplineSet
Validated: 5
EndChar

StartChar: section
Encoding: 167 167 357
Width: 1267
GlyphClass: 1
Flags: W
LayerCount: 2
Fore
SplineSet
900.5 417 m 128,-1,1
 918 455 918 455 918 494 c 0,2,3
 918 551 918 551 868.5 586 c 128,-1,4
 819 621 819 621 702 649 c 2,5,-1
 412 717 l 2,6,7
 269 752 269 752 194 831.5 c 128,-1,8
 119 911 119 911 119 1030 c 0,9,10
 119 1155 119 1155 192.5 1256.5 c 128,-1,11
 266 1358 266 1358 395 1416.5 c 128,-1,12
 524 1475 524 1475 682 1475 c 0,13,14
 776 1475 776 1475 873.5 1455.5 c 128,-1,15
 971 1436 971 1436 1067 1399 c 1,16,-1
 1067 1098 l 1,17,-1
 1026 1098 l 1,18,19
 979 1262 979 1262 887 1341.5 c 128,-1,20
 795 1421 795 1421 651 1421 c 0,21,22
 532 1421 532 1421 459.5 1372 c 128,-1,23
 387 1323 387 1323 387 1243 c 0,24,25
 387 1186 387 1186 430 1149 c 128,-1,26
 473 1112 473 1112 569 1087 c 2,27,-1
 948 989 l 2,28,29
 1083 954 1083 954 1144.5 885.5 c 128,-1,30
 1206 817 1206 817 1206 702 c 0,31,32
 1206 624 1206 624 1161 548.5 c 128,-1,33
 1116 473 1116 473 1037 416.5 c 128,-1,34
 958 360 958 360 862 338 c 1,35,-1
 854 352 l 1,36,0
 883 379 883 379 900.5 417 c 128,-1,1
367.5 658.5 m 128,-1,38
 350 621 350 621 350 582 c 0,39,40
 350 525 350 525 399.5 490 c 128,-1,41
 449 455 449 455 565 426 c 2,42,-1
 856 358 l 2,43,44
 999 323 999 323 1074 243.5 c 128,-1,45
 1149 164 1149 164 1149 45 c 0,46,47
 1149 -80 1149 -80 1075 -181.5 c 128,-1,48
 1001 -283 1001 -283 872 -341 c 128,-1,49
 743 -399 743 -399 586 -399 c 0,50,51
 492 -399 492 -399 394.5 -379.5 c 128,-1,52
 297 -360 297 -360 201 -324 c 1,53,-1
 201 -23 l 1,54,-1
 242 -23 l 1,55,56
 289 -187 289 -187 381 -266.5 c 128,-1,57
 473 -346 473 -346 616 -346 c 0,58,59
 735 -346 735 -346 808 -297 c 128,-1,60
 881 -248 881 -248 881 -168 c 0,61,62
 881 -111 881 -111 838 -74 c 128,-1,63
 795 -37 795 -37 698 -12 c 2,64,-1
 319 86 l 2,65,66
 184 121 184 121 122.5 189.5 c 128,-1,67
 61 258 61 258 61 373 c 0,68,69
 61 451 61 451 106.5 526.5 c 128,-1,70
 152 602 152 602 230.5 658.5 c 128,-1,71
 309 715 309 715 406 737 c 1,72,-1
 414 723 l 1,73,37
 385 696 385 696 367.5 658.5 c 128,-1,38
EndSplineSet
Validated: 5
EndChar

StartChar: asciicircum
Encoding: 94 94 358
Width: 1228
GlyphClass: 1
Flags: W
LayerCount: 2
Fore
SplineSet
555 1444 m 1,0,-1
 674 1444 l 1,1,-1
 1024 780 l 1,2,-1
 905 780 l 1,3,-1
 594 1380 l 1,4,-1
 635 1380 l 1,5,-1
 324 780 l 1,6,-1
 205 780 l 1,7,-1
 555 1444 l 1,0,-1
EndSplineSet
Validated: 5
EndChar

StartChar: dagger
Encoding: 8224 8224 359
Width: 966
GlyphClass: 1
Flags: W
LayerCount: 2
Fore
SplineSet
369 780 m 1,0,-1
 477 1106 l 1,1,-1
 489 1106 l 1,2,-1
 598 780 l 1,3,-1
 494 -225 l 1,4,-1
 473 -225 l 1,5,-1
 369 780 l 1,0,-1
60.5 1176.5 m 128,-1,7
 92 1243 92 1243 166 1251.5 c 128,-1,8
 240 1260 240 1260 334 1202 c 2,9,-1
 483 1112 l 1,10,-1
 483 1100 l 1,11,-1
 51 999 l 1,12,6
 29 1110 29 1110 60.5 1176.5 c 128,-1,7
906 1035.5 m 128,-1,14
 874 969 874 969 800.5 960.5 c 128,-1,15
 727 952 727 952 633 1010 c 2,16,-1
 483 1100 l 1,17,-1
 483 1112 l 1,18,-1
 915 1212 l 1,19,13
 938 1102 938 1102 906 1035.5 c 128,-1,14
554 1529 m 128,-1,21
 621 1497 621 1497 629 1423.5 c 128,-1,22
 637 1350 637 1350 580 1255 c 2,23,-1
 489 1106 l 1,24,-1
 477 1106 l 1,25,-1
 377 1538 l 1,26,20
 487 1561 487 1561 554 1529 c 128,-1,21
EndSplineSet
Validated: 37
EndChar

StartChar: daggerdbl
Encoding: 8225 8225 360
Width: 1048
GlyphClass: 1
Flags: W
LayerCount: 2
Fore
SplineSet
403 946 m 1,0,-1
 645 946 l 1,1,-1
 535 674 l 1,2,-1
 514 674 l 1,3,-1
 403 946 l 1,0,-1
453.5 -208 m 128,-1,5
 387 -176 387 -176 379 -102.5 c 128,-1,6
 371 -29 371 -29 428 66 c 2,7,-1
 518 215 l 1,8,-1
 530 215 l 1,9,-1
 631 -217 l 1,10,4
 520 -240 520 -240 453.5 -208 c 128,-1,5
101.5 281.5 m 128,-1,12
 133 348 133 348 207 356.5 c 128,-1,13
 281 365 281 365 375 307 c 2,14,-1
 524 217 l 1,15,-1
 524 205 l 1,16,-1
 92 104 l 1,17,11
 70 215 70 215 101.5 281.5 c 128,-1,12
403 375 m 1,18,-1
 645 375 l 1,19,-1
 530 215 l 1,20,-1
 518 215 l 1,21,-1
 403 375 l 1,18,-1
947 144.5 m 128,-1,23
 915 78 915 78 841.5 69.5 c 128,-1,24
 768 61 768 61 674 119 c 2,25,-1
 524 209 l 1,26,-1
 524 221 l 1,27,-1
 956 322 l 1,28,22
 979 211 979 211 947 144.5 c 128,-1,23
514 647 m 1,29,-1
 535 647 l 1,30,-1
 645 375 l 1,31,-1
 403 375 l 1,32,-1
 514 647 l 1,29,-1
101.5 1176.5 m 128,-1,34
 133 1243 133 1243 207 1251.5 c 128,-1,35
 281 1260 281 1260 375 1202 c 2,36,-1
 524 1112 l 1,37,-1
 524 1100 l 1,38,-1
 92 999 l 1,39,33
 70 1110 70 1110 101.5 1176.5 c 128,-1,34
518 1106 m 1,40,-1
 530 1106 l 1,41,-1
 645 946 l 1,42,-1
 403 946 l 1,43,-1
 518 1106 l 1,40,-1
947 1039.5 m 128,-1,45
 915 973 915 973 841.5 964.5 c 128,-1,46
 768 956 768 956 674 1014 c 2,47,-1
 524 1104 l 1,48,-1
 524 1116 l 1,49,-1
 956 1217 l 1,50,44
 979 1106 979 1106 947 1039.5 c 128,-1,45
595 1529 m 128,-1,52
 662 1497 662 1497 670 1423.5 c 128,-1,53
 678 1350 678 1350 621 1255 c 2,54,-1
 530 1106 l 1,55,-1
 518 1106 l 1,56,-1
 418 1538 l 1,57,51
 528 1561 528 1561 595 1529 c 128,-1,52
EndSplineSet
Validated: 37
EndChar

StartChar: dollar
Encoding: 36 36 361
Width: 1206
GlyphClass: 2
Flags: W
AnchorPoint: "Anchor-1" 614 1444 basechar 0
AnchorPoint: "Anchor-0" 614 0 basechar 0
LayerCount: 2
Fore
SplineSet
768 1669 m 1,0,-1
 831 1669 l 1,1,-1
 467 -266 l 1,2,-1
 403 -266 l 1,3,-1
 768 1669 l 1,0,-1
323.5 35 m 128,-1,5
 205 70 205 70 133 121 c 1,6,-1
 61 537 l 1,7,-1
 100 537 l 1,8,9
 202 306 202 306 327.5 183.5 c 128,-1,10
 453 61 453 61 588 61 c 0,11,12
 662 61 662 61 719 89 c 128,-1,13
 776 117 776 117 809 165 c 128,-1,14
 842 213 842 213 842 274 c 0,15,16
 842 350 842 350 795 401.5 c 128,-1,17
 748 453 748 453 627 508 c 2,18,-1
 406 608 l 2,19,20
 254 678 254 678 188.5 764 c 128,-1,21
 123 850 123 850 123 981 c 256,22,23
 123 1112 123 1112 198.5 1217.5 c 128,-1,24
 274 1323 274 1323 405.5 1383.5 c 128,-1,25
 537 1444 537 1444 698 1444 c 0,26,27
 790 1444 790 1444 900 1411 c 128,-1,28
 1010 1378 1010 1378 1085 1329 c 1,29,-1
 1085 989 l 1,30,-1
 1047 989 l 1,31,32
 1020 1169 1020 1169 910.5 1276.5 c 128,-1,33
 801 1384 801 1384 649 1384 c 0,34,35
 545 1384 545 1384 479.5 1331 c 128,-1,36
 414 1278 414 1278 414 1194 c 0,37,38
 414 1126 414 1126 459 1079 c 128,-1,39
 504 1032 504 1032 616 983 c 2,40,-1
 821 893 l 2,41,42
 1001 817 1001 817 1073 732 c 128,-1,43
 1145 647 1145 647 1145 510 c 256,44,45
 1145 373 1145 373 1064 256 c 128,-1,46
 983 139 983 139 847 69.5 c 128,-1,47
 711 0 711 0 551 0 c 0,48,4
 442 0 442 0 323.5 35 c 128,-1,5
EndSplineSet
Validated: 5
Substitution2: "'smcp' Lowercase to Small Capitals in Latin lookup 25 subtable" dollar.sc
Substitution2: "'c2sc' Capitals to Small Capitals in Latin lookup 24 subtable" dollar.sc
Substitution2: "'tnum' Tabular Numbers in Latin lookup 22 subtable" dollar.tf
AlternateSubs2: "'aalt' Access All Alternates in Latin lookup 1 subtable" dollar.tf dollar.sc
EndChar

StartChar: cent
Encoding: 162 162 362
Width: 1091
GlyphClass: 1
Flags: W
LayerCount: 2
Fore
SplineSet
670 1520 m 1,0,-1
 733 1520 l 1,1,-1
 432 -86 l 1,2,-1
 369 -86 l 1,3,-1
 670 1520 l 1,0,-1
298 230.5 m 128,-1,5
 176 299 176 299 108.5 422 c 128,-1,6
 41 545 41 545 41 698 c 0,7,8
 41 864 41 864 120 996 c 128,-1,9
 199 1128 199 1128 336 1203 c 128,-1,10
 473 1278 473 1278 639 1278 c 0,11,12
 764 1278 764 1278 858 1240 c 128,-1,13
 952 1202 952 1202 1002.5 1141.5 c 128,-1,14
 1053 1081 1053 1081 1053 1016 c 0,15,16
 1053 965 1053 965 1023 916.5 c 128,-1,17
 993 868 993 868 938 836 c 1,18,-1
 776 836 l 1,19,20
 751 1039 751 1039 700 1134 c 128,-1,21
 649 1229 649 1229 573 1229 c 0,22,23
 518 1229 518 1229 478 1192 c 128,-1,24
 438 1155 438 1155 417.5 1082.5 c 128,-1,25
 397 1010 397 1010 397 905 c 0,26,27
 397 768 397 768 442 659.5 c 128,-1,28
 487 551 487 551 572 490.5 c 128,-1,29
 657 430 657 430 774 430 c 0,30,31
 862 430 862 430 933 457.5 c 128,-1,32
 1004 485 1004 485 1061 537 c 1,33,-1
 1061 502 l 1,34,35
 975 334 975 334 853 248 c 128,-1,36
 731 162 731 162 575 162 c 256,37,4
 420 162 420 162 298 230.5 c 128,-1,5
EndSplineSet
Validated: 5
Substitution2: "'tnum' Tabular Numbers in Latin lookup 22 subtable" cent.tf
Substitution2: "'aalt' Access All Alternates in Latin lookup 0 subtable" cent.tf
EndChar

StartChar: sterling
Encoding: 163 163 363
Width: 1755
GlyphClass: 1
Flags: W
LayerCount: 2
Fore
SplineSet
72.5 -12 m 128,-1,1
 20 27 20 27 20 100 c 0,2,3
 20 166 20 166 65.5 205 c 128,-1,4
 111 244 111 244 186 244 c 0,5,6
 252 244 252 244 321.5 215 c 128,-1,7
 391 186 391 186 496 125 c 1,8,-1
 481 106 l 1,9,10
 514 241 514 241 539.5 354 c 128,-1,11
 565 467 565 467 586 578 c 2,12,-1
 649 915 l 2,13,14
 680 1079 680 1079 778.5 1201 c 128,-1,15
 877 1323 877 1323 1020 1388.5 c 128,-1,16
 1163 1454 1163 1454 1327 1454 c 0,17,18
 1452 1454 1452 1454 1542 1422.5 c 128,-1,19
 1632 1391 1632 1391 1678 1340.5 c 128,-1,20
 1724 1290 1724 1290 1724 1237 c 0,21,22
 1724 1167 1724 1167 1677 1115 c 128,-1,23
 1630 1063 1630 1063 1561 1030 c 1,24,-1
 1425 1030 l 1,25,26
 1413 1235 1413 1235 1382.5 1321 c 128,-1,27
 1352 1407 1352 1407 1298 1407 c 0,28,29
 1257 1407 1257 1407 1227.5 1370 c 128,-1,30
 1198 1333 1198 1333 1169 1235 c 2,31,-1
 985 623 l 2,32,33
 952 512 952 512 811 349 c 128,-1,34
 670 186 670 186 500 67.5 c 128,-1,35
 330 -51 330 -51 209 -51 c 0,36,0
 125 -51 125 -51 72.5 -12 c 128,-1,1
875.5 -335.5 m 128,-1,38
 766 -272 766 -272 678 -163.5 c 128,-1,39
 590 -55 590 -55 496 106 c 1,40,-1
 496 125 l 1,41,42
 654 45 654 45 833 1 c 128,-1,43
 1012 -43 1012 -43 1192 -43 c 0,44,45
 1360 -43 1360 -43 1475.5 -11.5 c 128,-1,46
 1591 20 1591 20 1716 100 c 1,47,-1
 1716 72 l 1,48,49
 1593 -153 1593 -153 1454 -276 c 128,-1,50
 1315 -399 1315 -399 1120 -399 c 0,51,37
 985 -399 985 -399 875.5 -335.5 c 128,-1,38
322 625 m 1,52,-1
 1354 625 l 1,53,-1
 1317 496 l 1,54,-1
 285 496 l 1,55,-1
 322 625 l 1,52,-1
EndSplineSet
Validated: 5
Substitution2: "'smcp' Lowercase to Small Capitals in Latin lookup 25 subtable" sterling.sc
Substitution2: "'c2sc' Capitals to Small Capitals in Latin lookup 24 subtable" sterling.sc
Substitution2: "'tnum' Tabular Numbers in Latin lookup 22 subtable" sterling.tf
AlternateSubs2: "'aalt' Access All Alternates in Latin lookup 1 subtable" sterling.tf sterling.sc
EndChar

StartChar: yen
Encoding: 165 165 364
Width: 1406
GlyphClass: 1
Flags: W
LayerCount: 2
Fore
SplineSet
115.5 1351.5 m 128,-1,1
 96 1378 96 1378 71.5 1390.5 c 128,-1,2
 47 1403 47 1403 10 1403 c 1,3,-1
 10 1444 l 1,4,-1
 133 1444 l 1,5,-1
 752 1444 l 1,6,-1
 752 1403 l 1,7,8
 674 1403 674 1403 642 1387.5 c 128,-1,9
 610 1372 610 1372 613 1337.5 c 128,-1,10
 616 1303 616 1303 649 1235 c 2,11,-1
 893 739 l 1,12,-1
 848 666 l 1,13,-1
 1124 1235 l 2,14,15
 1157 1303 1157 1303 1160 1337.5 c 128,-1,16
 1163 1372 1163 1372 1131.5 1387.5 c 128,-1,17
 1100 1403 1100 1403 1022 1403 c 1,18,-1
 1022 1444 l 1,19,-1
 1274 1444 l 1,20,-1
 1397 1444 l 1,21,-1
 1397 1403 l 1,22,23
 1362 1403 1362 1403 1338.5 1391.5 c 128,-1,24
 1315 1380 1315 1380 1296.5 1356.5 c 128,-1,25
 1278 1333 1278 1333 1251 1284 c 2,26,-1
 858 567 l 1,27,-1
 547 567 l 1,28,-1
 164 1270 l 2,29,0
 135 1325 135 1325 115.5 1351.5 c 128,-1,1
439.5 57.5 m 128,-1,31
 469 74 469 74 478 110.5 c 128,-1,32
 487 147 487 147 487 225 c 2,33,-1
 487 788 l 1,34,-1
 918 715 l 1,35,-1
 918 225 l 2,36,37
 918 147 918 147 927 110.5 c 128,-1,38
 936 74 936 74 965.5 57.5 c 128,-1,39
 995 41 995 41 1061 41 c 1,40,-1
 1061 0 l 1,41,-1
 877 0 l 1,42,-1
 528 0 l 1,43,-1
 344 0 l 1,44,-1
 344 41 l 1,45,30
 410 41 410 41 439.5 57.5 c 128,-1,31
236 489 m 1,46,-1
 1169 489 l 1,47,-1
 1169 432 l 1,48,-1
 236 432 l 1,49,-1
 236 489 l 1,46,-1
236 690 m 1,50,-1
 1169 690 l 1,51,-1
 1169 633 l 1,52,-1
 236 633 l 1,53,-1
 236 690 l 1,50,-1
EndSplineSet
Validated: 5
Substitution2: "'smcp' Lowercase to Small Capitals in Latin lookup 25 subtable" yen.sc
Substitution2: "'c2sc' Capitals to Small Capitals in Latin lookup 24 subtable" yen.sc
Substitution2: "'tnum' Tabular Numbers in Latin lookup 22 subtable" yen.tf
AlternateSubs2: "'aalt' Access All Alternates in Latin lookup 1 subtable" yen.tf yen.sc
EndChar

StartChar: Euro
Encoding: 8364 8364 365
Width: 1449
GlyphClass: 1
Flags: W
LayerCount: 2
Fore
SplineSet
4 649 m 1,0,-1
 1016 649 l 1,1,-1
 1001 592 l 1,2,-1
 -10 592 l 1,3,-1
 4 649 l 1,0,-1
4 850 m 1,4,-1
 1065 850 l 1,5,-1
 1051 793 l 1,6,-1
 -10 793 l 1,7,-1
 4 850 l 1,4,-1
508 65.5 m 128,-1,9
 332 162 332 162 232.5 333 c 128,-1,10
 133 504 133 504 133 721 c 0,11,12
 133 936 133 936 236.5 1107 c 128,-1,13
 340 1278 340 1278 523.5 1375.5 c 128,-1,14
 707 1473 707 1473 936 1473 c 0,15,16
 1045 1473 1045 1473 1152.5 1447 c 128,-1,17
 1260 1421 1260 1421 1348 1376 c 1,18,-1
 1348 1001 l 1,19,-1
 1307 1001 l 1,20,21
 1248 1220 1248 1220 1159.5 1317.5 c 128,-1,22
 1071 1415 1071 1415 934 1415 c 0,23,24
 813 1415 813 1415 728 1333 c 128,-1,25
 643 1251 643 1251 598 1095.5 c 128,-1,26
 553 940 553 940 553 721 c 0,27,28
 553 506 553 506 597 349.5 c 128,-1,29
 641 193 641 193 722 110 c 128,-1,30
 803 27 803 27 915 27 c 0,31,32
 1003 27 1003 27 1070 70 c 128,-1,33
 1137 113 1137 113 1201.5 215 c 128,-1,34
 1266 317 1266 317 1348 508 c 1,35,-1
 1389 508 l 1,36,-1
 1335 78 l 1,37,38
 1226 23 1226 23 1122 -4 c 128,-1,39
 1018 -31 1018 -31 905 -31 c 0,40,8
 684 -31 684 -31 508 65.5 c 128,-1,9
EndSplineSet
Validated: 5
Substitution2: "'smcp' Lowercase to Small Capitals in Latin lookup 25 subtable" Euro.sc
Substitution2: "'c2sc' Capitals to Small Capitals in Latin lookup 24 subtable" Euro.sc
Substitution2: "'tnum' Tabular Numbers in Latin lookup 22 subtable" Euro.tf
AlternateSubs2: "'aalt' Access All Alternates in Latin lookup 1 subtable" Euro.tf Euro.sc
EndChar

StartChar: fi
Encoding: 64257 64257 366
Width: 1468
GlyphClass: 3
Flags: W
AnchorPoint: "Anchor-8" 1327 0 baselig 0
AnchorPoint: "Anchor-7" 412 1444 baselig 0
AnchorPoint: "Anchor-6" 412 0 baselig 0
AnchorPoint: "Anchor-6" 1112 0 baselig 1
AnchorPoint: "Anchor-8" 1327 0 baselig 1
AnchorPoint: "Anchor-7" 1126 1585 baselig 1
LayerCount: 2
Fore
SplineSet
211 0 m 1,0,-1
 59 0 l 1,1,-1
 59 41 l 1,2,3
 106 41 106 41 130 51 c 128,-1,4
 154 61 154 61 162 82.5 c 128,-1,5
 170 104 170 104 170 147 c 2,6,-1
 170 1079 l 2,7,8
 170 1249 170 1249 222 1370 c 128,-1,9
 274 1491 274 1491 369.5 1554.5 c 128,-1,10
 465 1618 465 1618 596 1618 c 0,11,12
 676 1618 676 1618 744.5 1591.5 c 128,-1,13
 813 1565 813 1565 854 1519 c 128,-1,14
 895 1473 895 1473 895 1417 c 0,15,16
 895 1360 895 1360 855 1314 c 128,-1,17
 815 1268 815 1268 745 1241 c 1,18,-1
 666 1241 l 1,19,20
 662 1413 662 1413 631 1481.5 c 128,-1,21
 600 1550 600 1550 528 1550 c 0,22,23
 473 1550 473 1550 441.5 1506 c 128,-1,24
 410 1462 410 1462 410 1384 c 0,25,26
 410 1300 410 1300 454 1205 c 128,-1,27
 498 1110 498 1110 571 1032 c 1,28,-1
 571 147 l 2,29,30
 571 104 571 104 585.5 82.5 c 128,-1,31
 600 61 600 61 638 51 c 128,-1,32
 676 41 676 41 752 41 c 1,33,-1
 752 0 l 1,34,-1
 504 0 l 1,35,-1
 211 0 l 1,0,-1
51 952 m 1,36,-1
 170 1055 l 1,37,-1
 741 1055 l 1,38,-1
 741 952 l 1,39,-1
 51 952 l 1,40,-1
 51 952 l 1,36,-1
967 0 m 1,41,-1
 815 0 l 1,42,-1
 815 41 l 1,43,44
 862 41 862 41 885.5 51 c 128,-1,45
 909 61 909 61 917.5 82.5 c 128,-1,46
 926 104 926 104 926 147 c 2,47,-1
 926 836 l 1,48,-1
 815 899 l 1,49,-1
 815 899 l 1,50,-1
 1327 1141 l 1,51,-1
 1327 1055 l 1,52,-1
 1327 147 l 2,53,54
 1327 104 1327 104 1335 82.5 c 128,-1,55
 1343 61 1343 61 1367 51 c 128,-1,56
 1391 41 1391 41 1438 41 c 1,57,-1
 1438 0 l 1,58,-1
 1286 0 l 1,59,-1
 967 0 l 1,41,-1
982 1253.5 m 128,-1,61
 924 1313 924 1313 924 1397 c 256,62,63
 924 1481 924 1481 982 1540 c 128,-1,64
 1040 1599 1040 1599 1126 1599 c 256,65,66
 1212 1599 1212 1599 1270.5 1540 c 128,-1,67
 1329 1481 1329 1481 1329 1397 c 256,68,69
 1329 1313 1329 1313 1270.5 1253.5 c 128,-1,70
 1212 1194 1212 1194 1126 1194 c 256,71,60
 1040 1194 1040 1194 982 1253.5 c 128,-1,61
EndSplineSet
Validated: 5
MultipleSubs2: "'ccmp' Glyph Composition/Decomposition in Latin lookup 5 subtable" f i
EndChar

StartChar: fl
Encoding: 64258 64258 367
Width: 1509
GlyphClass: 3
Flags: W
AnchorPoint: "Anchor-7" 412 1444 baselig 0
AnchorPoint: "Anchor-6" 412 0 baselig 0
AnchorPoint: "Anchor-7" 1157 1618 baselig 1
AnchorPoint: "Anchor-6" 1157 0 baselig 1
LayerCount: 2
Fore
SplineSet
211 0 m 1,0,-1
 59 0 l 1,1,-1
 59 41 l 1,2,3
 106 41 106 41 130 51 c 128,-1,4
 154 61 154 61 162 82.5 c 128,-1,5
 170 104 170 104 170 147 c 2,6,-1
 170 1079 l 2,7,8
 170 1249 170 1249 222 1370 c 128,-1,9
 274 1491 274 1491 369.5 1554.5 c 128,-1,10
 465 1618 465 1618 596 1618 c 0,11,12
 676 1618 676 1618 744.5 1591.5 c 128,-1,13
 813 1565 813 1565 854 1519 c 128,-1,14
 895 1473 895 1473 895 1417 c 0,15,16
 895 1360 895 1360 855 1314 c 128,-1,17
 815 1268 815 1268 745 1241 c 1,18,-1
 666 1241 l 1,19,20
 662 1413 662 1413 631 1481.5 c 128,-1,21
 600 1550 600 1550 528 1550 c 0,22,23
 473 1550 473 1550 441.5 1506 c 128,-1,24
 410 1462 410 1462 410 1384 c 0,25,26
 410 1300 410 1300 454 1205 c 128,-1,27
 498 1110 498 1110 571 1032 c 1,28,-1
 571 147 l 2,29,30
 571 104 571 104 585.5 82.5 c 128,-1,31
 600 61 600 61 638 51 c 128,-1,32
 676 41 676 41 752 41 c 1,33,-1
 752 0 l 1,34,-1
 504 0 l 1,35,-1
 211 0 l 1,0,-1
51 952 m 1,36,-1
 170 1055 l 1,37,-1
 741 1055 l 1,38,-1
 741 952 l 1,39,-1
 51 952 l 1,40,-1
 51 952 l 1,36,-1
997 0 m 1,41,-1
 846 0 l 1,42,-1
 846 41 l 1,43,44
 893 41 893 41 916.5 51 c 128,-1,45
 940 61 940 61 948 82.5 c 128,-1,46
 956 104 956 104 956 147 c 2,47,-1
 956 1333 l 1,48,-1
 846 1397 l 1,49,-1
 846 1397 l 1,50,-1
 1358 1638 l 1,51,-1
 1358 1552 l 1,52,-1
 1358 147 l 2,53,54
 1358 104 1358 104 1366 82.5 c 128,-1,55
 1374 61 1374 61 1397.5 51 c 128,-1,56
 1421 41 1421 41 1468 41 c 1,57,-1
 1468 0 l 1,58,-1
 1317 0 l 1,59,-1
 997 0 l 1,41,-1
EndSplineSet
Validated: 5
MultipleSubs2: "'ccmp' Glyph Composition/Decomposition in Latin lookup 5 subtable" f l
EndChar

